<mxfile host="app.diagrams.net" modified="2021-04-14T20:01:19.909Z" agent="5.0 (Windows NT 10.0; Win64; x64) AppleWebKit/537.36 (KHTML, like Gecko) Chrome/89.0.4389.90 Safari/537.36" etag="FT9vi0EEzuwlaGveFkns" version="14.5.7" type="github">
  <diagram name="Page-1" id="e7e014a7-5840-1c2e-5031-d8a46d1fe8dd">
    <mxGraphModel dx="1422" dy="762" grid="0" gridSize="10" guides="1" tooltips="1" connect="1" arrows="1" fold="1" page="1" pageScale="1" pageWidth="1169" pageHeight="826" background="#ffffff" math="0" shadow="0">
      <root>
        <mxCell id="0" />
        <mxCell id="1" parent="0" />
        <mxCell id="-BK6sEllFb7gdvOe7oFn-75" value="" style="rounded=0;whiteSpace=wrap;html=1;dashed=1;fillColor=none;" vertex="1" parent="1">
          <mxGeometry x="140" y="90" width="150" height="680" as="geometry" />
        </mxCell>
        <mxCell id="-BK6sEllFb7gdvOe7oFn-44" style="edgeStyle=orthogonalEdgeStyle;rounded=0;orthogonalLoop=1;jettySize=auto;html=1;exitX=1;exitY=0.5;exitDx=0;exitDy=0;entryX=0;entryY=0.5;entryDx=0;entryDy=0;" edge="1" parent="1" source="13" target="15">
          <mxGeometry relative="1" as="geometry" />
        </mxCell>
        <mxCell id="13" value="" style="ellipse;shape=startState;fillColor=#000000;strokeColor=#ff0000;" parent="1" vertex="1">
          <mxGeometry x="70" y="110" width="30" height="30" as="geometry" />
        </mxCell>
        <mxCell id="-BK6sEllFb7gdvOe7oFn-96" style="edgeStyle=orthogonalEdgeStyle;rounded=0;orthogonalLoop=1;jettySize=auto;html=1;exitX=1;exitY=0.5;exitDx=0;exitDy=0;entryX=0;entryY=0.5;entryDx=0;entryDy=0;" edge="1" parent="1" source="15" target="-BK6sEllFb7gdvOe7oFn-94">
          <mxGeometry relative="1" as="geometry" />
        </mxCell>
        <mxCell id="15" value="setups" style="fillColor=#fff2cc;strokeColor=#d6b656;" parent="1" vertex="1">
          <mxGeometry x="160" y="100" width="110" height="50" as="geometry" />
        </mxCell>
        <mxCell id="-BK6sEllFb7gdvOe7oFn-41" value="Start" style="text;html=1;strokeColor=none;fillColor=none;align=center;verticalAlign=middle;whiteSpace=wrap;rounded=0;" vertex="1" parent="1">
          <mxGeometry x="42.5" y="90" width="85" height="20" as="geometry" />
        </mxCell>
        <mxCell id="-BK6sEllFb7gdvOe7oFn-42" value="RL env" style="fillColor=#f5f5f5;strokeColor=#666666;fontColor=#333333;" vertex="1" parent="1">
          <mxGeometry x="160" y="291" width="110" height="50" as="geometry" />
        </mxCell>
        <mxCell id="-BK6sEllFb7gdvOe7oFn-114" style="edgeStyle=orthogonalEdgeStyle;rounded=0;orthogonalLoop=1;jettySize=auto;html=1;exitX=1;exitY=0.5;exitDx=0;exitDy=0;entryX=0;entryY=0.75;entryDx=0;entryDy=0;" edge="1" parent="1" source="-BK6sEllFb7gdvOe7oFn-45" target="-BK6sEllFb7gdvOe7oFn-97">
          <mxGeometry relative="1" as="geometry">
            <Array as="points">
              <mxPoint x="340" y="389" />
              <mxPoint x="340" y="260" />
              <mxPoint x="520" y="260" />
              <mxPoint x="520" y="120" />
              <mxPoint x="610" y="120" />
              <mxPoint x="610" y="63" />
            </Array>
          </mxGeometry>
        </mxCell>
        <mxCell id="-BK6sEllFb7gdvOe7oFn-45" value="schema" style="fillColor=#f5f5f5;strokeColor=#666666;fontColor=#333333;" vertex="1" parent="1">
          <mxGeometry x="160" y="363.5" width="110" height="50" as="geometry" />
        </mxCell>
        <mxCell id="-BK6sEllFb7gdvOe7oFn-117" style="edgeStyle=orthogonalEdgeStyle;rounded=0;orthogonalLoop=1;jettySize=auto;html=1;exitX=1;exitY=0.5;exitDx=0;exitDy=0;entryX=0;entryY=0.75;entryDx=0;entryDy=0;" edge="1" parent="1" source="-BK6sEllFb7gdvOe7oFn-47" target="-BK6sEllFb7gdvOe7oFn-52">
          <mxGeometry relative="1" as="geometry">
            <Array as="points">
              <mxPoint x="380" y="450" />
              <mxPoint x="380" y="280" />
              <mxPoint x="550" y="280" />
              <mxPoint x="550" y="238" />
            </Array>
          </mxGeometry>
        </mxCell>
        <mxCell id="-BK6sEllFb7gdvOe7oFn-47" value="query generator" style="fillColor=#f5f5f5;strokeColor=#666666;fontColor=#333333;" vertex="1" parent="1">
          <mxGeometry x="160" y="425" width="110" height="50" as="geometry" />
        </mxCell>
        <mxCell id="-BK6sEllFb7gdvOe7oFn-116" style="edgeStyle=orthogonalEdgeStyle;rounded=0;orthogonalLoop=1;jettySize=auto;html=1;exitX=1;exitY=0.5;exitDx=0;exitDy=0;entryX=0;entryY=0.75;entryDx=0;entryDy=0;" edge="1" parent="1" source="-BK6sEllFb7gdvOe7oFn-48" target="-BK6sEllFb7gdvOe7oFn-52">
          <mxGeometry relative="1" as="geometry">
            <Array as="points">
              <mxPoint x="410" y="515" />
              <mxPoint x="410" y="300" />
              <mxPoint x="570" y="300" />
              <mxPoint x="570" y="238" />
            </Array>
          </mxGeometry>
        </mxCell>
        <mxCell id="-BK6sEllFb7gdvOe7oFn-48" value="executor" style="fillColor=#f5f5f5;strokeColor=#666666;fontColor=#333333;" vertex="1" parent="1">
          <mxGeometry x="160" y="490" width="110" height="50" as="geometry" />
        </mxCell>
        <mxCell id="-BK6sEllFb7gdvOe7oFn-120" style="edgeStyle=orthogonalEdgeStyle;rounded=0;orthogonalLoop=1;jettySize=auto;html=1;exitX=1;exitY=0.25;exitDx=0;exitDy=0;entryX=0.25;entryY=1;entryDx=0;entryDy=0;fillColor=#f8cecc;" edge="1" parent="1" source="-BK6sEllFb7gdvOe7oFn-49" target="-BK6sEllFb7gdvOe7oFn-51">
          <mxGeometry relative="1" as="geometry">
            <Array as="points">
              <mxPoint x="460" y="623" />
              <mxPoint x="460" y="331" />
              <mxPoint x="578" y="331" />
              <mxPoint x="578" y="180" />
            </Array>
          </mxGeometry>
        </mxCell>
        <mxCell id="-BK6sEllFb7gdvOe7oFn-49" value="Network 1 (Main)&#xa;(&quot;Gefrorenes&quot; netzwerk&#xa;Theta -)" style="fillColor=#dae8fc;strokeColor=#6c8ebf;" vertex="1" parent="1">
          <mxGeometry x="145" y="610" width="143" height="50" as="geometry" />
        </mxCell>
        <mxCell id="-BK6sEllFb7gdvOe7oFn-50" value="Network 2 (Target,&#xa;Theta)" style="fillColor=#dae8fc;strokeColor=#6c8ebf;" vertex="1" parent="1">
          <mxGeometry x="160" y="690" width="110" height="50" as="geometry" />
        </mxCell>
        <mxCell id="-BK6sEllFb7gdvOe7oFn-109" style="edgeStyle=orthogonalEdgeStyle;rounded=0;orthogonalLoop=1;jettySize=auto;html=1;exitX=0.5;exitY=1;exitDx=0;exitDy=0;entryX=0;entryY=0.5;entryDx=0;entryDy=0;" edge="1" parent="1" source="-BK6sEllFb7gdvOe7oFn-51" target="-BK6sEllFb7gdvOe7oFn-52">
          <mxGeometry relative="1" as="geometry" />
        </mxCell>
        <mxCell id="-BK6sEllFb7gdvOe7oFn-51" value="predicted action" style="fillColor=#fff2cc;strokeColor=#d6b656;" vertex="1" parent="1">
          <mxGeometry x="550" y="130" width="110" height="50" as="geometry" />
        </mxCell>
        <mxCell id="-BK6sEllFb7gdvOe7oFn-118" style="edgeStyle=orthogonalEdgeStyle;rounded=0;orthogonalLoop=1;jettySize=auto;html=1;exitX=0.5;exitY=1;exitDx=0;exitDy=0;entryX=0.5;entryY=0;entryDx=0;entryDy=0;" edge="1" parent="1" source="-BK6sEllFb7gdvOe7oFn-52" target="-BK6sEllFb7gdvOe7oFn-59">
          <mxGeometry relative="1" as="geometry" />
        </mxCell>
        <mxCell id="-BK6sEllFb7gdvOe7oFn-52" value="perform action" style="fillColor=#fff2cc;strokeColor=#d6b656;" vertex="1" parent="1">
          <mxGeometry x="690" y="200" width="110" height="50" as="geometry" />
        </mxCell>
        <mxCell id="-BK6sEllFb7gdvOe7oFn-87" style="edgeStyle=orthogonalEdgeStyle;rounded=0;orthogonalLoop=1;jettySize=auto;html=1;exitX=0.5;exitY=1;exitDx=0;exitDy=0;exitPerimeter=0;entryX=0;entryY=0.25;entryDx=0;entryDy=0;" edge="1" parent="1" source="-BK6sEllFb7gdvOe7oFn-58" target="-BK6sEllFb7gdvOe7oFn-77">
          <mxGeometry relative="1" as="geometry" />
        </mxCell>
        <mxCell id="-BK6sEllFb7gdvOe7oFn-58" value="Experience" style="shape=cylinder3;whiteSpace=wrap;html=1;boundedLbl=1;backgroundOutline=1;size=15;fillColor=#e1d5e7;strokeColor=#9673a6;" vertex="1" parent="1">
          <mxGeometry x="485" y="390" width="100" height="70" as="geometry" />
        </mxCell>
        <mxCell id="-BK6sEllFb7gdvOe7oFn-60" style="edgeStyle=orthogonalEdgeStyle;rounded=0;orthogonalLoop=1;jettySize=auto;html=1;exitX=0;exitY=0.5;exitDx=0;exitDy=0;entryX=1;entryY=0.25;entryDx=0;entryDy=0;" edge="1" parent="1" source="-BK6sEllFb7gdvOe7oFn-59" target="-BK6sEllFb7gdvOe7oFn-70">
          <mxGeometry relative="1" as="geometry" />
        </mxCell>
        <mxCell id="-BK6sEllFb7gdvOe7oFn-119" style="edgeStyle=orthogonalEdgeStyle;rounded=0;orthogonalLoop=1;jettySize=auto;html=1;exitX=0.5;exitY=1;exitDx=0;exitDy=0;entryX=0.5;entryY=0;entryDx=0;entryDy=0;" edge="1" parent="1" source="-BK6sEllFb7gdvOe7oFn-59" target="-BK6sEllFb7gdvOe7oFn-61">
          <mxGeometry relative="1" as="geometry" />
        </mxCell>
        <mxCell id="-BK6sEllFb7gdvOe7oFn-59" value="save experience&#xa;(subquery)" style="fillColor=#fff2cc;strokeColor=#d6b656;" vertex="1" parent="1">
          <mxGeometry x="690" y="260" width="110" height="50" as="geometry" />
        </mxCell>
        <mxCell id="-BK6sEllFb7gdvOe7oFn-92" style="edgeStyle=orthogonalEdgeStyle;rounded=0;orthogonalLoop=1;jettySize=auto;html=1;exitX=0.5;exitY=1;exitDx=0;exitDy=0;entryX=0.5;entryY=0;entryDx=0;entryDy=0;" edge="1" parent="1" source="-BK6sEllFb7gdvOe7oFn-61" target="-BK6sEllFb7gdvOe7oFn-62">
          <mxGeometry relative="1" as="geometry" />
        </mxCell>
        <mxCell id="-BK6sEllFb7gdvOe7oFn-61" value="get new state" style="fillColor=#fff2cc;strokeColor=#d6b656;" vertex="1" parent="1">
          <mxGeometry x="690" y="330" width="110" height="50" as="geometry" />
        </mxCell>
        <mxCell id="-BK6sEllFb7gdvOe7oFn-63" style="edgeStyle=orthogonalEdgeStyle;rounded=0;orthogonalLoop=1;jettySize=auto;html=1;exitX=1;exitY=0.5;exitDx=0;exitDy=0;entryX=1;entryY=0.75;entryDx=0;entryDy=0;" edge="1" parent="1" source="-BK6sEllFb7gdvOe7oFn-62" target="-BK6sEllFb7gdvOe7oFn-97">
          <mxGeometry relative="1" as="geometry">
            <mxPoint x="860" y="150" as="targetPoint" />
            <Array as="points">
              <mxPoint x="780" y="444" />
              <mxPoint x="970" y="444" />
              <mxPoint x="970" y="63" />
            </Array>
          </mxGeometry>
        </mxCell>
        <mxCell id="-BK6sEllFb7gdvOe7oFn-68" style="edgeStyle=orthogonalEdgeStyle;rounded=0;orthogonalLoop=1;jettySize=auto;html=1;exitX=0.5;exitY=1;exitDx=0;exitDy=0;entryX=0.5;entryY=0;entryDx=0;entryDy=0;" edge="1" parent="1" source="-BK6sEllFb7gdvOe7oFn-62" target="-BK6sEllFb7gdvOe7oFn-67">
          <mxGeometry relative="1" as="geometry" />
        </mxCell>
        <mxCell id="-BK6sEllFb7gdvOe7oFn-62" value="if done" style="rhombus;whiteSpace=wrap;html=1;fillColor=#f8cecc;strokeColor=#b85450;" vertex="1" parent="1">
          <mxGeometry x="700" y="403.5" width="80" height="46.5" as="geometry" />
        </mxCell>
        <mxCell id="-BK6sEllFb7gdvOe7oFn-64" value="no" style="text;html=1;strokeColor=none;fillColor=none;align=center;verticalAlign=middle;whiteSpace=wrap;rounded=0;" vertex="1" parent="1">
          <mxGeometry x="770" y="425" width="40" height="20" as="geometry" />
        </mxCell>
        <mxCell id="-BK6sEllFb7gdvOe7oFn-66" value="yes" style="text;html=1;strokeColor=none;fillColor=none;align=center;verticalAlign=middle;whiteSpace=wrap;rounded=0;" vertex="1" parent="1">
          <mxGeometry x="700" y="450" width="40" height="20" as="geometry" />
        </mxCell>
        <mxCell id="-BK6sEllFb7gdvOe7oFn-69" style="edgeStyle=orthogonalEdgeStyle;rounded=0;orthogonalLoop=1;jettySize=auto;html=1;exitX=0;exitY=0.5;exitDx=0;exitDy=0;entryX=1;entryY=0.75;entryDx=0;entryDy=0;" edge="1" parent="1" source="-BK6sEllFb7gdvOe7oFn-67" target="-BK6sEllFb7gdvOe7oFn-70">
          <mxGeometry relative="1" as="geometry">
            <mxPoint x="970" y="480" as="targetPoint" />
          </mxGeometry>
        </mxCell>
        <mxCell id="-BK6sEllFb7gdvOe7oFn-88" style="edgeStyle=orthogonalEdgeStyle;rounded=0;orthogonalLoop=1;jettySize=auto;html=1;exitX=0.5;exitY=1;exitDx=0;exitDy=0;entryX=0.5;entryY=0;entryDx=0;entryDy=0;" edge="1" parent="1" source="-BK6sEllFb7gdvOe7oFn-67" target="-BK6sEllFb7gdvOe7oFn-77">
          <mxGeometry relative="1" as="geometry" />
        </mxCell>
        <mxCell id="-BK6sEllFb7gdvOe7oFn-67" value="execute query &amp;&#xa;calculate rewards&#xa;(Add formula)" style="fillColor=#fff2cc;strokeColor=#d6b656;" vertex="1" parent="1">
          <mxGeometry x="685" y="540" width="110" height="50" as="geometry" />
        </mxCell>
        <mxCell id="-BK6sEllFb7gdvOe7oFn-72" style="edgeStyle=orthogonalEdgeStyle;rounded=0;orthogonalLoop=1;jettySize=auto;html=1;exitX=0;exitY=0.5;exitDx=0;exitDy=0;entryX=1;entryY=0.5;entryDx=0;entryDy=0;entryPerimeter=0;" edge="1" parent="1" source="-BK6sEllFb7gdvOe7oFn-70" target="-BK6sEllFb7gdvOe7oFn-58">
          <mxGeometry relative="1" as="geometry" />
        </mxCell>
        <mxCell id="-BK6sEllFb7gdvOe7oFn-70" value="" style="rounded=0;whiteSpace=wrap;html=1;fillColor=#000000;" vertex="1" parent="1">
          <mxGeometry x="630" y="363.5" width="10" height="66.5" as="geometry" />
        </mxCell>
        <mxCell id="-BK6sEllFb7gdvOe7oFn-78" style="edgeStyle=orthogonalEdgeStyle;rounded=0;orthogonalLoop=1;jettySize=auto;html=1;exitX=0;exitY=0.75;exitDx=0;exitDy=0;entryX=0.75;entryY=0;entryDx=0;entryDy=0;" edge="1" parent="1" source="-BK6sEllFb7gdvOe7oFn-77" target="-BK6sEllFb7gdvOe7oFn-50">
          <mxGeometry relative="1" as="geometry">
            <Array as="points">
              <mxPoint x="636" y="648" />
              <mxPoint x="636" y="676" />
              <mxPoint x="243" y="676" />
            </Array>
          </mxGeometry>
        </mxCell>
        <mxCell id="-BK6sEllFb7gdvOe7oFn-86" style="edgeStyle=orthogonalEdgeStyle;rounded=0;orthogonalLoop=1;jettySize=auto;html=1;exitX=0.5;exitY=1;exitDx=0;exitDy=0;" edge="1" parent="1" source="-BK6sEllFb7gdvOe7oFn-77" target="-BK6sEllFb7gdvOe7oFn-79">
          <mxGeometry relative="1" as="geometry" />
        </mxCell>
        <mxCell id="-BK6sEllFb7gdvOe7oFn-77" value="train target network" style="fillColor=#fff2cc;strokeColor=#d6b656;" vertex="1" parent="1">
          <mxGeometry x="685" y="610" width="110" height="50" as="geometry" />
        </mxCell>
        <mxCell id="-BK6sEllFb7gdvOe7oFn-80" style="edgeStyle=orthogonalEdgeStyle;rounded=0;orthogonalLoop=1;jettySize=auto;html=1;entryX=1;entryY=0.5;entryDx=0;entryDy=0;exitX=0;exitY=0.5;exitDx=0;exitDy=0;" edge="1" parent="1" source="-BK6sEllFb7gdvOe7oFn-79" target="-BK6sEllFb7gdvOe7oFn-50">
          <mxGeometry relative="1" as="geometry">
            <mxPoint x="650" y="740" as="sourcePoint" />
          </mxGeometry>
        </mxCell>
        <mxCell id="-BK6sEllFb7gdvOe7oFn-90" style="edgeStyle=orthogonalEdgeStyle;rounded=0;orthogonalLoop=1;jettySize=auto;html=1;exitX=1;exitY=0.5;exitDx=0;exitDy=0;entryX=0.5;entryY=0;entryDx=0;entryDy=0;" edge="1" parent="1" source="-BK6sEllFb7gdvOe7oFn-79" target="-BK6sEllFb7gdvOe7oFn-94">
          <mxGeometry relative="1" as="geometry">
            <Array as="points">
              <mxPoint x="1010" y="711" />
              <mxPoint x="1010" y="10" />
              <mxPoint x="445" y="10" />
            </Array>
          </mxGeometry>
        </mxCell>
        <mxCell id="-BK6sEllFb7gdvOe7oFn-79" value="if target update required" style="rhombus;whiteSpace=wrap;html=1;fillColor=#f8cecc;strokeColor=#b85450;" vertex="1" parent="1">
          <mxGeometry x="700" y="681" width="80" height="59" as="geometry" />
        </mxCell>
        <mxCell id="-BK6sEllFb7gdvOe7oFn-81" value="yes" style="text;html=1;strokeColor=none;fillColor=none;align=center;verticalAlign=middle;whiteSpace=wrap;rounded=0;dashed=1;" vertex="1" parent="1">
          <mxGeometry x="660" y="710" width="40" height="20" as="geometry" />
        </mxCell>
        <mxCell id="-BK6sEllFb7gdvOe7oFn-84" value="weights target to weights main" style="text;html=1;strokeColor=none;fillColor=none;align=center;verticalAlign=middle;whiteSpace=wrap;rounded=0;dashed=1;" vertex="1" parent="1">
          <mxGeometry x="290" y="720" width="110" height="20" as="geometry" />
        </mxCell>
        <mxCell id="-BK6sEllFb7gdvOe7oFn-89" value="no" style="text;html=1;strokeColor=none;fillColor=none;align=center;verticalAlign=middle;whiteSpace=wrap;rounded=0;dashed=1;" vertex="1" parent="1">
          <mxGeometry x="780" y="720" width="40" height="20" as="geometry" />
        </mxCell>
        <mxCell id="-BK6sEllFb7gdvOe7oFn-98" style="edgeStyle=orthogonalEdgeStyle;rounded=0;orthogonalLoop=1;jettySize=auto;html=1;exitX=1;exitY=0.5;exitDx=0;exitDy=0;entryX=0;entryY=0.5;entryDx=0;entryDy=0;" edge="1" parent="1" source="-BK6sEllFb7gdvOe7oFn-94" target="-BK6sEllFb7gdvOe7oFn-97">
          <mxGeometry relative="1" as="geometry">
            <Array as="points">
              <mxPoint x="590" y="100" />
              <mxPoint x="590" y="50" />
            </Array>
          </mxGeometry>
        </mxCell>
        <mxCell id="-BK6sEllFb7gdvOe7oFn-94" value="get logical query" style="fillColor=#fff2cc;strokeColor=#d6b656;" vertex="1" parent="1">
          <mxGeometry x="390" y="75" width="110" height="50" as="geometry" />
        </mxCell>
        <mxCell id="-BK6sEllFb7gdvOe7oFn-103" style="edgeStyle=orthogonalEdgeStyle;rounded=0;orthogonalLoop=1;jettySize=auto;html=1;exitX=0.5;exitY=1;exitDx=0;exitDy=0;entryX=0.5;entryY=0;entryDx=0;entryDy=0;" edge="1" parent="1" source="-BK6sEllFb7gdvOe7oFn-97" target="-BK6sEllFb7gdvOe7oFn-99">
          <mxGeometry relative="1" as="geometry" />
        </mxCell>
        <mxCell id="-BK6sEllFb7gdvOe7oFn-97" value="get possible actions" style="fillColor=#fff2cc;strokeColor=#d6b656;" vertex="1" parent="1">
          <mxGeometry x="690" y="25" width="110" height="50" as="geometry" />
        </mxCell>
        <mxCell id="-BK6sEllFb7gdvOe7oFn-105" style="edgeStyle=orthogonalEdgeStyle;rounded=0;orthogonalLoop=1;jettySize=auto;html=1;exitX=1;exitY=0.5;exitDx=0;exitDy=0;entryX=0;entryY=0.5;entryDx=0;entryDy=0;" edge="1" parent="1" source="-BK6sEllFb7gdvOe7oFn-99" target="-BK6sEllFb7gdvOe7oFn-100">
          <mxGeometry relative="1" as="geometry" />
        </mxCell>
        <mxCell id="-BK6sEllFb7gdvOe7oFn-108" style="edgeStyle=orthogonalEdgeStyle;rounded=0;orthogonalLoop=1;jettySize=auto;html=1;exitX=0;exitY=0.5;exitDx=0;exitDy=0;entryX=1;entryY=0.5;entryDx=0;entryDy=0;" edge="1" parent="1" source="-BK6sEllFb7gdvOe7oFn-99" target="-BK6sEllFb7gdvOe7oFn-51">
          <mxGeometry relative="1" as="geometry" />
        </mxCell>
        <mxCell id="-BK6sEllFb7gdvOe7oFn-99" value="if &amp;lt; epsilon" style="rhombus;whiteSpace=wrap;html=1;fillColor=#f8cecc;strokeColor=#b85450;" vertex="1" parent="1">
          <mxGeometry x="705" y="130" width="80" height="46.5" as="geometry" />
        </mxCell>
        <mxCell id="-BK6sEllFb7gdvOe7oFn-110" style="edgeStyle=orthogonalEdgeStyle;rounded=0;orthogonalLoop=1;jettySize=auto;html=1;exitX=0.5;exitY=1;exitDx=0;exitDy=0;entryX=1;entryY=0.5;entryDx=0;entryDy=0;" edge="1" parent="1" source="-BK6sEllFb7gdvOe7oFn-100" target="-BK6sEllFb7gdvOe7oFn-52">
          <mxGeometry relative="1" as="geometry" />
        </mxCell>
        <mxCell id="-BK6sEllFb7gdvOe7oFn-100" value="random action" style="fillColor=#fff2cc;strokeColor=#d6b656;" vertex="1" parent="1">
          <mxGeometry x="830" y="130" width="110" height="50" as="geometry" />
        </mxCell>
        <mxCell id="-BK6sEllFb7gdvOe7oFn-101" value="yes" style="text;html=1;strokeColor=none;fillColor=none;align=center;verticalAlign=middle;whiteSpace=wrap;rounded=0;" vertex="1" parent="1">
          <mxGeometry x="780" y="130" width="40" height="20" as="geometry" />
        </mxCell>
        <mxCell id="-BK6sEllFb7gdvOe7oFn-102" value="no" style="text;html=1;strokeColor=none;fillColor=none;align=center;verticalAlign=middle;whiteSpace=wrap;rounded=0;" vertex="1" parent="1">
          <mxGeometry x="665" y="130" width="40" height="20" as="geometry" />
        </mxCell>
        <mxCell id="-BK6sEllFb7gdvOe7oFn-115" style="edgeStyle=orthogonalEdgeStyle;rounded=0;orthogonalLoop=1;jettySize=auto;html=1;exitX=1;exitY=0.5;exitDx=0;exitDy=0;exitPerimeter=0;entryX=0.5;entryY=1;entryDx=0;entryDy=0;" edge="1" parent="1" source="-BK6sEllFb7gdvOe7oFn-111" target="-BK6sEllFb7gdvOe7oFn-94">
          <mxGeometry relative="1" as="geometry" />
        </mxCell>
        <mxCell id="-BK6sEllFb7gdvOe7oFn-111" value="Database" style="shape=cylinder3;whiteSpace=wrap;html=1;boundedLbl=1;backgroundOutline=1;size=15;fillColor=#e1d5e7;strokeColor=#9673a6;" vertex="1" parent="1">
          <mxGeometry x="165" y="180" width="100" height="70" as="geometry" />
        </mxCell>
        <mxCell id="-BK6sEllFb7gdvOe7oFn-113" value="random or trainset" style="text;html=1;strokeColor=none;fillColor=none;align=center;verticalAlign=middle;whiteSpace=wrap;rounded=0;dashed=1;" vertex="1" parent="1">
          <mxGeometry x="360" y="190" width="60" height="20" as="geometry" />
        </mxCell>
        <mxCell id="-BK6sEllFb7gdvOe7oFn-123" value="Query Optimizer RL Flow" style="text;html=1;strokeColor=none;fillColor=none;align=center;verticalAlign=middle;whiteSpace=wrap;rounded=0;dashed=1;fontSize=20;" vertex="1" parent="1">
          <mxGeometry x="10" y="5" width="270" height="55" as="geometry" />
        </mxCell>
        <mxCell id="-BK6sEllFb7gdvOe7oFn-124" value="" style="shape=image;verticalLabelPosition=bottom;labelBackgroundColor=#ffffff;verticalAlign=top;aspect=fixed;imageAspect=0;image=data:image/png,iVBORw0KGgoAAAANSUhEUgAAAXQAAABTCAYAAACPvfxpAAAgAElEQVR4Ae3dB5QlRdUH8DUr5oA5gRETqBgRMa2KCcxZTIgBA+aAOWLCvIuCARWzmAUDRkRZFFkRjKwBMaw55/rOr89XY29vxxd63szee847b6ZfdXXVv6r+de+tW9VrUkggEAgEAoHAqkBgzaqoRVQiEAgEAoFAIAWhRycIBAKBQGCVIBCEvkoaMqoRCAQCgUAQevSBQCAQCARWCQJB6KukIaMagUAgEAi0EvpvfvObdNJJJ6WNGzdu8Tn11FPT3//+90AvEAgEAoFAYE4I/OQnP6nl3xNPPDH99a9/rX1qK6G/733vS1e5ylXSzjvvnHbZZZelz5577pk2bdpUm2FcDAQCgUAgEJgegQMPPDBd61rXWuJdHHyNa1wj7bDDDunkk0+ufUAroR922GHpyle+cjrooIPSK17xiqXPoYcemmjvIYFAIBAIBALzQeCTn/zkEufi34MPPjjts88+ac2aNemEE06ofWgnod/61rdO//jHP2pvjouBQCAQCAQCkyHw3//+N23evLnQts8444z0n//8pzOjD37wg9MR+tq1axv9NZ1PjwSBQCAQCAQCtQjwke+7775p9913T3vttVf6zGc+k5B8m7z//e8PQm8DKH4LBAKBQGBsBCxqvupVr0pHHnlkOuqoo9Lee++dLnaxi6Wvfe1rrUUJQm+FJ34MBAKBQGB8BH7729+mH//4x0sP3rBhQzrTmc6U1q9fv3St7o+FI3SLqSrSx19UV6G4FggEAoHAciPwhz/8IX3ve9/rdJH0Lec3v/nNdLaznS29+93vbr1loQjdrLT//vsXJsa///3v1oLHj4FAIBAILCoCP/3pT9N973vf9I53vGMmyum6devSrrvumk4//fTWKi8UoQu9ef7znz+zWa215vFjIBAIBAJzROBb3/pW2m233RLtehr5/e9/n+5yl7uk448/vjObhSB0u0rf8pa3pHvc4x7p17/+dWehI0EgEAgEAisBgQ984APp3ve+d/rVr341UXHx4QEHHFDwY58Mlp3Q+cpf/OIXF7udmoLh+1Qk0gQCgUAgsGgI4LdnPvOZaY899kinnHLKoOJZT+S1OO6441J2QXdp+8tO6MJw7Db93Oc+N6iykTgQCAQCgZWAgHhyW/Qf/OAHp3/961+9i/yyl70s+Xz5y19OX/ziF9NHPvKRIo+2DJaV0H/wgx+ka1/72ukRj3jE0gzUVtj4LRAIBAKBlYaAzUBHH310ccYKwu0Twcf/ftOb3rQ4J+s617lOwZPOzHrKU57SWv1lJXSmyPnPf/7Gg2RaSx4/BgKBQCCwghCwRnipS10q0di7xHEqov5+97vfLX3833SKYs5v2Qjdyq2TGpF69g/lQsV3IBAIBAKrDYGPf/zjabvttkvPec5z5la1ZSN0R+/ynf/xj3+cW+Ui40AgEAgEFgUB0XwOM7zCFa4wtwMNl4XQaeR3uMMdinCcrsNmFqUxohyBQCAQCEyLwNe//vV08YtffG5BIMtC6G9729vSBS94weJtG9MCFPcHAoFAILCSEBDtcqc73anX4ujQeo1O6Bz7Vm+9WaPLwT+0MpE+EAgEAoFFR+Dwww9P22+/ffr2t78986KOTuif/exni4WB+9znPnOZoWaOUGQYCAQCgcAMEfjud7+bznGOc6THP/7xM+fA0Qn9la98ZXEA+0tf+tIZQhRZBQKBQCCwMhDgmbAwerWrXa1XCOOQWo1K6BZAH/jABxaE/vnPf35IOSPtKkbAcclenTXr8NVf/OIXiXnbJ+53FcO7rFVbrUEP09TLxiLnuzgO13tBZymjEvrPfvazdPWrX73Y9fTLX/5ylvWIvBYMAeTc512z//znP9Ntb3vbdL7znS/9+c9/nmktnve85xUvBbAIP60YwH/729+S/RO+Zym2g8NhtcmmTZsGn1+yXBjoq/rfn/70p16nvX7pS1+aKuT6kEMOKRTbF7zgBTOt8qiEfuyxxxa+owMPPLDXYJ9pTSOzwQggZYvYNOiTTz45mYTF0nYJDcQZPY526BL+xMtc5jLpVre61cz9iUJjL3ShC6VTTz21qxidv8PAxPCGN7yheLv6aaed1nlP3wQsCZtOFjFIQFs68Q85247uPO4+E69J77GPfWyaJU598RyaziT93ve+N7397W9PXMHq2SUf/ehH02GHHdaVrPF37wdds2ZNuv/979+YZpIfRiN05GAwnPWsZy3ekzdJYeOecRCw2etTn/pUevazn128cMRu3mc84xnpbne7W3r4wx+evvKVrzQSu7e0vOlNbypeaEvb6RLHi+oT+sYshcZ1uctdLj3mMY8ZdCBSXRm+8Y1vpKc97WnJ9/e///1ip99NbnKTLSYKGjzcvKmm61PV8BE5TL0MgRW7CGLidijUi170ovS4xz0uPetZz0oUsQc84AFJQMPGjRsbNVlHxT7qUY9Kr3vd6xrTLEIdlUF/3W+//RKC/uEPf1j0Wxbjj370o9YiasMnP/nJxUQwiavQc/X7m93sZukvf/lL67OG/DgaoZvVdYSLXOQixXGQQwoZacdDQEc1cLWTeFlaNmJGOl/96lfTVa961WJjxMc+9rGtCqVj77PPPunTn/50b20bUZ73vOeduZ/7O9/5Trr0pS898TnUuXK0t+td73oF2eZrBiPtytGmWRDgS17ykvTc5z639WPbdx128mHVmDyn8c/m8kzzrR3f/OY3p4te9KLpjne8YzGJaX99g6a+5557putf//rF9brnvPa1ry0mf9gtujgY8NWvfvUS5rDfaaedihc0d52MaFK7/OUvP9FZVCa9K13pSsVueRPJrGQ0Qt+8eXNReee39DHFZ1XBnM8xxxxTLLz1Oeks37OtfdNqkZS3i9PI6l42Qus6y1nOUmgWVb+v9x3SdroGQhlX50QjuT7+9vJ9XX8zob0CbFpy9OZ1eya8UiwL15MzOSgoWdTZRGaRq+3ziU98otGkh4GggUMPPbTRAsrPm9c3onGi3yUucYniFNRyvfMzv/CFLxTa5V3vetfCJZev+2al3PKWtyy0+2mxL+c7j79ZXCZr546X5UY3ulG6+c1vXlha5evVv03iLBGupaFCSbIw6nBCruhZyWiEzgdJqwEWk3Rs4TIwwIeQzdhlXM7nweWtb31r4XOmtTThdOKJJ6YLX/jC6exnP/sWC15MVNr7kM7JP3/jG994Ln5WpOS8oGkEuTne+aCDDtoiAsf1c5/73AVxTZN/3b3aALb2a4wtCJgb4cxnPnPafffdGydZypk+4C30fMFl4UKzC7I62ZfTLMrf3gTEhVSdeHDUZS972VqFplp22vV1r3vdwa4yVhDlCSdSPmYloxE6IlD4293udlsB2KcyAMjA+x6qaSN0GlUTUdWVQVqf/NxymqbrOY17qmX2f1Wq6aq/l/8v55evu7/68Vv1mv/bhFbJxDZQLYA2iUUxi5gG/Yc//OEimXLxrXPTVLWdaj7aLeOAtB796Ecv/V9N2/f/nKfvXE/ao8XGSUUZLXqJvhHRUJasnPCjz1o2bNhQTKrLoXw4Z8SRHFxgH/rQhxqrxuerDxjP3BVZTNC3uc1tCndFvtb0rZ1yP2hK03a9rs3b0ld/+/nPf164Vl7zmtds8ZNyeRmFcWDi7hJWlcV3bsrc97ruyb8feeSRBYYWYqfBIufnezRC97YNHeB+97tf+fmdf6uogc+UNxv6X2ezYDfkpMahhM6KeMhDHlI0FndNWbiM1MProKqNSDPxqqkjjjii2AnGtEKQL3/5y4s6eHdqXiyk1Vp04qv2u/+r+Zk4bBHmzmDavfGNbyxC53J5TJQWFPktfd71rncV5yfD2/9cJEz4tkgPZjW/ofZRlmoZ8rN886E601laoVdEVMB5znOewreqvHWi43vripeAP/KRj0xeN2jRra1cdfnka8oovtyg4Hc2oTz96U8v8pTGdYO+Ku6DJ5JuKqt7tIUIGSeCVqNPcoQC//KshZ+aj5oFYKG0rS1m+WzuA24G7jQLyW0Eo//mPkCjz8I60y9MDE0iX/Xy2kmWoIXgvouCsBA18573vKdYpH7oQx9aWBQnnXTS0uPk5e1nde7CnEg++qC6ViNarPVZe7nmNa+5lTsp31/95p7UT7qUmep9+pEyqEefyKHq/XX/j0boTEmNjSSHiMbfcccdi3v5KIV30Q4QSNf79crPGUronmWmvsUtbpHuda97lbMq3j5Ck9GQVdPyjDPOKFw7VrCVEcFaNWe687vCQPibBRXk6W0k/JWum+kdaJ/FhGVjDL+qeFVv/rYZwcJbHnD8gHe/+92L+z2TxmExygQhzxvc4AaFFtX0PkP5mByl9THhtIn24PeT1qRFRLX4f9999629FUkdfPDBRcd90IMeVCyqlv3PtTe1XIQ5QjbB2T7NJcIXrwyIok24C6SFeRvxHHXUUUV+zG+aJ4LIn4ytusxDnvjEJxYDnTug2r/m8Tx5MvvPec5zFmeMdIUa0m5zH3jhC1+4VKR169YVFg0LpklM4ggMDxjHtsC3tUM5H5P//vvvn570pCcV4YUW4M91rnMt9UNEbSJXNn2ySYwrvnP3WuDO7eqb8mUyNRb7KozcTCxWIbhDRB/GCfihPO6H5FFNOxqhv/71ry8GiJmxr5htabDMT4DJw1s/DGCbRobMakMJnebAMqAFGmBlLQJh2rbrfX9VLY+mw2xmtuowCFZ0CK0eqRk0ZnMRESYNVof08uOTLO8cQ+ImDhYJ4jWQrIwjo7JmYZEOmXoe049GSTvfe++9W90n2oELhasEGe6www6dGjM3hLYweYjKIE94whOK++FUJ7BkwtKkdFxRHnkyqEvfdo3WrR/QYk3u+oCBzGeuXG2uAvkyo51JzSJpIxLtAxOTpV3NtKn8gavf9MN5iOMx9BOEZzKct9C4rWWoE6WhS/RXWEuPQLKwkAQ9IMY60VYmU+PBGBIaq8/o121iUjMu7nznOyfWMky0ufF5gQtcYGks6BvaXz9uixE35pC+cWiROrer/NavX1+MQ23bdzLNlgllZ4hk9xqli6IxCxmN0JGZDmAhoq8gSw0vDtYiBb8oU51o0CFCm+Ym6XufmTsPJu4LmnBZaO1tFoJIEZ1N+bPQ3nUixFudkWmb8DGYs5jMEBcNMYvn0tKRWVkMll122aUgAtvoaUF9YprF35pIPJvGWeemKD/HhCqtiSa7ImjbrnGn1AlN0wTAKplWTLDOwSiH/mlTuMC8rU3ys02A2rdJ5JePqBC+Vxb4aBP17Zo8yvcN+dsGF9Ydc3yoGT/kOTmtiVlfVSeE1iXITlqLt1xTWbhFd91110bNVtt4TlYE8n1d39JTOlhjWbQR9yP3iPbMQvGhyee+ma+XvxGv8ttXURUL6foq92BZaOvlcVj+Tb+epD+4j3LGvdPHX19+ZtPfoxF61ni6XnJaLagBZNWcxmvxoI2QzbS0RbN++cNEu+ENb1hEYSBOk4qPDiK9b77osnhufhZtuDzjAx95ZcIv35f/dog90itbEToZ14uBUDXnmK46BcsjC80JKSsHHzQtP7sWmHlV4dbSGWlJ/Nu5/NV05f9p8p7L9OtytzApTax5MMgfTha6XTNp1wnNze9MS504u4vq0nZd41Kx8Fa2mODKPaaNmwZdV77l39Vpr732KiZOrpeyaDcaoE1LNhnNQ2iNNEgTrXj6qrD6WG9DPvorN4R+VBUKgMmD1l1dL6qm1Sf52pXNGCuPARO3o7HL18r3m4wRsM00xx9/fG8N2FilBGVlTp4UJWsYLAtW8RDJ63m4oCr6KoKlfGXRz13nmqyTvC/hne98Z93PjdeMJ32JgtJlpTRmUvlhNELPhGUjyRCxOMmHjtSbTLmcH2BpnNUPbe6e97xnQYa0qurvGrhNm6UlsRII4A2ONg1PujpCN5iEONGwq4RuskJ6/ONZDAyWgclQ50OYfHvS1RE6kjOoDDbx030IPWtbtNs68shlMWiY4/Iu+589Q9soExdUndCgDEqLjCY54Vp9ylbNy+LtFa94xa2eoxPD1MQ9C2EZCtvj8ihjoswInt/XxFutg/+r1yYpj/4ougbB1vmzET4SHvLRXyg8VReh8nGJaT8YljXuatndS1GQzqRanTy5RuHWROjys6BJ22aBGEcmzzax9mPypP3nSRzGFCx9kR99qAgSUF/fZVFuMfTIuyyex63SdH55JnT++yFCQdOfbU5acYRusAPRwB4ifLw6kMXFaYRveWjYYn4eDTBH5yAP2kWXzILQLVQ5CJ/PlnZDuFLgWEfoTE0m784771y4X2DXJXlgKG/bYpY60+J9tEVZy+aqUSbRJm3ChYQMhUd2Tc7VfAwqPlfPKceXs5aQCwJEhLMQdUNMDpIrm8LIh1ZoHaPsSvNM5aNB5naaphzcPHDmR6cRz1v4p7ULy7FNsUFcNGwTDX9zVSzyU1i69plQNiw8skLKESrV/GAqKECbl8c/Itxtt92K65O8cFmfl2fVbYmw9c2yJaBM2p3Grjx1woKXX9VNU5e2fI2yYLKyfjZNiG05z9E0dPGqKi1UaYgAyWC1gDCNTEvotA8EiUy6tArlpPFWXS5DNHTaEKKCmZ15WSx+uqbhyiJvEQDM8aOPPrpwUfEDV3315Xv8jagRB4ybNAyaEd+5Qf/Upz51K7MdtspUZ8LSejJerBJmusHcJyKAVZDvhUfeiJEHIm3STr2HPexhRRidhSVk0jTwct1hVXaF5ev52zO5XOwQLS9WWUzjA2YxVYUVZzKdxcmOrCZYe76yzltYAcx+bpfjjjuu9nH6gLGLzK1l1bk59A0aZxmznJn0WXOXF+3cpEVjJ9pMXcv19bc8PTO7vigtQlRp5vocN6M+ntvct0mwrHDkMuTv7HIpByBYAKVwiDrL5ZRev5PeuknVqs75ZZ981W2bf2/6zj50k2AdZk33tV0fjdAttmgAJDNERDTw23bN+l150h6n0dBFO/Axt2kw5TKY6RF6uRPoKHzo/NzV+uhM8Ml+Op2ZlugagiY6Vw5RVBadVgdGQBbScly0e51e6F7X20Ra7ihp5V23mISkDD7WVVUzlbdB6f6q+atcfPTliBydn4lZHjR15YMz4swEY8AZ3J5jQxNzX3lobrQ06wa0KH7itsGMWMTmWzepq2suC/cNl0vZTy5v1k+deSxfOInTn1bEgSMx603afAzhQqKhc/1VBU7awjqWCKE6N5B7uDD4uqu/6wf2Sljwz5EjtFP4ZguIW05fob3nPob4TdbanLKBqCktXEdcoK5bGMUReSzQ3k08bZo/TdzkVV4z4s6jLcuvLCwukw+/epPog7wI5b7SlLZ8XZQV95NxPtRiLedT/ns0Qs+DHnn0FWQlXtVi17QiymVSQteRLOR0LRgpYz4KVcc2QABsQNAIuUk0IN8fFxQNE6EiPANFB7XAqDMiCB2JpoaskJf1h7wAaRHQpg4RANIxX2nIJgokQBOWH/IUH0yzqRMYG0zIWB4W2pCpjmyDhp2cYrGZqcpUJywXg1M7lYlanVkZJjGEYACxdMrmc11+8DJgTXzcHjo7UhDqiOgsyukX1kKU3xGkLAyRLtrItSZBuFwm2gYuTSIiQ51YBSYPRGEBvWntBO7TLvgqC20T3jbuKGtbXZrKPsl15GkCgQ0lgPtNuwoxhDXNFdm2WXzWe/Rt/uay6DfWWfRlZGvio9iVCVVb+F27UCzcg6RZ9vIUN47cuXpcz6GjfN6IEU5ZgUDWddZiLpO8Pd+akMnZx0RmQoFDWYxPm/qqyko5jbEGn6qSVk5T9zdlRb9l/Q69ty4/10YjdA2BYPrEuebCms25GAyqaWUaQheHjED7aEtMQCYp0vFBYMjUYFf3fF3EB00ReSKitWvXFr8hdgMIodJeaJLOSPF8eTPrdG4bnviULaK6R77CsGxWQEB8/q6JimEuqn+bIE2LrspoS7uJg8Zv34BnthGLgWSw6ZzVMDtmrZhvxGxQcJ21adDK6HeDnm+R6wp2nm+yZHkYADaA5DIhWgMU6eZrTXU1QOGunjThJlEnkwMcaZdcWU0LhupscjXxVuvflH/Tdf5bMfv6RBdOTXlMet0EzNoxCdMa9RuL8PqOuneVh9uA26ku9JFWLQKGS4ZipZ9mbV159RMhvTRhxJ4XXLWpfixWO4eJGod4gZIl3yzannWgL3St1cmf0iBYA7+U88n55W97WPSZOtFPxMe3TSB197mGEyktrMGyItSUvs/10QidxoPQdZC+Aixawiwqy6QUAdKHlMvl0+n4UxFoHzHDMxnNuNwtvj1TPtXr0hoktJ5yeulc10GlMSEgeHm4zjyEi99ZD+V7ERbc8rVcBum6hOYi9MokZO3CM2jLdSTpOWVhQtPEq68WVF7+cr9nU7p8X9PfyuI+A5fvmigHYqmSpkmxTXOsPkPZaXXlc0iqafLzkBS84diEgygqkzhCr+JSl2/bNQui/PR5naAt7Tx+Q3S0ZeOUwgBvbVEVfazaN1yjddOwqzjoByxB1mgm63KensEVYhKlwOT+Kk+WinvlkYUFYYIvX/ObNqKcVPcP5PvK355hXOmXTbwgf4qSTYB1ws3iKOGyW7EuXfWaclLQcKLJQj1nIaMROv8mDY5pkv1ms6hA3zyQQlmr63Mf0C1Q8R/nc0v63LfS0qgnV4IFRlo0Nw68kKSOrrNJ45sWxwzn13etLDRpR4LWDdhyuj5/e5YywL+syfW5t08a7psmjbvP/TlNxoU2S5OvYpLT9flGLCwC2+OrRNXn/mnTmBi5r1iIiBVZIcfcB7SJD7I24XAZVMuJ5E0G3GHS9hW4IViTrAXQIfdWn0FLb1rgr6bt+t9EzqrgdqlGoigv7bx8/EFXfvl3OLF++d7zgm/+bZrv0QhdZ2Ui8Q0OXQ2epoLT3KvBmIH83ssxCU1T9r73Gji0Zy4f/ml11Ua0DuGIzi3RSUTa+Obi4V6pdu78PKTmniHaeL43fyMJ6wh8tjSzWQuLj3tpGvItl0l5+Z5ZNJOKPFhHXE1jCxy0JzKnvHBzCWOlfJmgtYOFaH2ANWJxs+7Yi1xua0XcdrTfvmLypjR5zjTt4l5x9dWF2b7lqKZjnQlwED5ZFUTMFTpJu1N6uJKMNYrQrGQ0QmdS8XVa9DB7rwRBJsxo8bWLIDS3aTSXujogXhqGCBJ+R/5prhMDWnihxV0biRwrwK1Ag2ojWS4i/kiDelJNnQbIhJ1koNTVsXpN6CksZyXqayGTAjBJ+7hPaJxysYDGFmOT31sfEEVC6+SzRjY2APn4m3/79re/fXFeUJuLS31ElZUPkeuqExcKl8u01phnc2VM0g51ZaRJcyNWXUhcmvaEDD2/JT/DQqxxVfeCjZxmku/RCF3hcqSLGX9WgE9S6b730JqUuSmyoW8+s0hnAFlY1MFmKVVtSLvQ2O1GNMitPXB72JU4hKC5M2YRwjfLuua8aF3VeuffJvkWCcTNACMuiqHinqHnmwx9Rlv6OiwQLB+6UER9wMKhjW5D2tQEYVFzTOEeQrbzFgpLV7RWWxlwCv95DjVuSzvkt1EJHVHYacaMGwP0IUAselpmrsY3yYwpCH7SybeOKMYs+xjPUkdaq8gQ6wqTaJiLjtOkfY4SwpWyGoVLcJK2zlhYw0Ho+UiRfH3a71EJ3eyp8zvTY+yZe1qgxr6fJp47jMnPhhYaYMjiIZAjJRavZFGiRUTABJ6P8LDYOksZldAVnB/dzMRkCdkaAb41K/R2jlpgtMoumsCpcpOY81s/Ia4EAoHAciJAUbMJz2Jr9Vjuacs1OqGbkez8EiK36KbmtOAOud+ii40TdquJJBDxYGONRUar9nbvTWr6DilHpA0EAoH5IsAVZVc2N51F3FnK6IRuk4wzgK2i121YmGXlVlJeNi7YUJFdURbJ7NYkZvHqZpqVVLcoayAQCPwPAZvaRJB1nbP0vzv6/zU6odNE7f5z0E/5EPn+RV59KS06WlugnWctXJz00LPjVx8yUaNAYPUhYJ+GNbFZa+eQGp3QPdQKsTjn8vGVq6/Z+tdIGJ14d1FAhN/cGSziaUMCgUBgdSHg7CUHes1DloXQVcT2YicvZo10HpVbKXmK9zVj27Bj+7WT32zu4YaZZsflSql/lDMQ2FYQ4Eq1G9vxGfOQZSN02/9VzILftr44irhZLEwxZ26L3eVPt6FjETY1zaPjRZ6BwLaGABezzYEOL5t0b0cXZstG6Eic39jLK5rOBekq/Gr5XTiiI0WdGW4FXGSLONXsglkt9Yx6BALbMgLeKeCs9lkexlXFc9kIXUH40C2ONp01XC3sav7f5qHsfjLZOdNjW7dcVnN7R922LQQc7ufAMme1z/O8nmUldATmCEmH4sdRANtWB4/aBgLbCgI2EnmZihNMWeDzlGUldBXjbnCW9H777RcLgPNs6cg7EAgElgUBp8te8pKXLE7TnHcBlp3QVdBmGqTudDbnvYQEAoFAILAaEBDg4H2qdn+PwW0LQegazgqwnZGTni+8Gho/6hAIBAKrBwEEbhPlPHaENqG0MISugA6SF5t+yimnxIJgU4vF9UAgEFh4BPjKvfyZ73yei6BVIBaK0EV1OETfwfH56NhqgeP/QCAQCAQWHQFnVjm6o+3tXvOow0IRugoi9QjXm0dTR56BQCAwFgLLxWMLR+hjAR7PCQQCgUBgtSEQhL7aWjTqEwgEAtssAjMh9DjXfJvtP1HxQCAQWCAEvAnOG+FOOOGE2lKtqb36/xedTeBFFccee2yRgUx8Nm7cGC+vaAMufgsEAoFAYEoENm3alDZs2LDEvV6E46TWiQn98MMPT9tvv33xqjSniOXP2rVr02mnnTZlceP2QCAQCAQCgSYERNHstNNOS7yLf3fccce03XbbJafZ1kmrhi40Z926demQQw7Z4nPEEUfM/cyCusLGtUAgEAgEthUEjjnmmLR+/fotuC3H5EEAAACFSURBVBcXO+xw8+bNtTC0Ero7cnhO9bs2t7gYCAQCgUAgMBMEqpxb/r/pAZ2E3nRjXA8EAoFAIBBYLASC0BerPaI0gUAgEAhMjEAQ+sTQxY2BQCAQCCwWAkHoi9UeUZpAIBAIBCZGIAh9YujixkAgEAgEFguBIPTFao8oTSAQCAQCEyPwfw51+yeVcUD+AAAAAElFTkSuQmCC;" vertex="1" parent="1">
          <mxGeometry x="851" y="869" width="181.24" height="40.44" as="geometry" />
        </mxCell>
        <mxCell id="-BK6sEllFb7gdvOe7oFn-125" value="https://towardsdatascience.com/self-learning-ai-agents-part-ii-deep-q-learning-b5ac60c3f47" style="text;html=1;strokeColor=none;fillColor=none;align=center;verticalAlign=middle;whiteSpace=wrap;rounded=0;dashed=1;fontSize=8;fontColor=#000000;" vertex="1" parent="1">
          <mxGeometry x="782.5699999999999" y="1159" width="251" height="40" as="geometry" />
        </mxCell>
        <mxCell id="-BK6sEllFb7gdvOe7oFn-126" value="" style="shape=image;verticalLabelPosition=bottom;labelBackgroundColor=#ffffff;verticalAlign=top;aspect=fixed;imageAspect=0;image=data:image/png,iVBORw0KGgoAAAANSUhEUgAAAtgAAAFZCAYAAACi11jlAAAgAElEQVR4AezdB7wtVXU/cGLlb0EBC9IFRQVFKUrELhprrNEUFVHsRg0qRBSNGAtBjWInVmyxYEUUNWLDggSNohixYMNC7Cg8Xtv/z3ee6zEczn3n3vfOu/ecc3/z+cydc2f2rL3378xa67fXXnvOFi1bEAgCQSAIBIEgEASCQBAIAmNDYIuxSYqgIBAEgkAQCAJBIAgEgSAQBFoIdh6CIBAEgkAQCAJBIAgEgSAwRgRCsMcIZkQFgSAQBIJAEAgCQSAIBIEQ7DwDQSAIBIEgEASCQBAIAkFgjAiEYI8RzIgKAkEgCASBIBAEgkAQCAIh2HkGgkAQCAJBIAgEgSAQBILAGBEIwR4jmBEVBIJAEAgCQSAIBIEgEARCsPMMBIEgEASCQBAIAkEgCASBMSIQgj1GMCMqCASBIBAEgkAQCAJBIAiEYOcZCAJBIAgEgSAQBIJAEAgCY0QgBHuMYEZUEAgCQSAIBIEgEASCQBAIwc4zEASCQBAIAkEgCASBIBAExohACPYYwYyoIBAEgkAQCAJBIAgEgSAQgp1nIAgEgSAQBIJAEAgCQSAIjBGBEOwxghlRQSAIBIEgEASCQBAIAkEgBDvPQBAIAkEgCASBIBAEgkAQGCMCIdhjBDOigkAQCAJBIAgEgSAQBIJACHaegSAQBIJAEAgCQSAIBIEgMEYEQrDHCGZEBYEgEASCQBAIAkEgCASBEOw8A0EgCASBIBAEgkAQCAJBYIwIhGCPEcyICgJBIAgEgSAQBIJAEAgCIdh5BoJAEAgCQSAIjAGBCy64oJ111lnthz/8YVu5cuUYJEZEEAgC04pACPa0fnNpdxAIAkEgCEwUAieccELbZ5992kMf+tB25plnTlTb0pggEAQWF4EQ7MXFO7UFgSAQBILADCJw0UUXtRvd6EZtiy22aFtvvXU79thjZ7CX6VIQCALzRSAEe75IpVwQCAJBIAgEgTkQOP300ztyjWBvv/327UMf+tAcJXM6CASB5YBACPZy+JbTxyAQBIJAENisCBx11FEdwb785S/f7nznO7df//rXm7W+CA8CQWCyEQjBnuzvJ60LAkEgCASBCUdg9erVXe616PVWW23VXvOa10x4i9O8IBAENjcCIdibG+HIDwJBIAgEgZlG4Oyzz25XvepV21/8xV+0vfbaq/3sZz+b6f6mc0EgCIxGIAR7NEYpEQSCQBAIAkFgTgRe8YpXtCtc4Qrd/pznPKetXbt2zrK5EASCwPJAIAR7eXzP6WUQCAJBIAhsJgTucY97tMtd7nJtm222aeeee+5mqiVig0AQmCYEQrCn6dtKW4NAEAgCQWCiEDjvvPPaDjvs0C1wfPSjH93WrFkzUe1LY4JAEFgaBEKwlwb31BoEgkAQCAIzgMA73/nObmGj/OtvfvObM9CjdCEIBIFxIBCCPQ4UIyMIBIEgEASWJQKHHnpou/KVr9zuec97Lsv+p9NBIAgMRyAEezguORsEgkAQCAJBYIMI/P73v+/eGuLd15/85Cc3WDYXg0AQWF4IhGAvr+87vQ0CQSAIBIExIXDKKad0+df7779/W7FixZikRkwQCAKzgEAI9ix8i+nDBhHwIxB5bdYGIcrFIBAENgKBZz7zmW3rrbdub3zjG7O4cSPwyy1BYJYRCMGe5W93mfbt4osvbj/96U/bGWec0T7zmc+0j33sY+3UU09tX/7yl9sPfvCDtmrVqmWKTLodBILAfBEwKDc4n2tz/VGPelS79a1vnR+WmQuknA8CyxiBEOxl/OXPYtfPP//89v73v78deeSR7ZBDDmkPechDmkVIPnOGzn/4wx9uf/zjH2ex++lTEAgCm4DAr3/9625gftJJJ7X3vve97T3veU/z+Utf+lJjWwZnwr7whS+0T3/6082gPlsQCAJBoI9ACHYfjXyeagT8PPExxxzTDjrooHbUUUe1M888c31eJMcoqv2mN72pPfjBD+6c51R3No0PAkFgbAiIVH/xi1/s7MYTn/jE9tjHPrY96UlPak972tPaU57ylHbYYYe1l770pe3rX/96UkHGhnoEBYHZRiAEe7a/32XTuwsuuKC96lWvanvuuWd73vOe1371q19dpu9Fsg8//PB2n/vcp7knWxAIAssbAXbhIx/5SLvTne7UzXhJKevbD7Nd0sue8YxnNDnX3//+95c3YOl9EAgC80IgBHteMKXQpCPAAd7xjndst7vd7drpp58+tLlW+R9xxBFt7733Tt7kUIRyMggsPwS++tWvdnZDLvU555wzFACDcT8oc+9737udeOKJQ8vkZBAIAkGgj0AIdh+NfJ5KBPw08fHHH9+ucY1rdLnW55577tB+yK+04v+KV7xie8ADHpAI9lCUcjIILB8ELHh+8pOf3K561au217/+9UMXNa5cubKdfPLJHQnfeeedu3LLB6H0NAgEgY1FIAR7Y5HLfRODwB/+8If2rGc9q/mp4rve9a7ta1/72tC2/elPf2pHH310l1P5+c9//jILlobelJNBIAjMLALeKnTAAQd0tsOajcFFjDr+29/+tj33uc/tytz4xjfuFj3OLCDpWBAIAmNDIAR7bFBG0FIh8Jvf/KbJq95iiy3aVltt1R7xiEd0OZODP/zAeSprMWRe1bdU31bqDQKTg8AnPvGJtscee3S2wwLoYa/lE8E+7bTTuvzrd7zjHc1MWLYgEASCwCgEQrBHIZTrE48Asnzcccd107xI9tWudrW22267dYuWvAXg3e9+d/vRj3408f1IA4NAEFhcBKR+3OAGN+gI9i677NJe97rXdYPwwVZ4DZ/BuVmwbEEgCASB+SAQgj0flFJm4hE466yzujeDSBNBsu2Xv/zl21WucpW2zTbbdD9n7LVbpnuzBYEgEAQg4I0g++2333qbcc1rXrPttNNO7V73uld74Qtf2D772c9mrUYelSAQBDYKgRDsjYItN00aAhY6nn322e1xj3tcR6iLZPePV77ylTvHmSjUpH17aU8QWBoE2I2Xvexlbdttt11PsmtwfqUrXambDdt///3b+973vrz/emm+otQaBKYWgRDsqf3q0vBhCMiztnBJPqVfbvRKPo6yIttXv/rVux+jGXZvzgWBILD8EGAz/GrjzW52s3aFK1yhXe5yl1tvL2qAfv3rX7+dcMIJQxdBLj/E0uMgEATmg0AI9nxQSpmpRYDz9MaQ29zmNp3j5Dy9LztbEAgCQaCPgMWMn/vc57rUkAc96EFt991371LManB+97vfvX3jG9/o35LPQSAIBIE5EQjBnhOaXJhkBBBnP/7wve99r9tH/SqjX2YThRKR2nffffMWkUn+ctO2ILAICLAhG9rYjGOPPbZ59zW7gXC/613v2tAtuRYEgkAQWI9ACPZ6KPJhmhDw7uuXv/zlbbvttuscn+nbUdujH/3o7kdm7nvf+44qmutBIAjMKAIXXnhh+853vtO9ytOPUolcz7X5mfRXvvKVnd3Ycccd25vf/Oa5iuZ8EAgCQeBSCIRgXwqO/DMtCHCQFZGWV/385z9/ZNMR7PmWHSksBYJAEJg6BCxqPPXUU7s0Ma/z9M78Ua/w/MxnPtOQaznaH/nIR6auz2lwEAgCS4NACPbS4J5aNxEBv9a45ZZbdo7vfve7X+MEN7T9/Oc/bze5yU3annvumTzKDQGVa0FghhH4/e9/34444ojuFZ7SPu52t7t10ey5uiyN5FOf+lT3mk+v7vvWt741V9GcDwJBIAhcCoEQ7EvBkX+mBYFvf/vb7Ra3uEX3s+dnnHHGBnOqvZbvqKOOaltvvXV76UtfmjcBTMuXnHYGgTEjcN5553VvF/JufO+/Pv7449vvfve7OWtByOVhX/e6120veMEL2kUXXTRn2VwIAkEgCPQRCMHuo5HPU4OAnyvm8B7/+Mc3BHuY4xN9Ouecc7rX8oleP/e5z92gM52azqehQSAIbBQCCPMznvGMds973rN7t/WGfvZcbrbo9QEHHNAe/OAHd+/Z36hKc1MQCALLEoEQ7GX5tU9/p+VSfve73+1eqXXYYYe1o48+untP7UknndQ+/OEPt7e//e3tec97XnvMYx7TDj744O692JxrtiAQBJYvAgbdH//4x9uhhx7aXvva17af/exnQ39AxluJvBtb+tkDH/jAdtpppw0tt3yRTM+DQBAYhUAI9iiEcn1iEUCyzz///G7R0hve8IZ23HHHddO5xxxzTHvxi1/cvWXkxBNPbH5GXdlsQSAIBAHk2WLFI488sj3hCU/oZsLe9ra3dRHtt771rZ0NOeSQQ9rDHvawbgD/9a9/PfYjj00QCAILRiAEe8GQ5YZJQ0BUSp71L37xi+a1W37J8ac//WkTsQ6xnrRvK+0JAkuPwIoVK7oZsJNPPrmb3fIqvhe96EXdGo1XvepV7d3vfnf7yle+0n7zm98sfWPTgiAQBKYSgRDsqfza0uggEASCQBDYVARWr17dvFPfTJhBuUE6Ur1q1apNFZ37g0AQWOYIhGAv8wcg3Q8CQSAIBIEgEASCQBAYLwIh2OPFM9KCQBAIAkEgCASBIBAEljkCIdjL/AFI94NAEAgCQSAIBIEgEATGi0AI9njxjLQgEASCQBAIAkEgCASBZY5ACPYyfwDS/SAQBIJAEAgCQSAIBIHxIhCCPV48I21CEDjllNZe9KJ1u8/ZgkAQCAIbQuCYY1qrfUPlci0IBIEgMB8EQrDng1LKTB0CSPUWW6zbQ7Cn7utLg4PAoiNQ9uKwwxa96lQYBILADCIQgj2DX2q61FoIdp6CIBAEFoJACPZC0ErZIBAERiEQgj0KoVyfSgRCsKfya0ujg8CSIRCCvWTQp+IgMJMIhGDP5NeaToVg5xkIAkFgIQiEYC8ErZQNAkFgFAIh2KMQyvWpRCAEeyq/tjQ6CCwZAiHYSwZ9Kg4CM4lACPZMfq3pVAh2noEgEAQWgkAI9kLQStkgEARGIRCCPQqhXJ9KBEKwp/JrS6ODwJIhEIK9ZNCn4iAwkwiEYM/k15pOhWDnGQgCQWAhCIRgLwStlA0CQWAUAiHYoxDK9alEIAR7Kr+2NDoILBkCIdhLBn0qDgIziUAI9kx+relUCHaegSAQBBaCQAj2QtBK2SAQBEYhEII9CqFcn0oEQrCn8mtLo4PAkiEQgr1k0KfiIDCTCIRgz+TXmk6FYOcZCAJBYCEIhGAvBK2UDQJBYBQCIdijEMr1qUQgBHsqv7Y0OggsGQIh2EsGfSoOAjOJQAj2TH6t6VQIdp6BIBAEFoJACPZC0ErZIBAERiEQgj0KoVyfSgRCsKfya0ujg8CSIRCCvWTQp+IgMJMIhGDP5NeaToVg5xkIAkFgIQiEYC8ErZQNAkFgFAIh2KMQyvWpRCAEeyq/tjQ6CCwZAiHYSwZ9Kg4CM4lACPZMfq3pVAh2noEgEAQWgkAI9kLQStkgEARGIRCCPQqhXJ9KBEKwp/JrS6ODwJIhEIK9ZNCn4iAwkwiEYM/k15pOhWDnGQgCQWAhCIRgLwStlA0CQWAUAiHYoxDK9alEIAR7Kr+2NDoILBkCIdhLBn0qDgIziUAI9kx+relUCHaegSAQBBaCQAj2QtBK2SAQBEYhEII9CqFcn0oEQrCn8mtLo4PAkiEQgr1k0KfiIDCTCIRgz+TXmk6FYOcZCAJBYCEIhGAvBK2UDQJBYBQCIdijEMr1qUQgBHsqv7Y0OggsGQIh2EsGfSoOAjOJQAj2TH6t6VQIdp6BIBAEFoJACPZC0ErZIBAERiEQgj0KoVyfSgRCsKfya0ujg8CSIRCCvWTQp+IgMJMIhGDP5NeaToVg5xkIAkFgIQiEYC8ErZQNAkFgFAIh2KMQyvWpRCAEeyq/tjQ6CCwZAiHYSwZ9Kg4CM4lACPZMfq3pVAh2noEgEAQWgkAI9kLQStkgEARGIRCCPQqhXJ94BC68sLVDD730fre7tVYO0+fB6+7JFgSCwPJEYNAe+L/sxU1vell7cdJJyxOn9DoIBIGNRyAEe+Oxy50ThMDBB1/iIMtRznVUNlsQCALLF4G3vGX+9mKHHZYvTul5EAgCG49ACPbGY5c7JwiBk0+ev8NUNlsQCALLF4EVK1r7f/9vfjbjqU9dvjil50EgCGw8AiHYG49d7pwwBHbccbTD3GmnCWt0mhMEgsCSIHDIIaPthVmw009fkual0iAQBKYcgRDsKf8C0/xLEHj600c7TGWyBYEgEAQ+9rHR9mKffYJTEAgCQWDjEAjB3jjcctcEInDGGaMdpjLZgkAQCAIQ2GWXDduMY44JTkEgCASBjUMgBHvjcMtdE4rAfvvN7TBdyxYEgkAQKASOOGJueyE95Nxzq2SOQSAIBIGFIRCCvTC8UnrCETj22LkdpmvZgkAQCAKFwJlnzm0vvN4zWxAIAkFgYxEIwd5Y5HLfRCLwox/N7TB//OOJbHIaFQSCwBIicMtbDrcZb3rTEjYqVQeBIDD1CIRgT/1XmA4MInCPe1zWYTqXLQgEgSAwiMBLXnJZe3GlK7WWH6MaRCr/B4EgsBAEQrAXglbKTgUCw35E4oQTpqLpaWQQCAKLjMBPfnJZgv2why1yI1JdEAgCM4dACPbMfaXp0EUXtbbllpc4TZ/9sES2IBAEgsAwBO51r0vshcWN+TGqYSjlXBAIAgtBIAR7IWil7NQg8PCHX+Iw/aBEtiAQBILAXAi89a2X2As/WJUtCASBILCpCIRgbyqCuX8iEfjoRy9xmH5QIlsQCAJBYC4EVq5s7SpXWWcznva0uUrlfBAIAkFg/giEYM8fq5ScMgR23rk1e7YgEASCwCgEHvGIdQQ7P0Y1CqlcDwJBYD4IhGDPB6WUmUoEDj+8NT8kkS0IBIEgMAqBU05pLT9GNQqlXA8CQWC+CIRgzxeplJs6BPyIhD1bEAgCQWA+COTHqOaDUsoEgSAwHwRCsOeDUsoEgSAQBILAzCPgh6qyBYEgEATGgUAI9jhQjIwgEASCQBAIAkEgCASBIPBnBEKw8ygEgSAQBIJAEAgCQSAIBIExIhCCPUYwIyoIBIEgEASCQBAIAkEgCIRg5xkIAkEgCASBIBAEgkAQCAJjRCAEe4xgRtTkI7B27drJb2RaGASCwEQhMG67MW55EwVWGhMEgkCHQAh2HoRlhcCaNWuWVX/T2SAQBDYNAWR43IR43PI2rYe5OwgEgc2BQAj25kA1MicWgXKWcXAT+xWlYUFg4hAouzGuhsX+jAvJyAkCk4tACPbkfjdp2WZAYNWqVZ3UcTg4MkTEx+18N0O3IzIIBIGNRIB+r169urt7HHaDzYjd2MgvI7cFgSlCIAR7ir6sxWxqOYE6IqYrVqxov/3tb9sf//jH9oc//KFddNFFzXnO5+KLL+6O5YCGkc5yVO753e9+184666z2wQ9+sP3Lv/xLu//9798dTz/99Hb++ee3Cy+88FLy5up7yVT/r371q/bVr361vfzlL28PfOAD25FHHtn+8z//s33jG99ov/nNb7r2V/vI87kcXf//6it5p556anvYwx7WHvCAB7T/+I//aJ/61Kfaueeeu15W4dOX029r1VHtO+mkk9ojH/nI9vCHP7z9+7//ezvxxBO7NqtLvdUfR3u2IDAtCNSzXs8wnVi5cmVnJ8puXHDBBetthefd9b7uDHvuSx4dYhv++7//u9PrJz3pSZ2ev/rVr+5siTrYKPI2tFU71U/mz372s/bFL36xPec5z2l3u9vd2jHHHNM+9KEPte985zudnVLGPbUNtrEvj00877zz2nvf+97293//9+1Rj3pUe+tb39q+8IUvdPXob5XXzrnaqgy7St6Pf/zj9sY3vrH93d/9XXvyk5/cXvWqVzV25Fvf+lZnhws/5QfbVm3OMQgEgcVHIAR78TGf+BrLSJcj4LR+8pOfdOQSKfybv/mbtt9++7XnPe957WMf+1j7/ve/3/70pz91BJHTYujL6JNhc3SegyHrHe94R0cy999//3azm92s7bnnnm2fffbpZL/2ta9t3/72t9eT7HJE1a4CsGQi49/97nfbG97whs4J7bvvvu3GN75xJ1c7OSbXfvrTn3ZtrLY59tta/5P3zW9+s73sZS9r97znPdsNb3jDTt7Nb37zdpe73KUbCHz5y19uyEK/v9Wu6m/Jg98Pf/jDdsIJJ7R/+Id/aDe5yU26/Ra3uEXT/7/927/tyPs555zTEQQy7dmCwDQhUPrZ10u2ARlkK+5973u3u971rt3A8jOf+UynjzVI7+tRydH3vqyzzz67I5cGz/T6pje9aWc3bnnLW7ZDDjmkvetd7+psS5F2+mfvyyOz9JL+fv3rX2//9m//1rVtr732aje60Y3a3nvv3f7yL/+yPeYxj2nve9/7OlKvfSWr7i+5/ndd4EGAQMDgjne8Y2c36Dp7dL/73a8dd9xxTR/Yl+ovGf3N/315ggPuu9e97tW1ja1kh251q1u1Qw89tCPyP//5zzt5JbMvL5+DQBBYOgRCsJcO+4mtuW/kRaq/9rWvrXdCnBliyGkw8iI+z372s7sIjbKcWxn6vgMqp/GLX/yiIdB3vvOd2+1ud7vOiSHtyOxhhx3WOeA73elO7fnPf35HmkWPkOA+ES7gyEdeRZo4yYMOOqjbRXle+tKXdo5clEs9HKZ6RJf68rSrdue1nzzRrOrfM5/5zPaKV7yiHX300V2k3fl//Md/bGeccUYXYXKfttiqz87BQftFoF75yle2O9zhDu22t71te/zjH99e8pKXdO3RZ6T9Nre5TXvBC17QkOzCsN/P+pxjEJhUBEqPPL9mqE477bT2z//8z40+I8QG0I63vvWtuxkh+ohAGpzXM08GHSpZjnT8f//3f9u//uu/djqEpD/1qU/tZqpe/OIXdzaEXv3VX/1VO/7449uvf/3r9TaIHpbMws3/SO5XvvKV9rSnPa0deOCBHYE140VP6Sbyqp0G2G9/+9u72TGySl61r87Rc7Nnj33sYzv7aEbuuc99bmfXjjjiiK5t7BAd/973vtf1yb21DdoNmCD/Rx11VGcb9O3pT396J0/7kH/tvv3tb99e//rXN3a12lIycwwCQWBpEQjBXlr8J7J2zoOx5tgYeQSTcxCFQXxNeYpAc24PetCDOkP/xCc+sYveVETK/eU0HG3kiXgXERZVFqmWvmHneKR0kImAv/nNb76Usxx0lORyphzgPe5xj+4+n5HUkimyLXLMKRsUkC/SVH0sR+mIEJtm1j/1SwsxVSzy7byp5E984hPt0Y9+dEfYTSVXVLz66FiyYKCuD3zgAx2J5iT1GYGXEqLt+gzLv/7rv24HHHBAd935wm8iH5A0KggMQcAz69lHDpFrJBWhliphwPu2t72tveUtb+kGr6LZorwi2/QBQa2BOdH0qHa6LEUCUTcbJf3iBz/4QaeTdEWqhDQROnv3u9+9/dd//dd6wl5tKv0kWxvNohmUs2tI8Uc/+tHunIEBmYi/AQACSzc/+clPrh9Mu7/kOmq31JVjjz22szFSwD796U83kWWytJXdQbrZvne+853deffWVnbDQMMuECAVBEZmvUTSpaaRx3bos+tshoHAySefvH7Gr9/Xkp9jEAgCi49ACPbiYz7xNZax/7//+7/OcYm8Hnzwwe0jH/lIRzI5IdOrv/zlL5upXhFZEeIXvehFXSSlHCU5/Z1jOPzww5upWOQcOe07VgScU3rTm97UOTaOivPlcMqhlTwgOieyRaZIuhxp9yvPCTpqi364tvvuu3f5z6atS55ytWsLeaLTHBunzrk7rzx5iDbSjSwj4IiE62TUpo1VXnu0TyqI6BiSXn3WNp85Z8TD1DRnatDhGplkZQsC04CAZ9Uzi7walJvpMpskv5kO/v73v+9yhs3oWHvw4Ac/uCOcyCeb0n/m67mnRwbMbAGCbfBLX0qHXDeol4L1whe+sLMtItGVsuZ66VHJdC+9fchDHtLpMHKq/ipLz5VhJ8xkSckwEKC7VcaRPEdl5YXf97737Ug+O2lgTU5ddy9CjAzDpGaqqk2+X59hoD9nnnlme8QjHtEFDt7znvd0pLrsmTJsJRJukLDtttt2s39sTbWvL3canp20MQjMIgIh2LP4rY6hTwy1fEFRKNHfd7/73V30hHEvI86xSAvhoBBOudn/8z//s/46x1bOzZHD4oQQ9s9//vOdYypZrvvMcXAuIlUiUp/73Oe6c1WO4yjnoX5yRMjkYHLkpn6r3jpyTIizehHdft0l15Fjc03ECtE15Vv5kmTpuzrJEvUyqJD3WXUW7NqnvLIiTSJXIuwWOvWnw8mrHdbyLKXgGLRoMxnV1zpWHTkGgUlDwDNKjzznIrX0yGf64XztdLxSxaQ5SCP50Y9+dBm9JY8e0Gv2xcJgkWXnyCr98FkdFiDTSXo0mArW1x/kF6mnk8i4WS66Sl7J9Vk5kW0y2SOLsqvuKud/dsNibQMKM3n6oo9lKx2VoddSTkTv5Wqrs9+uwq9sqrKPe9zjunrLDpXMagc5N7jBDTq8DcyrXSW3jpP2rKQ9QWA5IBCCvRy+5Y3oI8NsIR9C/NCHPrSL0HAaDHiRQkfnkMiKMEkBQSKHGXoLB+Ubk+lzldE89ZWDM6XKschLPuWUUzrn1C9b3eG0TN2KJIs6c4DlKMkrmdrJoSO6FglxmuUAy2GRT57pZY6Xo5S+4Zx22avfFaGTciLlgyNWV21VnhMU2TJAEa3TvqpXff2dTASCkzZgUY6c6kdfftWTYxCYNAQ8p1Ki6IY86Yr6etZLfxzZCLpL18yOWefhmVeunnt9o0PKiV4/5SlP6dIk+mXUV7qJfLMv0jpqlqrKFk7Ki1abnTLrJQJcaV5VrzLu054vfelLHXlls+Rssy/VD2WqLwi7RZfyrs3UlR2qMvoh+GBBs9kxZJt8ddWmfrtIvzQYfTH4kBpS9ZLX30XCDQDsAhPaQ2Z/L/k5BoEgsLgIhGAvLmK49EkAACAASURBVN5TUxsjzrkgpV5TZ0Efh8CAl9NwREBFTryOiuNAsBFO5foOy2fOQHQJ4UTeOY1yBOVc3Id8c7rkyWUc5ngBqW7XkVcEvxwgWTaytZFzE6XisESw3VMOS1ll7M5xfCJvpmc5xCpHRpXhvP/pn/6py3+UV1okXH22fl84ffLsok3KVn2O+ku2VBgzACLYSL4+l6yS253InyAwwQh4nkVz6RmCLZLsXD3zPtvZCBHnIthmi+iGa6W/jnTDLBbdZWMM5p2jE6VnZDsnWm6xozxsA9aqU7nSIUcElt7WAm0EVr1VRnn3GgR8/OMf72QixuyBelyrMo7aLUfa4NiiSXVXPx2Vp88i8eypen2ufgzWK/3uwx/+cNcPi7TZV3ao+uNIrvvhJrWMrWRrnLeRWXIn+HFJ04LATCMQgj3TX+/GdY5hZsQ5MykiHJaIivxjhp5TKQfCGXBCHKXXZ4nYljNQjqw6iiI/4QlP6ByCyK9Ij3pcL5lynjkrU8xSP5DtvlPrOw3nLcIUbUbcRZG0seorRyRipf1ewSXaLR2jHF/VW2U5KWTdlLR7OOMqqwxigKBb8Gmqt8i6dlXbHJW1yzfVPhEmiy0tUqr+kOuzNr///e/vSAkiXmk2JbOOG/dt5q4gsDgIeE490/KbpXchkwbpCKjnvHTNZ3nUbABCbI2CWavSC+VsjnY2gC1gh6x/oJN1zbHkWehofQdSKs2idFAZbatNeyxWZq+kgiHwUjCqnPvIFNn2xg4E1hs8pH6ULVDWZ0f2Tp8NAtiEz372s528KutI75F60XXpZdLMnO/rdsnUPgRcn9kZQQt9Lnzc57O8dm9Nuc51rtPZLLam+lBy+/2u/ucYBILA4iAQgr04OE9VLYwyQ40QW0lvpb3XQomsIsUMvIgM4ioSLVLl1XXe/zqY+6jjZexFhKygV5ZzsxjIQkkOhZPihBBWDkhupro5Yg6vHEcfSOdNQXvtH+fm7R7aSA552qi9nKkIFILNCfcXNJFb8h3VZzGS+vUZQeB8OTROG/l91rOe1RFm+ZuiX+7rOzKfYWTnGC1gJE8epz7XIi1t1D5tFjG3mMqbSWqxUsks/Pp9z+cgMGkIeE7pE50ww+O1fHRElJXu0Ae6TuelQZkZsy7C24IMMulR6aK+1XOvvLeQSBkzQEeI6Tj9ttMXaSnSOCwiNDBWl7YMsxuumU2jx2ybV+Fpo8EzPddGdoytkgctOmzQL5hQ8hxL7x0rbUwKmj4bFJCjfdrqB6sEKwwokGLkmIz+pr/axi7A0BubtE9qDAJfAY7qszYJbHjnv8WfMK729fHr15HPQSAILB4CIdiLh/XU1FSODSGWdiECa8pXNEVER7QVUfRWDFEW1xBECwQ5FU7CTk5tDD/nJa8ZEZcKwTlwIlbJcxbehY0Ie/UUpyIvsx9Z6ssjl0zXOUdRMCRWG72hhDy7z6LC8iO9c5pjLSde/ewfOS8kWk63PFL9Q+BFzrzdRG64AYLIF2LMKZejrb6SVxhon/QPztwry0ThvAu3+mwQIdJXb1yQRwl3WFV/Bx1x1ZNjEJgkBDyvnlWDSnnTnmuE09s6XvOa13SpI3TS2z7oJDLsbSNmyugdnRnUJf/TB+lVdJJtYCPYCnbI4ms2hC2hlz4jx6U/pdt9nMhERumvVDT3Ifuve93rutQMBF0utVk0NoUNqZQT/SuZpZ+O9BwJluZlYGFwLs9bG8tOajsbxL6wk4N6TU7ZDRiyp+Swr/rsB2fgx3Z4q4lZAnbN+8HNABSGg+3r9z2fg0AQWDwEQrAXD+upqakMvUiKaC/nhiByRHvssUcXMWHYrV7nTJBh06IiLBwbB1aOkiwbZ+JcEU7vjBWRIsOvnfklR5/VIQKkzorIDAOOXDLVxxnJEUfcObHddtutk0emz9IzXEOuy7G5117OqD5ro0iVKVpTzfpJhqln7XTkjEXgpLNUf91vq3aVoyRPnSJanL8+77zzzh2G1WdtfsYzntGl1+gz3N1nL7nDMMi5IDBJCHhW6UPNzMixNhtFZ/waauk5GyJVAjE0iPbMF7mu573sBh1wjR0ym+RHWxBO8ugPmV6/KRJusGowi2jW/YP4OE+mdpo9Eln2mlF6fv3rX787lkxrRcxmSQ3RJ22rvfTc0V5ttCjb4NtsGXum7yLMBtdm+vSh31/32kqedpXtYNdE65FyA/Bdd911vbzqMzsq2s2ult3QxpI72P/8HwSCwOIhEIK9eFhPVU0MPaNtF0ESwfGTxxbx7Ljjjm3LLbfsyLZfNxSRKWLIOZSzcOx/5tg4P7JN+3LAFi7JIdxqq6068ukXE+Un1nRtX4b7beVAyhGRp7wojmizyPPVrna1LnqmvZyeaeSqu9+mkk92OU9yyZPf7Z213jN77Wtfu4siyRtFljn8cobuLTnaV+c5PLLUKy3EAkqEgzx9Fs32nl2zAZw4rKuN2lJbX3adyzEITCICnl8DSs9y6aRUC+sa6FDpuVQtA96arSkdqufeM1/nSofIpCciuCLgW2+9ddtmm226z+pgo9StvK302ZG8+t91O/1EYi0iFLFm165ylat0A3LkX0RaKkfpcckofSSv2uhIJnmCDWa+6DmSLQqtzWbvDN6VYyOqXeTZqp6yH7CRVy0Krr+w22WXXbof1EKskW92RXm4k0tmbSW3/s8xCASBxUUgBHtx8Z6a2jiMMvQMf31GOq2CZ+xFabw+S3TbQhxv1+BgylEw+OSU0S8ZHKVdea+hEuURxRW9lkfNoYjKcDDlwMoZlTyynHPkVBFeCyxFe0TIrnvd63YyRbUqcu1ee79d9T9n5LO2i2yZnpWbKZXlmte8Zhfd4oQtfCoSXHLcO9g+17TfD2Ag+Ii0XM7tt9++IwUieH7B0UCDPHWT0ZfZf1jiLPto5POkIuD5pZOe5yJ9jlJG6Pe1rnWtLkp8n/vcp/vlQ2QUMa4Btfvq/nrmy/6wGQiqKLBZJLNnotlSTdgRKR/Wjaiv9LF/JFv7nCOT3aj8aCkYO+ywQ9tuu+261As5zdqlXN1Xujmop86r0yCeHZRSx6Yh2PrsR65q3YWy1Ya+3XDO//rOliH9UlXMDpJhQG6AYu2KqHvlY2vbYHv6z0Zh2D+Xz0EgCCwOAiHYi4Pz1NXCMJcDYMBrR1a9iQNZ9JPmjlIoOAHRWXmM0ivkQSKYHEc5zXIEznEQ8idFtrxmT4qEXE2EVm6hnGqvquLkOFYOrBwdOfWZLIRYNNxKf1PF8jHt3iyCyMp5FnXmLMlxD0dWfSLLeXKkmiDl7q/pXQMKcvWXE+fkiwRUO/xv11ZRL7nrcrZhApuddtqpi5AZlFi4ZLEWZ6x89afaU9hP3UOTBi9rBOq5daQX9TzTN9FgMzbSLuRmG1CL7tJ1qRPesCFdhO4gvu630ynyyKC/BqxmqaRhWPchncxCRHaDntJ1C6X7iyBLVulZ6b/BssE8OdLItEv7vAlE/rV6BAHUa3dfv18+01+DZAMFaWhytqWEyD0nSwDCLJjBP3uoP9pBVvXJ0QDD4IAcs3h+e8CiZ1F1KWXSYfSPXRTk0J7qT+Fc+C/rhzCdDwIThEAI9gR9GZPSlL6h9tnmyJCb5uSQ5BNzjH6oAYlEQOUX20WnRLU5L6/Ek6vMafZJqIWJZJjqlFdpQZC3CciH5FwQYw5ZCorol7eFcEIcS8lBijlJ790VXTYVK3pk+pnj9eYBU7XeLmDKV+RLhN39nCPHRgZnrD0IsYgRR6Zu6SsiRtUu8ivPk4xykmToo3dti1ZbxIWMc/pyJ0XZOGwLqvzipJ+Ut3DK20046HLahfWkPAdpRxBYCALD7EaRSWsqDKaRUAsb6aMBNT1HSr1dw0Cbbnjtp3QvA1m6RdfoPR1zzZt2LPIzw+Qn19kQi4+9pYfOWehsESR9R9jpWN9u+F+gwNt9yKCXUsnouYEv+8GGiWpboOjVnWwPfS+7wZ4h1t69jRCbeWMDkXN2wo9GOc82WpwpIs5W9e0GGdrHRnoLCpvpfvna7IaBuSCBwQQZbK2+ao/+lN1YyHeUskEgCCweAiHYi4f1VNXUd5YaXgRbRAfxFH3liESMvGGD8edkOFGEVkTIu6RFb0yRimpzMAiuqLRIt1XxSGaRcSSXQ0OMOVARJbmHFhs6L+cQ0eYgOV9O0rul1c2hPvvZz+4cGUKOmMsZf/3rX9+1wTWOnSMzlSuapC0i26JnHD8n61VanNnLX/7yrjyHVm8B8SYE/3vftilfMsgSrS4ZSIOoHEJtoIBQI/2IuTZYNCXCpj/IAhlIyCDeU/WwpLFB4M82wnPc3/yPmNIRtoD+0QXPvxksOsFuGLQb2CKVdN6MVkW1RXbNeFnr4T7n3/72t3c6LjJOnxDzGlh7ZSfbUQN3ddNXdqNSyUSnvRGJrVGOPbMbYCPN9F97EXADZjNkRdbNdJFJhuvS0hBqRzZCuopX8YlGs2OItrrYOv1gu9hA19kn5Q3kDTZggPCzo6LVbJs6YMXOsnP9CDas2Y9sQSAITB4CIdiT951MRIv6pM/n+l9uNGfIwdhFk0SROD9RGo5RNBlpRjBFZLy6SmSaYxVtFikSYeYYOQsOhPPguPyMOafnf05FlBzBlv5BNrKOaCPsCLr6RcotPvQ/woyoc2ycr/99FjHmmLWLU+Pc3Od+5NpAQZtE1bVBG+VNk2Whkfu0qV4zZmEiIs/JIu4iaByj3FBtJtc9ZHvjiLpF7byGTwQKGZBugmBXZGyQnAw+CEXCB4+D5fJ/EFgqBMpOeEbrs0ir1CvkVaqEWR5Ekf54jz4CSrfpB7LLXojciiC7B2mlqwanBrhk0D+DaHINuukXu8Gm0F1RZPciqXTQdTZD3WSQJQXNPWwHGRYhu8csHbnIP5siGKAuA2vykXttdY7dYJvYF+s2yGVD5FDrGzugrWbo9FOfDfz1X9sMLthJdgPRRqjZDe1Sjp3Qf4N8udfac9ZZZ62PyBfGG/q+B+1F/b+he3ItCASBTUcgBHvTMZxJCX0jXM6SozR1i0giiqJByLXokf9FqJFJjomD4JBEbhBkBFRkmDMRYRIpRmQ5LMQWeTUdjMCL/kjXQI6Rac4MCedcOCFRYXJEmDgs0SX1cEgiRAgsJycSpY3Ou09dFg5xZqajtYlDFAVHpjleU9kGDvqk/aalRZs4PYRflMs0sggZJ44QaD9SbWDBkXujgXNkyCvl2EXBkATyvPe3Itiiav2pXlhnCwLTikCf8JXdkBZBp9gB6RDyqBFOxNUbg+h8Dc7p/rve9a5uUCy9go7SN2RbrjUiTo/pJuKMbEu1QDrpGHtUC4vpoDJsQ0WZzTAZcLMNbAFCiwjTQ7ZGObN00sYsQqbD7AuSK1VDO+g6+2SgjlwbZOsHgm2wza6xO2yJNrFt7AK75X79UY5N8oM81W4YIN1ItYE9W8qOCgaQp98VwYZp7Ma0aknavVwQCMFeLt/0AvvZJ3o+l7NEsDkKhFoeIMeC+CKpFjZyTBySiA5HIQ1CpIhj4IxqgSTniYgjrhwXh1v3c37uR4zlOXI2nGQ5JeRWG6R0IMiiRKJDnLc2cbYINmIrd5IDR345eA4T0ReFF1VXTjs4dvd7DRhnaIoYURdV11dpMdqP7PtsEaQjuWTI5xSR9joukS3kQdRJnzhijpLjRgbUA5vKwe5jvcCvKcWDwMQiUHajUkREh+sVnGaX2AQkUuqFVCvkmC4hr6LJZovoK72VNkLn6G7pMv1DZtkIeipS7Bq999pQhJk8RJsM6yKkXhhMsxvKIrV0VBsRZISXvTCzxO6wT/ReWfZCKgi7ww64ZjBgAM4usoMGzj7rD/vFzqmfjWHnzOipA/HXN4N2BFo7yBMdVz8bpo3VPgMAmJRdQrBjNyb20U/DgkCHQAh2HoSRCJSjFJ3qE2xOSWTF1KVIEMLIsTlnilVkB/E1LSsVBEm2eNC0qKlV/4vYyDuUp8y5iNKI/IgYKSMCzIFypJyjvG5lOWaknJNF2mvqGMGXrsKxapeFhxwT0mtFPwcpD1QETASaw9MGUSxOWlkRLiRbW0SdpbZoN+euP9qN4HP4nLV7ROjcAwfEgNOW4y3Crh/aUm8fMX08SLDjLEc+hikwZQiU3Rgk2MghAiqCjDAisgbCdJee0C/6jyDTf8STntYAma6zISLaiCs5CDu7Qe/poNk0aR9sCmKLoCPJNdi3+Fk0W3oIfSxCLoJt5sz6DoTd/2wOG+Fe7TJ7Rp6BPfvCbkh9M5vFtrAHiLdZNwsunUe8kXLpLxZQsiNshsEAOymKzU6SJefcYANhN7hHrgUOEPEQ7ClTgjR3WSMQgr2sv/75db4c5SDBNkXJ8HNm8h4Zf86KQ+AwfTbNymG6LgLNkXBCnIooNSckIi2qw3lxKqK/Ir4INWfKsXFIHBRZyDLHKFpsyliEiVN1P+JNPnkiQKLH2iV3W8SMkxZtV5YzRn4dkWMODrkWdRJdUl57kGHRL+3nKJ3XPvUqZwoY2SdTFNuAAC4i1dolCuUcYmEPwZ7fc5dS041A2Y1Bgs1umMlBZOkX3RMFliJmUIpUmlGiO2aGpFLQOdFeOs0mSA9DVpFmOsk+0HGkV/qXzwgyPS3STVcRbrZDFJrtIYuNQOwNug3AtUf9ZYvcj+Rri3awYewEeQbg7IboPLvhOnvjXrZFOh17pX3Oa5+BuvaxG2wLe2eAr+8i50i3Qb32SyljM9gTAw4yzKw5V/hO91OS1geB2UUgBHt2v9tN6hnjXVsZ8mEEm/NEqEWNi0iLTnEAHKYFgqIxcq5FfOUnI5siRPKZOSHn5TVyVs6JSHFIXrvlndEcJnIrMmT6VGSZYxSBRnJFzkWD3MfpiW5ZkY+gc8hSVuRlmnY1zSsPkuM1JeycaBOHrT6RKZ85XWSd4+WUvRmFE0WW3Sf9A/EnD2k3YNAGOeD67cghIwlyrp1DLOAVgl1PVo6zjEDZjWEE2zlRY7rJBtA1M1/sBvItMmzQamBrN4MlIo1cGkCLLNNV90rFcJ1tYYPMiHldqLUW7AHyKjVFOYScLUKSpaKJfNNpKRvKe82fwbk0FdfZG2lubIkdMZb3XYMAM2iVH85GIefKs0nItrYj54IB7AO7h7xrg6i4ug3E2VA2wkAD4WZ/zBYi1uwGXEKwZ1lb0rdZRCAEexa/1TH0qZwjUfV5kGA7X6SRc+TkRHYQYM6TcxCR4Ww4FERUNIdT9dosU8JIs3QL0Z8i6Egt8uocouynz03pckycHockIm761SIoBB6J5dhEu7yBwA89cMCIr2tyq0XTkXKyEHjvyTW1K6pElno4Z6TYdCyyz0lWlF39HC7y7IhAI+XyuRGEItf6rQ9yL/VVagicaufs55siAuNsQWBaEChbob31uU+wDUzZkbIb0iGQ2RqIshfIJJ0x8DW4NvgW0a00LvcY9ErxMMA2WBZ9RpZFuaWM+XVH759nQ5RFbhFjhNuMGTthtoktMTBnRyy+9iuw5JKH5Iuym5lio5BpstTjuvQwaWfshrQPpFiaigGA/iDqbAP5ZvnYB/UJDhiwG8jXIk3kGsmWXmamTnv9Dyd4wTAEe1q0IO0MAusQCMHOk3AZBMoxFrmr//sEm2Pwv2vlLDkRUSdTthwppyGCzTnaOR/OVKRHtFpECvkVyRG1QVKljXB+HF5NpVp1L7ok+iQlxP2iSZwroqq8PEfnkXTkmWMj1zn3OcrdRooNAkSdRKQRfnVynhye6WD1qZtj1y4DBxEzBN40LoIskkUu58tpc7z6r88iT+pzzSCCcyxy7SiKNYxgF979L2TYuf71fA4Ck4RA/3n12V4Em37RHXbDTheQaTaADtIh5NkAlY7QaQNkdoO+iDrX4JxOsgUiwwgsnWYH2AXEVjRbuof/RacNdus995Vqxj6UPanUL+S87IWjNrgXeXY/O8QuaAsSLU2FfHZEXfqoHQIA+uO89kv1QJrZJ/aCXUHQ9UNwQp/NppFtYOHcoN0wczYsRaSPeT0Lw87VtRyDQBBYHARCsBcH56mqpRzj4LFPsE2RlhEvZ8lJWLAkQiOSJC1DnqFpXIRcXjZSLWosKoxsc5imUEV9LAwUjeao/MywxUSiznbOzVFUWQqICJVIE5IseiTSzbmJPMth5PSQeFOwru+zzz7djzlwluRWWgrSzBmXM+foTeuKZnHAFlkZJHCGciIt3hTV5iTV5ZocTH0WuZceY5CBYCMOpruLUDhymgYfwwj24ENS+A6ez/9BYJIRqOe27EcRbLrq2be5Vnoham0xMEJLh9gBtoEOG6y6LppMlxFpUV46qzzyqozZJT/Wwm6YLaOT9BDZRcCRXbNNIs4G01K7LF684x3v2JFgkWoRbbNsZtXoJxvgB7PkUbM/7AJbUrpvIG+Qry0WW7Ip6ke+pYFpG7tgNots9yHyZVPYM+fUbUZPWQN8dtNAvfApuzEXwR58Fgr/wfP5PwgEgcVFIAR7cfGeqtrKUJejZOg5M9OliLT/y1FWhNY0KFKNqFpMKFrEIVodz9GKWInmcKScpcgwQs0BckScjGg3cixqhIhzXpyiz6ZmfTb1K61DOgin5y0DUkI4XbKQY6kf2sqp+nVFU8PKI+Ycr12UWcTLmwY4Sw4OyeeUOXhkGpGuqJXrokhyzk1jc4TSTyycEpXiNJF1xF2ajP7qd2EFp/kS7Kl6WNLYIPBn4lxAlN0YJNh1nk6U3RC5pu/0DWGlv2xEpUnQMzNEBuJ0nP4j7AbcBuwixfRPnjXi6372wmAc4aXn0sPMbJW9cPQmEukaiC/dVZ5+I9PIN8LsOtviGjvAbpFnoM4W0XfRbG3RdgEDhJ8NY2PU7x6zZ37ExoBBMEK6iPsMHNgsdqhSQ2AGm7Ib/k+KSD1ZOQaB6UAgBHs6vqdFb2UZdhX3HeIgwe5f5xA4Qu975qSQWwRbhKYiuRwF0snJiOQgzwiwtAxO0tSqaWTkVHoFIs9xmpoVtb7DHe7QHeuVeSJfpllNvcqttihSZMpiJTmYyotWcd6cF+Iros4xilApr34pKaLupqalgdjVzTly5gi6CBjHKZqmnzCyIwGiVdpvWpqz9m7fcpB1hKPPowi2ctmCwDQiMMxuDCPY+uY5V951+lSv5ENckWSkm62oMjU4NxCnk8ixyDK9Q2YtEDRLRvfkSRvki2ofeOCB7ba3vW1Hlg2iRcfJcI97Dc5dJ8/ajQMOOGB9WYTZWg2DbgNug3P2gt046KCDuhQTxFrdbJrggQE5uybyjaAj9lJZDBCqP/pkgM4eIdbkIvhsiWv2vt2A0agIduzGNGpM2jzLCIRgz/K3uwl9Y6zLYNdnRr9PsPvn+05BFFu0Rp4zclyOsu9clOeQLIBEiPfbb78u2iP1hOMpIi7Sw3mJECPYV7/61bt0D/9baIi4c6o+c2Lq3HnnndtWW23V9tprr84Bi4SJoHPi6lSHqNOee+7Ztttuu84Ji7qbplWfurUPyZfaIlK+0047dTnc3ufdJ9ecoF2qCAesrOlg9ZQcsmyOzoVgb8KDmVsnGoGyGRpZ9sEzb3BbKSJ1nj7UTofYCTNEIsYWOdNt9/bthnIG3tZAeFMIoivqLTLcL09HDZalYCDN2267bUegzaZJ43Kdfosik4U0X+c61+nsi8G5dtD9WriMOCPDZtt23XXXzsYICiDy5Ghj2QK2RjoZAr733nt3A3pBB2X0XTn9dmQLRNVFyKWVKFN2o7BU1vkQ7Il+9NO4IHAZBEKwLwNJThQCZeD7DrFPsBl+W13nMDgCZFcUVzRXhEgEm0MrB6SMSI1FPa5zbqLMpn4RZ04PaUZSvZZL1JgskSgOVYRJBFueZOU3ipiLfMnFRthvdatbdVFsEWyOUARblBmhlzoiqlQRbI5Q/RYXcYTq5jSRaQ7a4siKYMvr1D9EXP/1nWMnuyJc+o6s9x1plS2nuqEc7MK9sK3vI8cgMOkIlC3Qzvo8jGDXdXrhOn2i69Y6SNeizwh32QxHZSz+kypBp2sdBb2T0mWQy84YoIs6m9WS6sFu2GtdhcE/GdJJEGmDYmRd+hhCXBFsaSYVwa5oNxvDXpWdsUjSDBrSzg4g5Ei3fiDObJFou/vr9aVlC9gZ9kjet8CACDab57q97AccYbQQgt23IZP+zKR9QWBWEQjBntVvdgz9KiNdjpLRHyTYrvUdgtSK+oGHWpRketW0bUVnkFdOSF6ihYkcEeci0mxa1480kOGdshYlcnTK+Kwccmxa1Su8ODDRH6/X89niQvWaCkaOpak4b6qWA/WLjJykcuR6T7Y8cA5OW6SPyPMU6TLNKyfcoknypIu4jkAj3xw5p8+xI/DyMqtujrMi8f2IVAj2GB7MiJhoBAbtxiDBZi8G7YYBqdQNxNo6C/rGHiCh7mc7EG6kGKGW4kVfRZXlYLMlBuf0TkSafaDfIs7S1AxokXKDZYSaHZAawi4g6l71Jw+aXG1AzF1jO1xnOxBlKSnqJ0/aGvuiLver2yAd6WYLROHZLHYDkWcb+jnYItYG+9LirFfRH4uoBR/0eZBgj8rBLtw9HP3PE/2wpHFBYIYRCMGe4S93U7rWN9A+2wcJNvl1njPgBEWhkFKRH8QTUeZcRJREeBBtK/wtQBKZlr9oURAn6RqHyREizPISOaUircqI4siXFmVCikV/TClb7S8KLaKNEHO4HByn6bp31SLkouQiZBysKWvRJ6Sd4/RKMI7Sq7dEqTho6SRSVJBtrxH0v0WY+sThyavkWPXZG1G8JUW/EHi55PpcAxBHjnO+KSKF+6Z8j7k3CCwmAp7Z2ur57RNsaRu2sht0QtSZ3iKudAiRRjjZCOVdt5DYGgkzXgg4m6C81BM6x95YI4EUe4sIu4NoI7h03ICZ3os8I8VshbIi13TbgFndyLLBP4LsurQ0JN1iRfncSDnCjvwj4gbn2qMtbJaZLgN7bxCqt4goS7bBMqgkYAAAIABJREFUudxyC6TZDWTcOTbTAKOIeEXi+3aDbZ0vwS7c63vIMQgEgaVBIAR7aXCf6FoHDXT9z+D3I9j98wi2KVBRZwRUmgfHiJyaqrVbNMipINSILycjTYQT5Aw5oXoDgCg1J4isiuxwihwXp8vZiR4hxSJJ/pdTLXLEYSHJUkrqnOlahJfz5Aw5Mgsi/c+5cpjKI9zuF6mqaBXSzVkra2BQ78F2nrPXPm8CqP7oszQTdcs/l7vJOVY0aj4Eux4O+GYLAtOKQNmHPsE2uKzz7AndENWls9Kv2BCzQhYS029E1+JH1wxq6aIySDOdlnrhHNugPDJs0G3QjGizI/SdzaHf9Nzgmz0ygGYz6Kr6zZ6JbtNr59kNtgV5Rvh9dr96lLF7M5Ejma4JDrhXNN4gwIDeD+RIHXE0EGcvzHi5Vr9gqc9IvjZaS8LODNqNUQS7npPYjUIixyCwtAiEYC8t/hNdeznCOg4j2M65Lnew3mUrCs1BIJvOe68swoooI8gcomi1VBG/zMgRckycJFIqmoVsc2RelXXzm9+8c2QcoGgQ8s7hWvVvSldky3Srawizad0b3ehG3RFhlwNev+SoLpEuaR4IP9KsXpGpW9ziFl19CLeFiiLmnCHHKgpuEECOdsvD5iRF0aWvcJTItD6LWsOCo9UP5RHs2kW2N5SDPdEPRRoXBEYgwCbYym4MEmzXy27QGUQUCUak2Qs6JDVEqpaBMDtAR72dQ3mLHA3UEVok2b0IsJkr+iwFzIwWfTYQNxh2TfoFkk7XvW6PnUL4zXRZ02F9x2677dZFqgUKRM9FounqwQcf3NkpA3SLH7UNwRcRVw+bYzAg+q1tbAiZ2ihFTpSdTRRQ0F72hD0kq99nueTuFZl3vmwGDOdLsEd8PbkcBILAIiEQgr1IQE9jNRykrRwlp1gRbKkSjD/DL9KC4MqdRkJFrZ3jKEWbpIEgwpwQUuocoirdQ7RbfqMIMUck3YLDQ7SliJhyldphKlbUSnTYfXIXEdtylByV+51XF2fJKZrG5XRFxESIRMXlV6pXRAlZ59Q4O+e10WCAs+REK6dTG+VvIgOcNefrev3ipEg2B44AyKFEAgwCEAPYVDQKXiHY06gNafN8ERi0G4MEu0gjPUFIEU66RHfoiQGqNAkDZ+laosoi1UgqPaaTBq/eY42MegOQAbEyBtRypqV4Idqi0Ab4dM4g2ACcXUC0De6lriHTosnKe5sRYsyOuY+es19sjZ1OS/GQ1qEMWyN1RH3yxuVTs1/q0i8Rbm1lY9hMhB7hJ0t5M1/sgwEFPPTbuhCy/eBM2Q3HEOz5PoEpFwQmA4EQ7Mn4Hia6FXMR7CLXv/zlL7uojddlcTwiL5xF/ZKj6ViEVfRaCgbnwxGZluUA/TwxJ8R5cS52zgnBRpgRZMScMxXFNh2LgIsmiSKJMDvvPlFn+ZaIN0cmssXpuqYMgk2Wa8ivCLU2qVu7KvKkbXWf9nPySL7Pdn1Vr3aqk0MUFRd9r1cCipyrw3S1HEt4hWBP9KOexo0RgbIbfYKN6CKLBt/IMj30Vg8zQog1oomE0hl66boUMvpWekY3DYgNvNmH0j06jijXbJNZJOeQaeXoqrrov8g320OX2RLRbPYE8ZXPzT4JGLABUkCkkbjPObLotfaJVhv4CxBok2i3e+zIvBku7Wd7DOrVp5wBuf6Qp48G5xZF679Bhz6SK7XEgCQEe4wPZkQFgUVCIAR7kYCexmoGI1GDEWyOk0MQ0ZVbKPXDNChHITIs2ssxik4hm0gs58eJcXqucXJSPUSCOUpvCRCpQVaRXY5HNFiqhTIiyY6ck+iPaLMIEodnURFyK8LkXhEokXKRKs7QoiXRKxErbXOvKBiiLJrtXmkm2iYP0jmkWxS82uiagQLyX78cWQsrOW8OtF7J5ZViHLe6tQVWMBOxSorINGpE2jwfBAbtxiDB9j9dE+lFOukt3WA7zEQZjNM5uiNFAzk1wDU4pufshjxrqR50FxkW1TazhQwrg7BLQzOrZf2G++mtaDfdE6226BHRZZvUze4gyvRTcED9iLWIuPPINLsk7YQ8g3MRbn1h4xBp0W52wyBf7rZy7mU3kHq2SlSbHNFzdWoP+6k+UXyRehFvZaSxGXjI0ZYiAxdBDIS7BjDz+U5SJggEgcVHIAR78TGfihrLSWpsGfJBgs3Ic0ScVE1pclSmQjkNzpPD4fhEkkWpa6U/ksw5ijRLzVBe+oc3CCjP4SDb/udQRIQ4SE5L5ArBNZXL4XCornPGImPyHJFaxF80Hcnm4ESgleecOVdkWwTcAijRqXKs2sq5GSRw0uRZLKV+UTB5lXLDTV/XgidkH9GuNx3AxOIt6TIiZLDwv8h+CPZUqEAauYkIlN0YJNh0gI2gs4goHUcsDW7pvagz4mmnOwgqYmpAS+cRWT9bTn/dT7/JqFf4Ia4Gt4guefRWOgbbgxyzOyLHot0G2xZbayO7wx5Jg9NGKWXsDRvBxiD4ZLBdztnpu/tF4xF/7ZXmIQ0OYZZWhvQLJLBz7AbCrz1sifbrp8G5doqes6nqho9AAPlIdgj2Jj6QuT0ILDICIdiLDPi0VIdM223lKE1VIsFW6luEI1ItfQOZFSVGRk1vckYcm+iR6BLHYXW8nXMRSeYwEVlOkbMRWUKGOTfk1DttEWYkmSPiDDlFJF3eI8JrwaJIszaYUiWLY+0TbFOsotAiUQiwNmk/R0sGuUi3NnKQ+sUxmwYmmzwRJddFpuV6cvgIOodLBnmOHK63B3CSNS0sAlV5pu6HUZ9g6zOca0BTx2l5TtLOINBHgI2oZ7jshoG4KDW9odP0iY4YxNLVIsdIKHItsi1tgl2QTlEDYq/Bo2dIKftAJ2sxYOk8nUVw6anrZrLYBgNh9xa5lX6BHLNT9N3AnJ4i2KLfotLayLaRhTibeUPqkWb2waBZG7WFTiPA6kSsLWwWjWcL1SX6XfWzGwYI7IbPbJD0FGSfnWL/DEDgoO0GHuxYEWzkW0Qbvn0b3f8e8jkIBIGlRyAEe+m/g4lsQTnHMuJ1FIUtgs1ZSolAlH3mEOQdivqYPuWsRJvtnAsHKtJt50iUR0A5JVOsyCdnRKYUEM5S1JkTUp5sjpcjdJ+UE44OiRftsXO03kbAMSpn+peTJVM0SNs4S8SdI0SuyRXVEh0TbULUyeb4RM/PO++87j7ntVOd7iW/Fkhx3NJIRNm8EUXEnEx1S53RRvKkvJCJXJjWFimrwUxhPpEPRBoVBOaBQA0Wy1449gk23RSxrQExXWA/DE7pDLtB36VRiBaXLplhoqv0CdFkO+gTgk0/6aFUEqlkosEG4YiwAbk1G3QfyVc33UOO3YMA000zTfSZvWHj6Cl7xaYgvOpFuEXHDZS1k92S9qGN6kaEyRYQkDpCBrtTa07M0mm7NrKBBuEG6gIOUufUzW5ps8G+oIOgAply192n3TCDKawNaGxwzhYEgsBkIRCCPVnfx0S1pghfOUsGXYRZ5Jgz4Rg5BBFkhBShRlKlUNSPLnAgSCtiWtEq06cWMXE+nAjnKrKMNHNonBWHhphbAMlRciyck+iXqK+cTZEqzk4bOFsknCPVNs66iLLImTo4ROU5UzJE4EWrpLFwmKZ+OXZkGQHg6NTLubmXoxPxEm0yGDBta2rbdQMDzhop8IowbxUQ7YIFTDhMRJ4M/XAsgl04T9SXn8YEgY1EoMieIwJYKSKi0WyFQTKyWesb6Ccd8Uo+bw066KCDukE8XTOQtejRQmpRYkRbxNhMkcGytA76jtSyHdK9rNOQjsEeIcdIuEXGdF5kmRwknI0gQ3SbDUBgkVyzcWRpL7tBry2YFGk3IJYGRwabxe4IOMgHt6ZDv9ghbaTnyL2BAVsnEi4STQb7gSiLxrMtBub7779/ZzfZDDLJgYHrgg3sGTtSBDt2YyMf0NwWBBYJgRDsRQJ6WqspI85R2hFsU6WcpAgtIirSg5je5S536d4LK8+Qk+CkpGW4R6qFaViRF0cRb47LvZwah8npiQZZgHSHO9yhc1qcICeLTHOOnLWdHNOkHC/HiGQj5Oo1zYwcc2qctoWMHCHHaerXfe4vWeRKfeHA3MfBe12ffpIpv1pUDQEXUeJcyYCHI6JNhlxJ081IgGlti6O8LtCvwZEnLYVMZN4ggtOuCPY6UiIKtW5fu1Z6Tv0/rU9P2j1LCKx7RufXo7IbpauiuWaxaqBJNxFgxJK+0RPk2mDaYF2kWGSaXtExu88WCyPTbI8IMIJKl+imwa1feEWu2R7k22C+FhdXW+gre2LQj5Ajxwi+SDb7w36IKNN95NjAHzHWhrIbjgbXbIHItvsMrJF70XNBCIs1tUtqnGi5Out+soqsy7lGxtXlXhHt2972tt2vTMKHDUP2kW19Fahwf80WXGIn/OJu7Mb8ntDlV8pzzw/e5CY36XbPZ7bNi0AI9ubFd2ql1/SjY/8zslyRZU6E8b/ZzW7WbnrTm3YpEqIuchtNBSO/lLocW5F0BLvytxFOTgmxtXCRkxL9Jsc0MOfDEXEoRdDJ6Tsq5J0DZzyQe6kaZHKcnLYokvZoS93rfp+1jVw7By5axmGKRiH5e+21VydLRFq/RZ3LYbtfu8jwuWTrm0VPFRmHkR+j2GOPPTp55HLorouqua+c5dq1cljX7a1xluvy4Kf2QUrDZwaB+RDsepb7dsM5A88iraKziOOee+7Z9t13326Wio4a4FpYXGS2bzdKTxFmZNUCY/YCyabrBrH03YBcRJvtodNlN9xf8ui+a6LIyhY5ti6E7dE2A2JE2+yUsnVvydGnskuItqiy1DMzdtrix7Hufve7d4MH5Jh9Kl0nQ7vI8NnR/7V+xKBB4AFebKsfzXJk19hFb0kqu1MDmbVrVw3YjUunjCBTRaxGHb35hJ2flc3zJOe9+u3582aqwc3zV2Uc3ePeWdt8t77jEOzN/82GYG9+jJeshk0ZsTL6HFERUf9zAHIYOZ/rXe96ndG/8Y1v3EWIRbLlOHJsfQLqviKP5ZzK6SHPpmgRTz/wgMwio6ZDpW6QU/f3Sb77ORbntI9cZZFj+dHI/rbbbtvJI5/T5gzdo3zdS7Z7yam2OSLacihFtDi5q171qm2HHXboIu0i72QpV3W7304umSVXOzlf90grYbCRimte85rtVre61fpouCln8tbJFZm6uK1Zu7Ktbata6/Yle4RScRBYj4Dne9RWekE36ARdQGSlUxg877zzzp0OIKAIslQK6yTMLNVgvPRRfXYy7fQJSbV4UBoXPScH+TRjVGkc5JROVhu0o3S/9NP/dN3gW5R5++237+yGVA3k2ttJkOsqry3VNud8JqNkI2OItrQyg+itttqq7b333l3UGakZJOolD6b6V/Vov3QUpBxpN7Dfdddd2zbbbNORdgGMvn1cZyfh3bcb63Kz6/tCpswaqKO2It0i9LWxewjoLBHs6pvIv0GP7xeZhv/gBncpS2ZF+1gNlpvm/0OwF+/bmyiCjWB48E3HM8ZGkXJwpSPIvZ3vlhHrpZHaGIUqR8KpMeBWrpueZKC23nrrduUrX7ld/epX7yI+8poZpnJs5SjIYMTsdY5DUo5TlSpxm9vcpl3jGtfoSOwuu+zSTZGKEnO4HBIZZej68uq8a9qIpJpWNu18gxvcoG255ZadQzL1XBFsZcqpVbtKTv9/zs5ggsP2/CHEV7va1TrCLuKuvyJp+qGsPvXbBv3qs/OukyddxjS2/sLuhje8YTcdbBBQrxZbufLitmr1irZ6zYq2tq1srV3iEC/9rea/ILC4CHimR22l53QSefVcy2M+8MADu2eeXm633XYdQaYP9Lz0p0hm6aKjc3by6JC0D1FcxJUOGfwatIpke/OG2SNl617t7eumz/aSKZJpJkla2rWvfe12xStesWufaLF1ElJA2L+6r9qmn4NyyTSY8MYQM2kINlJsMC3PW39d7xNt8kqOtvqfbLty7KrBuRk0fWV7BSJE2aXbaN86O3RxZzNWr7n4zwPzS898IdOIeX8bRrDhIWVv0gm2Bal4wUI2ffLDPwi2CK60wMENlmZC+4OOwTIb+n9j2rUheZvj2sbwgc3RjuUgc2IItiifiIbXHolEMjCMDYMkp/X2t799Z2icn++WEes6pBaqUGXkOSoGVw60iJFotWgR484BiTojs6ZWLVYUrS3nUA7J0UYmB8RJWujE0O2+++5dBKpSOjgi06Gmei2g5FzI6zug/ndPJueM7HJqjCbSatrZQEAOtM/Xv/71O5mIMQfsPnu1q/9ZG9UrH1x6iXuRdLI8gzAw+BMNYqBF1LShL6P6XlgY8HmTiNxQ0XrpIqaiyYShNpsVkJpy/q/+r1244qK2as3qtnrtmrZmHqSmj0k+B4GlRMCzj6RYVIjQ0W065Dm3FsI6DTZE9FlqBsJMJ0tXSnccbfSKHZKPzSbQGTZHrjU7Qc/pE7vBfyDLAjUlp/Syj4lryCv9RaLp9W677dbpNdtGN7WRTNFced9kklXyBj+zG3KsBSEQOG1EssliL8jSdus59GXdbJW0jkvsULUZFmyKxdjy0dkGdoN9lA7jf/ixGwIA2nfBn/7YLrp4xXq7UXL7/R78PIxgD5aZxP9hZ9Cm/QvZ+EF57Gy74J00HLL626YQ7I1tV7/+xfi8UD6wGG2a1TomgmAzdAiXSOPgAw94xkJk28KPuaZ2hn1BHqTNPWJFxrwdYpJztRaqUAw9h4E8WhiIXHOQFiAhivKLfWcizSIzcg5NY5pWY6A4B/eTU1s5NREtRHOfffbppmW9ScCASq6jCI9oLkLLMcvB5nzdO8xhOAd35B659nxYca8d2ii6Y3Ag4sVhWkzlWhFi99dez5lolWeME+MYLZ5EAvRXhIxD5jTVZeBnAFJ9rTY6arPd86xOfb7lLW/ZRYeqz/rtmoVWriH0J77vfe0PF1zQVorcrVkdgl0PUI5TgQByKHLNTlisR8/pJBJIh6RrSQFDXNkN+clmxxDeshulRzpMnpknCxKRS2RYhJE86Qzk0VdrGgym2XspH4M62QePTINy6Rfk0XVpHVLcpF4IzBiMW5SJvLN/dJ/Mshf9NvoscCClTH/psbeJkMcOSavTZjYDgRdgqEEFG1EbOf5XjwGKXHOkXPSabySn7Jo+W0CJeBtonPbFL7QVFmGuXtVWz2Evq546bohga4e3r5gZYDcRUtjCBX61sX8GDVLpRH3hgLgqX1FgAyR22Oyf82YLvCa13/eSx16K2KtLWXIFT/gVm347P7jDt8qUrMEjP2gApM3wJMOz2P8u5yLYG9sua4s86/326kNtUorgW1g53+8jv6bdNu32ekeDKvIc/e98bb4bstQLE+323KijMBrkA9XnamO/zpKb48YhsOQEu75cxhPJmmtjkDw0yjEy89k8SJtzxKoNcgsnfTHEoEKNwo7BoagGD/DjhMwscDJIN8PoOqeIxFJcESUDjfpVNNeVI6schwi31++Z4vQWgMpnVs5Onu9WdNiUMuer7X1Z2l4G0XlOFkHl1LyVxP/klEzGnWO3+EkkTa6mCJJ7+3KV59i8AxchVz9jLIrkmrKuV3RbjqUFTTBBDJSpdpWsKs/hiGohGvoMw6pbW9Upd1x0/BGPfGT7znfPaSsuXtHWJII96lHN9QlDgA7QWYTXoJH98D89LD1CwE2l10JibxBCEugLvSg9cvS/++ktgooI+7+v40iEhX9sFNtCl8pO9fWy5GqLgT7CJwIuMi4FUf3VRjLptn4g2WySdBbtKd1V1k7/DRKsH2EHyeuXVR8dZ4NgIvoqv7vkVLv8rw36pj8INLsmHxzx5yurTu0zEJA7fq1rXasd+axntl+c/8t28aqVnd0omRt6PDZEsAUB2CwBFnXqgxkJ52BnK99dxExKHbte/yN6+iQQgTDz72RpdxFoZYvQeQbcz14aYOhDlSWDLJvv3z0bE8Fm07WbT9CGQd5RfeoT3k1tl3b7Dg3kpEbWpn/SXGBgcNb/znz/+A6fWX02QwMfPkhZMyaeeW+e8dmm3YU/HAWfaoA0F8F2n4GRYJmgluc523gQWHKC7YFD4Dw4oocb2mpkN/gwznUPRdzYEStDYOU7A8uoiGZ6PZTIh62UvB7mOlJYebb1v+O0jVgprx0ZFL2paDLHWAae0aCIvjMr8UVmvKrPwpw+4SxZ7uMkrP7nKL0Ttu8wlFOGcxH5UU6kWKSjnHPJqqPzHADDw7kNTuWWTO0R1ZLvbecgnNOH/k6e+qS8iMgr129j9dkz6w0qSLgV/8pUmxxLJmdpACJ6zciJVivrur7aHLXFwi3O/tYH3rp7ZRccuvZ3r93qiuZPEJgKBETMpEd47hGFsgee9dIhBBQRZfs5dvaUvvT1yGfn2AM2yICWfenbAzLtCKd30bPVbAc7XXo2KJPNErkkU76xKDiZ/XLuFdSh30jzwQcf3JXTHrs660hXEVLkGdkRJBjsM71n89g05JC+KzNYp3q1T5SbLzEIQJq0z7Uqr37n2BTpKGzH2d/+dlu56hKZox6WuQi2dhmk8F19oomUiij7EbD+VqQOYS1CXtdhoR+D+d/+F9lFpG365TcMyBDU6G9SOoqEO1++d1MINjmw87xY1GiWxOZ7QkSr3+NqF3nqMutbm74j0Z5/beBfa4NPYVZtGoZNYWEg63mwVXl+1sCwH+F2ve4p/OiOwBeeor/ZxofAkhNsDxFFri97Q11jrD2k8yHj5HiQNmbEypCZ9kKU1cmYeUiNCKVJcA62epAHI9jun+YRKyXT5y99+Uvtfve/f+dcRHM4Euft+sjBMMZSHWBgKrP/6jlyancPRyYH05SmyETfYShXMkV7OCoGwtQinF0jQzmbo/OcFkIsn1MUqRyb6/22ilAx0lJFOK9yWOTW7hx5pmVFj0TDywlWn5UVLfAMehblSHKIrtdW7XQvR1o/DY+YV/v6bSNT5N/UqcVbnDWsq58lN8cgMOkImHX5wAc/0Pbbf/8uuibaVkS0dMj/nm8Dc+QLea3XaJbulJ7TF6ljbIsoNpveL6Mc/SETiVHOrlzpdZWHnfLIlKg5UipogtAp65pdeTt7gDAaHCOWFTxQ1nV1Ko+gSGOQF20Wj3+oayWr2mfgLirtvdcwcH9tyvof0Xrve9/b1StC6W1L7i9ZVbcjW8kOGQSw0crNd5uLYA+7X7vYbzgM+uoi2PAZ3OpaP8ikTAXLXLeJ1PIhiL3vvL8Nlh0kiP2yG/rc5wPK+R4rgozc62P59HG3C5k2oOj3TwBHmpLZHAPNim7zJ1Ila0a/BikWtfrO+xusyOwPQKoPnkWfB7c+fjDwJh8z8T5nGy8CS06wS8kHFXBYN+vBGCS0w8o6N6hQ8xmxug/5Y1T7o03nK9peba0HeVh7KOi0jljXWoe+ZnX7wpe+2O57v/t2UWwOsE9KKTqFpOCMPEIqaiWKVCkQDJZdWUflRLqV47jcS0aVKXk13SoNQ1SaI3Kt5NT37bzrRvactOhzOa2SWe00CPCdijJxblU3ubXrn3xrTqScvnNkVf3uQ7wNtMxqGIhxsMrYbeq0K2sWwIACkRCJI6+cZdXrf+1Tr/Z5TpWzlczun/wJAhOOwOo1q9v7PvD+tu9++3WDUMSinvPSIUd6KtLNHhhYspfsaem45750l60wSPUjUmwzvSodc6Q/9IVe00nE2YC16i2ZoCMXgaW3yokgsktkuGav++i1gIFZL8EW+bLKVT98Jlu7TcXXuhID8CpTsvSXbbHQ0wCerdKPqlPbyFJe5FwOu2g3O4NoKTsoU/1ws4ASaYdNvx+jHpXyvUUmB8urzzXETrSffeLT5iLYw+RoO5wrGlt1+L9PKsu392d+Bz+X/Co72I4637+vfLV6B/mAcwZDMOYbyC+fPlhXX+bg58Gyg+1Sj+/Wjx95hr3K1v/Keab873xhBDMEG9G2ka/OYXJdd971akf1oVJCOiG9P4WTIKCUEHUbCGcbPwLLimAzGKNGrAyeMqYj5er2t3ow60GvB3kYwZ7mESsMLLJDdP36IKcgkswxlVNxZPRhYCRuwYVyPnN2sC7nwZjYYWIqzGu1vDdb5KgIZ8ljbEQTLHSk+IxN1UkGmTZH5w16RLYYSAs+TA2XMyqZ3kQj0mwqlTM31emaNtqrfT6rrwYLUpFEu5StXa6aQQTnhxwgCfpQfdU28shyj2dInqQ3AFggWRG9uq6tcDENKnptWr0i3cpUf/vPYT4HgUlFYNXqVe3UT3+6m32SulXpF3SBXjh65ukRQmGwba1FP62idKnKS7Nih5S18I+NIIMsOkL/2BKv/bSO4fDDD18/q1S6XXrkyGaJipv5EvkzY6Q9ZNnJJpOdQFLopdlLs2BVpuRWG0VvEWdEl31QR7WPPHovWinSbLbNIJ2s6qvvkyzn3GuBoT4bmItmi/CSV7v2sS367FWASGKtLSGn+ruh52SQmFVZ90qPFG3n29g4g41B/1fliwAWwavzjtopfUEQxABA2xz933+pQclmB0dtVbb88Kjydd19NaNd5xy1m/+o9Tn9FJGqaxztMlA0QFGfZ1haBv8CE4OYmpmnFyLKtRW+c/V38Hv0/OjDKILdHyj0v4uqN8dNR2DJCbaHaUOjs34XK0Wk8pUG33c9KGeYQo0asdbD2X/4Bj/Xg15lhxFsSjOtI1YGlqHnUCzMQXaNqGtRon4z9CLVMEaWpXNwbBbvcCjlPHx/JY+RFukxhVuLd0xrco6cA/nyMjk+zhQp5ljKYQw6Ded9n5yuKAlnaTGMqIAIlt0zg3gzoBYrKVspHX25ZPtffYypNsop93xy/mSJdIks+b45Sm8YcV5/+22r/pKnLivvReC0UVvMBugvfLVVP5F1JPz4449fP8Xsfnu2IDAtCHhe6YkUL88zUklHRHDZDbqCVCANck9FMQU0Kq1imN1wjRwzWgagdNgglFw7WX6+q5JIAAAgAElEQVRmnM7SMzOPJYcuDtNNdsrUOrslzxmhoef0kj1CMF1n+5DcSlUjSx9Lbv2PQCOSotgCA0g2gk4WuyZowJ6wa6LnUg7Z0H7byNVuu3bwH8oLCkhBMVhhM/QZAbfg05tY4CxSWzOH1b5Rz8wgMavy6hZgMqhgs2srsln+r84XAXQctiHZ0vLYZ74UufamkL7siuIOS4MYlDlXOwbLDf4/jA8o4zuQk69tniOLUKsv42xXyfK8m6Xsk3YDPs8Z34AYexZr89m1fnpJXaNPc6WIjCLYvkc6KZKt7/2FpCU/x01DYMkJNoLByNbobUPdYUQ8CB7QvmGa6565FIryzDViLdJcJH4u2c5X2WEE2/VpHbHClpFHDuUki0QhxEi2aU7pDJRe7pgICqdm+tB0EyNP6TkPhr42n52r12OJAPveOQ+5Yoy5twqQ5bvxRhB1uGeuTTs5bu1B8q3S5pDkujGS3i5ikSYnaZpXmZq+JdP99Rw5amPJQ561zy6yoY0WRDF0nLLng5PT376jLDnwIw8WnDln2e+ztpFpsaQ2IwcMJafM8bi/2jhX/3M+CEwaAp5bBNrAlB7TZ6TJWgRRWyQR2WLvPfdsJz0q8u3+0kl9K50UxaaT1nDYvUKPPSodp6cGsPJJkde+jEGMyGTbRJ21gz5rpygwO+TVdFJCLGI28EWOkSP3kVuy66jN2m8wzy4gvHSdvdA+M2LaXHYNDn0d1z6yyCfLzq6Qpz1sr/thVe1jk6XDsHkG6PUDNoNtHOx7//+5CHYR5ne84x394p1tYucXSrAJIVPEFk7DNu1mI5FwNnBwK3ycHzfBJtP3AVsRZs9DEexxtqvIsMEn/2S2tLYa1MDo6KOPvtTgo3iGgYkBW38rLIYtcpwPwSZL30Ww9Z1PzzY+BJacYPdfv9d/4Aa7WOUYKVNM89nmItiUda4RK4XiEEQhGNUNbfXgz0Wwp3XECh/GYMVF635JDFYiGgw6A2uKk9OQFoK4OvZfdeXeMvTwK+OIiCKwjImIEeKKWPrBBD+hXNEfTpJDpfju7e/978N5MjlLTktkC2H188nkeWUX56StfsTF86D+apP7+5+1mXNTL9Iu2uyNBH5h0q7//rcyG2GQMiM6UwS7306ynLeT5w0qHHXJ88MWHDEHiSxIRxH5u+jCizrc16xe09YaoPQWQXWNzZ8gMMEIrLx4nd0wqBQIQXo95yLPCCz9NEg16EU0zAiZNWIz6Aq9qY0+lR7Rcf4BmTSAFrn12k16iQiTLZUCARmmjyXTkUz1SQtBYqVuSYeQQrbTTjt19kO6hxk5QR32Snlb6Xj/c5FibSQP2UGw2SC2TV8N9EUI2RXkmd1wX8mrY/VXfeyLAJSoKoK94447dvnW+i4nGpn3lhN+psPdInR2g80YYTcqdUPASrS+v4mSH3zwwR2mIvPaKVjEByBhxx133KW+J/cPk1My9YlPNSgwuGLb9a1rZxXq5UN7Lvh49bpXUITNlbJoKzLKrmufjV0flNdd6P0xuDPocf+wDbFHYvWlCLZyNes9jnaJVJOPYPMLtfm+BVhc66eH1HW+C34WvZrB0Fe41Gv6LIStzXNoYGf3eXCDLb3sf4/VR/0fNsAZlJH/54fAkhNszfQwI84iesMeCEomOkq5FzKNMRfBVqeHe9iI1TV5xOpS5zCl1R7bKIJdSjNtI1bEbtXFK9uqlavayosv7gyMKS0ja4TVTx1vu+223ap5Rl4OI6PMyHFu+l3GsQOqR7KdZ9yl91B0EXA52eSJHHDKvreKhMMf3rX3vw/nqj51i46LnHFofo4ceUeSGWZOXL313fXbpU32qotM9ZuuM43tp9I5N0bRQioGznXlqp/Vvjo6Dwf/e070ySDEAOU617lONzDhiBEM7ROB6tq3ek1bvWp1W8tRrkawq6U5BoHJR2D1ylXN7lmmj17pRoeQbM8922FQLrpmNsxzT09qLz2snpZOOk+PrFdA9qxrQLD9vLmoZxFNdl1ZW+mi41x2g0yDAdPkBr1+fl3AAFlHhkXjS4+rTY7kqadkOyonEOTtKPKn5Ub78Rt5v6L0yKD6ym70+1ZtJbOuk8U2SAVhG6973et2aSbSZaTBaF/ljiPW6+1GNzDvt/bSn2smGJmrfTBIZKBgdtF1KTRSZHxXSK1zyutP/WBLyRH5R/z6m/6IehtYCVJUWfIRTn2vTX/YbN+BcgYSfATSV98hjAQkSpYyyGIFT0pWHZ33tpiq1xEGwza+jO/vE2zlxtUuA0Akdlj9vlMY9dND+m00M9PHBkb+d74235v29/sqYFVbzVrU9f73bkanzvuePfvZNg2BiSDYuoDMMJSPf/zj149eKRQlrhxf5IuBmu+2sSNWCozII/1Ido00PXDyaSt3ikE16jQ9aVW49pZxrDZO44h17Zq16wkew61PBj6Ipb57HRVnSRn9eIo8atc51XKU7ukbTngUPo6uIb1yjk3DijbvuuuuXeQE5hwpGWQ62suhFbZkOGf3XCDsRu1W1V/vetfrokii2uXYSlbdX21yf78OffHGD28YQP7JEonyTDBm+lj1OvbbUZ8LB3Xrj8gJkrHDDjt0PxHvx2wYUk5U28mBi8ENYg33jlyHYPe/rnyedATWrO2eXXpAp0QqkSMkaffdd+90CVkUlUUQ2da+3Sg96HeTXvT1jN6YShclRrLZoac+9and9Lb61F2D/bIbZNRWOkqmgTLCLrKO/BtIi7Z7e4ggAN0sfa/7HatNZTfIRMKk1CEt+rr99tt3aTDWnbhWbXFUvt+O+gwLdZrNYrtE6y2y1DavGEWQBDPYDWX1oWvPnwfkk2Y3RFbNLrCB1We4sq+CM3ysiHa2IDCLCEwMwQYuxROBNGKukVSNTo2K+0ZyQ1/GOEasDJcRJWNpRGi0zCCIujBstUkVEJXUXmWsiO+P4KdxxApnJLuip/5nHDkaI3s/6iL6wIGYorUo0aIVESvYl0Pqf1/lQDrZfx6IcCKiuPKtfeemek1dcSry/zgS30M5sXJMhT1Zrvs+GHJTvSIojLbUC06T4+VAK+KsbdUGx2oX2a6J0nCI7vXKPO0hT2qHSJTr6rQP3k9GtVd9ot1+qEjqi8ED4m8wBj/PuQFb9anatJ5U4wO+AkQ7WxCYFgT+/NxqbukHwigCSoe8spLdYC+lRrGxBq10uHSh39XSz9IPsugzu4FkWzhoxopcqWv1tiPlyavd/7XVNXUalJs5ZcPoptQQcgQOXDMAYBfIKRmOZQNcs0s7qAXa++23XyfHAECqhUWNRbD1p/ayFdVvcgQd/Cy8+xBqdsNRvjq8+B+2xb3k2Lpj4e4oQMJ+L/GmXfKq51pfZeDFdw5Gi5e42ak+CIwNgYki2NUrJM3UE3KzobzsKp/jmBFA7NYw3OvynxlKTqUciYiEqSmDDxEk0Rp5gXIWRXBEn32HnIB7HN1fcnzmKDlXaSeOIlzIKBmivWYyTIVKrVCWMyxZnUP5swN3TmRdfjOHK41D5Jkc/yPvplg9RxwZOeqvjSwyOFJlzJKYHqtXVIm0yX1D3rUVka/+kFH9Iluf5bKZzVA3Z+3NJRw3ImBQIi2pfjJdve4rB1ttyjEITCsCw+wGvUBWBR/k4iKz7MYee+zRLS60eNH0tAAL/aRfjmUv+kcDXIRVJNdAmL4bRNfOJknvKNLetxul947aJIJudtTAWcoJ3WR7zEqyG2yc9BH6SVf795dtM9uFIEpBECQwiLC2xACADSPbLF0tkvS9kmMv26MtrvupcXZLGh6SbmBvVpe91T9pLGxd2QzHatMkPi/stlQgeAxLN/Cds7X8RbYgMIsITCTBBrRUBFGOYQn/s/hFTFKf8M8eB+2MOAfDWXEonAbH5FVU3vwhaoxAiiJxMvLhRJkGI9ocAsdk5wA5Hk5DJMN0KJKNVHO4ZFjNz1GJ2lQOdd3PsWiTKLeIj3JkGJh5dhBl7UT4EeN6u4D7ObZyUvokjcO7XjlWqRvSTDg6jtq95IiMiXRJZVJvtcMROef4RKwRcTn3MEHSRcPcJ4rj1+M4biSjHwnXnmxBYNYQoKP0C4Gkp559Om8wbIaIfnh3vigmMiqvln6xDfSz9Kzshv8Ngg166bxX9Rk8k8keIbmvfvWrOyJPD8mSSlFyiqgjfmbP6CNdNJuE/FuAxwaQac0JciglEDl0L10nS3vovNlJNhDJp98GzuyHe9zLBpnZY8vUV/0o26FtAghVrwG4/FwzXAg/uQbqUtPYJHnmUmBKziST63qWK9+bfS4iDUNvqzAY8h1lCwKzisDEEmyGVMK/ETxlZJRsDFt9ntUvZan7hVzjfOuI9iVpFHBn3KVvcEhy3L1hBBH2yizRH9EWzsE5K/6tMEe0K0WDDE7X9+sd23LzkE2OimMTzRY5QrwtAORMEW45kaZh3Wsnh8G2KAUB5nBFtDgki4yUR9hFl5Bs7WHsOahqg2lbfeAE3ccpi4wh1Zyk5860rPtrKllOPcKgDWSJaPs1Sc6UE7Sgq6JpHCsMYOM9tpw2J6xf7ue0a58GZ7nUz2Xqnw4E+najyCBdo1sIrDUbBrx0wc6WiHJWFJk+ensGoo0Ml91BSOmaN0qYJULakU/EnG4hcfRNJJg++9/AmZ2gb4idI51lw9gb+iy1wyBYRJuesks+sylsTz8tg+6bpdIHdgqR1gapEPqibru+uM9n9gmRdK8dFvLIEWsDA6Sc3WA/EXWDBDus2IqyT9IR4VkDBcdJ33x3bHqlfUq3RKwFznyf2YLALCMwsQQb4fCCfq+hqdXCw3KcZ/nLWaq+rXOQl9Tuu2DMGUs7x8FgcoJeP8fRiE6JHHNanBWSyjlxLiJWpgNNgxog2Tke95DB0HpzCyeF1PrMiZoKdh8Sr6wItQUxIkoi2mQg0a4jysqLSHlln9X3HKxIugg1x4lkk40Yc86IOCKvzd52YOfwlNUvTsDzJ6ferhzibUAg6q5+0TOOUPs4ZtPM6jVgKMLvFYEcqgiUstrHURapdqzPl6CeT0FgOhFgP2w1eGQzzHzRHSTU4NrA1wDUXjM7riHG7AY9FFk2sC2izX44R+foHztApv/5CvpoMGsgTf/ZI/qmjPL03kwTe8EuIX7a4jOSzKawbeyX6Dgi7rzr2qE+EWekV/vYDjLYC212nl1B8v0vws1+sWtmtxB9dkr7nGMztE+f9Z3tKnnqZEPUy76SSXaR68J3HdL5GwSCwCQiMLEEexLBWm5tKkdZBLuiJ5yMhYiiSciy6AznwBE4x2FyMJxITcMinaJGojCcnVQQ1zgNUR2OhMOSiiHiLboj3YPTQnZFkTk1UWZOUOSJc0LeXUdgRZGRYgTYOWXdzzGKfpNPpjo4ak5MG6xo127RctEs7dMu9Ym0GQCQydnqh8iW9iP3Ik0cub7qs2iaPoqo+d/98jjJhBGyrT0VfQq5Xm5aNfv97dsN5Loixwa71kewF6K4FXWWikW/S4foFj2iawbaCDLCTK8q91oUme1hB+gtmQbS9EsdBtIIskEuPSZP/WTRWySXnRGJpqcG9gYBBvBshMg3vRcAcL+2mRUjh91A0r0SzQya+8lFoNXpfoNp95PHDrFN7vFZv9gSssg2MEfS1aVdUl3cj6DrhzKwMgtYA/HYjdnXo/Rw+hEIwZ7+73Cz9KCi2GXIK3qNZIsoSYNAUpFjhBFBRXg5EWSZo+BIEFCOqRwdZ+K8N7Igv5wQB4yAIuicLUdlNzUqEm46WHSJQ+NM3SvPmdNDpNXPQaqrfl1RtAt5Rn7J4jw5YbmfFi2KdHGOiDmCzWlygiJa2sSZi0ZzcBy5ciJOFjFx4GQjBaLeItt2xF2uJXnSRRB6kW/yDApMJ7sGy8K17zA3yxcZoUFgERGYy25IzRBlFh1Giv1PRw2I2Q26hGAiyCK6BqZmmOo6Eou40lv2gE6yPfSU7okQV4QaiaW7osUGxsgyUi19zc6uINdsisEyu8GOkCfCzRawQ+wKW8dO+aEYQQWEn60TZBAx1x/k2AC+CH9FwA0i2A/2wnux2TJl9cuRPdFW/WEnnJcuIhChfeyW/rN5Zr1iNxbxQU5VQWAMCIRgjwHEWRRRUSh960/1ItgiKcitnRNyjiPjNDgRZJfD4fREXzhATglBVsavZHr9IifKcSCgIsYci6lQEV+km7PjXMhQjgM1bWpxlHdnu4bQqgvZR3pFkDhvZZF9U9CcIQembo7Swir3KsvpK6ONomT6VvcaDJjKFj1ynYO1CEk7Rb44YWVE3PwPAyQeYRCtRso5bY7WPc7pG1JdzrKenSLa9X+OQWAaEZjLbtBnOkjv6KUBr3OILTtCv+iiqC1Ci0wboBowS7OgYxYOI6pIJ1lksAv0F1FGmNkiNsEA9/+3dx/QFlxl+fBdy/UXRcxCEooEMBBaCiGEFBIgQEhCMQKCWDFAVKQoCogNhahIEUVRxAqIHVCKIGADO1IUUcGGIHaKIoqiCM63fpPvJTuTOeWee+69c+c+s9bcc+6UXZ6Z/b7Pfva796F2syFsC7XYRGy/RqgtOq59Itd1r/JYyURHW36uQdL9b+Khe9kQx5Fitq7sVbVz1yLzbJ35JeyDDr3Jzuqlg+0e9wppE+stT+q6MBHKtvSlBxuig/KyLWWHW1tRI2GH8V1JmYPA3BEIwZ77E95F/cqQ+7QjhQw640+R5iQ4A04NqeUQOAgOk4Mp1ZkTo0BxOAgrhYqSTNHlRClB1CvKEkXHsKr07I5zWJRoxJ2CRPkRysEJy4+KjLwapqU4uY/zFc9I8aq4TcqSdDgtw7Acte/SLOW7HBvHaPIVx6+cnDjnSWHiuH2XhrQReB0NzlhdKfRVB07beekon+vGHOUuHlNuDQKTQmBoN9gH7zySaB6FNkeddVx7Yyu0QSSYDSnCqZ3b2QcddKtqIKrsB5LKHriXvWEPqL7amzQRYO1W+zSypE0i99otW0Qpd05nGLnVyWc3dK4dZyt0BKStnbMb7ve/8A3tmR3QtuVn1+ZNbjS6V6Ef7IHv7JB6s1PsmRA45ZUfFZ69kT6xQB109E0Qlx+hwv+xG5N6zVOYILASgRDslRAd3QuKWNcnA++7T6oSlYjqyyGUs0SIkWQOifPhuHxyWhwV52LGPPWXY+MYOTmOhOND2qk8HIo0EWUKsmXzOFf3y5OD5mA5JbPvOTWEWn6cHSLrf4q1+2oolpOv9W+RfI6UA+PUa3Y/5+s+K4hwyJw7xy/Mw3JilGzllT9CL09pIgiIOGwMF8PFKgjKjyhQtwurwvLovl2p+VwRaAl2Swq1ZWFZ2qyQsGoLjmuD7IDOsjaqTQnXQqQRagQUYRZ6pj1RmCsEzeRlBL3ILruh/evQ6iQLKUNutVHKt1Ew92rLQkmQdDZDm2UD2Cq/5shOadParXAW4R6IsvA0+bFDys4GlNIthEye7BqCTCXXkXePlVLUx33KZ5c3PNgnajxM7BUeop4UeceGo15zfX9SryAwFwRCsOfyJPegHkWsi1TXJ6cpvIKzEV+NRHJqnACnIeYR0aRyU2mcNwFJ7KUYSCEaVCDnhExwrhwPkoy8ck6Oc3ju5YT8CI0fbqGAIcMcIvUHSecIDd8i9e7jnCjSnKi8OGirAkjLjixToAwZ1zlODCGnMCkDJ6n8hqw50FLKhKcg+5yu/KWHLBjupcYrDyddjtJkLCq7c9R+TrJGAoqI7MGjS5JB4MAQqPe67EV9arNIpxhnnWj/l93QxpBrxJU9YEecR4gRZW0SSRWrzW4grpRpCrG1+P1gCeKs7VOi2Q7pXHrppX2IhnPaqzQReKNpVkLSiUb6HZOueyjlQtC0WXZBG0ekhYGJp0ai2SvnqNZCTIgHQlgssyeWWlp2tpBoILSMzUGiiQfKZ66K8uvEl32ChzLqDFDIkX02JDbjwF7nZBwENkYgBHtj6I7OjeUg65Ox5xCpyVbxoDZxDI4jlsh0hW1wWAix4whmTfipmfaOIaRIr3uoTZwlp4MkU7GoSJRmSpU8OTXpcUScFCItdIPK5T6x2I65lmrkf+V1DwcsH50Djo8K71rDuJw7FY2yhRSXk6wJm9JTftci3hy58htK5jx1IDhDx+UFEw61wmM4eBjBsfaj8xalpkcNgbIX6q1Trl0gktqZEIkapdImnNNp11Z1co2EIaGOa+NCL6yfjJwj2RRlIWhsgY610SgjWTrgYrkdN8qELIttrtV8tElk2agU9Vr7Zzfk6xrf2QMdbMS5iL5OtI4/m+E+9kibd61PBNuoF+GAPXM9cuy89s8+GRljH9gtHQTLC1Kvhc0pE5thh4vRMekaNfN/jXjBNFsQCAKHA4EQ7MPxnPa9lK0hH5JBxp5D4JAMbXJ2HBdnWJ8IM4dEyeZUOQmOksKDkHJE1GNpINHOG+JFkJFYw8GcI6dJoaZWCb3gyKhHnKsyIPCcGJWL4uNnmO95z3v2IRmcFKIsTWVEcKlLnCp1yu7X0/ygUcViItPKRc0WG6n8ysNZUq0N9yLYiDPVixN2vQlMOhacZ+GAICAS0oYBbGBna/Hd94ebDIPAHiDQvtNDm+F/7z+7oJ2yAdXxrvZCKRZqgWC7RnvShqjASK22x6awAULMaqIju6LDjvSyGzriCDn74V6EXOeYas0GsB0VX20EDmk2OmbiNXuh3SPnJhcixDra8nMdUizcyw+g3f/+9+9tEWXb5Ef5slHiv+VXdoFaL11ihA65OGuhH4i3ES8kHgaFAxFAfu6BV9mNFt89eHxJMggEgS0jEIK9ZUDnklw5yPazyCHFCZEUQkHxQYwds5dyyzEKq+BoqEqcJafBAVJ/OS7Oxf12Tg0JRpQ5N0O6HOYFF1zQOzIKE1UIoUZ4EdpaPYTDQ9Q5OOEbQk0Qcw4VkUdwDblSgyhdYrIpVIg7ck5d4uwoSfLnwIvoc5KcJqdHmeI8KUvKroyUcHlYqQBBKCcJC/fogIj/5NThVxjGWc6lpaQeLQL1Xi+yG+wAoqm9Iq5Du6HTrJ3qiOvsGnnSodaOtDFtXkgHwo2EU4LZE8TXrgNN6T733HP7FUe0Z21fG9XGtV+dY+1bmj6RcSq30S42ASmnNrNDCD8yLk3hba5B3KnwRrrkKVQEGa5J136cijJNhVf+GjVTZzaGLWMH2TJ2och12U/lVTYjbToEbEbh2WKd70EgCEwbgRDsaT+fyZWOoWfwEWmOEDnmSKgs9nISvnOWiCjF2AohiC8FCjmvoVDqNWfkGg6FQ+S8EFskmKMT34wwc4KIdTnFIuzirzk+To5DRPiFlXDSHJlznLp47NNOO613vByYEBSkntItbcQZSRcvKd4TMZYW4qw+ymz4GWFXb9fqPOgsVMeiPl3vWuWmoDlejnJyDzUFCgJ7jEDZDYTSqI82TJ2tdlHtyydFV+cVgWUTtCGkuuwG0okosxE61yY9Iq3shvYuxMyIF2KOPGuv7IpP95Q9sVyotCnjwlOQdWmwU9TqIsoXXnhh/2vCysN+addGr6TpfnnLU2y2zrvRLp0B5WUPjc4JH5M/Eq5DzyYMQ+vUnTAhfMV1lHHHYjf2+OVM8kFgjxAIwd4jYA9zsgw6x8ApDrdylAy/sAcKMOeBhLqnnEERbQoOcs35mFRoJj7HQ7VxLYdiqFccJWUaKTaD3/XINUfmGioRp4wsI7bWw0WYL7744n6yEqdN3VIOTpsj5wCtX3vGGWd05513Xnf3u9/942o5J+465fCdSmUC453udKc+PUReGuUk61rloJ6pCwWNI5WG+sKkdv9T+NWJYlaOUjrZgsAcEWjb/7B+ZTd0uqnMwrOEXFXbae2GYzq+FOR73OMe/QRHtkZbrPaFtDqmU6xzTnkW4iHkiz1iM+QlDyFd5nYgzjrjQsLYDQQamdVBlqe2SW2mNEuL3WAPhIJo6zrv0ixbwLbJX3oUc2SefVM26Smra5VFh4ACLn+dBrbFuaHd0HkgBgiToczXeZ/ZgkAQOFwIhGAfrue1L6XlDMfItczrHIconpASjJwiqeUky5n6n5NBoCk8l1xySb+KAOfTOiDOg2NDks36P/vss3unSd3mVDkiO8XHKgRUqrPOOqs7/vjje0fIYXF20nQ9h6Zs4iv9yMNxxx3XnXzyyb3C7bjr5OmzrqVEI+B2ipbyFLmu0A/5c6AVYkLJko698PIpXfGlwmOo6rBxDTzaa/flYSaTILBPCJRtGMuuzmlTwiQQbEQbGdUubK7xveyGjqlYZ51p5Fa7KltQRNuqQdqYVT/OPPPMnghru0Vu3aOTbi6EEbFTTz21O+GEE/pQMSNXCK00lUtZqOrsGWJ/7LHH9vZAeIk0XSddabpWZxt5NyqmnGyT9JzXzqVpZ5vKthEkCAHO22tTd3aGkk6VZ9OQ+cKjMKrr8xkEgsD0EQjBnv4zOrASMvpjWzlCjksoBgcnnrKcgPN2DoSz4YioRZaxEg5CmSkH6NN1SKjYRzHUhmQRcgSZuuQazsc14ro5KQ6NwoS0W1nAvdLlIA0ZI/6I8F3ucpfupJNO6u54xzv2ZaBMK6v0qEjiq8VRUsBMjrzvfe/bO2npuMaufByqyVQcKocvDlO9lE29CxOfjklXmj5hUNcUNmO45lgQmAMC3vGxzXEkVcdZmyslt9pEfWpviKn2JozDrgNM1da27K7xyT5Ix9yK888/vx/dqnX0XaMDjRxTqoWBUa4RcUqyMgjDYA+Q+VotyPJ955xzTnfKKaf0RFtYiXhpeUlPHLnOAVtm+VAqN9tWS+pp78qvfDraQumIAvI0Cud+58om1CdbY3K1eR06FLCqc4XNGK45FgSCwDQRCMGe5nM58FItM+h1jqLLuSG4yGbrDMoBckjiJ2v1EM5DyEipTByNa8RxWxNWWsirMBFDusI8kF0qOMJtAiJl2HXipOtaSjVHKHZSWAaHZlgYYZe3SUqGeeUvHEVsuBAOMZfy5WyFnpgIJWq2HXIAACAASURBVP6xJlhxespogqVr5Et9k77hZ/W0q3t9IuPyEkqiE+J+5+BWGA0fcGE6PN7+75psQWCqCNQ7vOg9dVw7MIqkDdqrY173Oq+9aEPindkAirJ2qf0jrM7bqcU61tqkcBJkV8dbuxPjLHxLXLURKaqwto5kC+VgG3SmraGtw86O2NkQ6bAZRAHXCddgd6SDLFtdRHrEBasM6UjreJuU7byyI9g+Td7W2berg3JS3ctWsAfq4lOHX5y2a9Szvcb5sa1wGzvn2Krzi+7L8SAQBHaPQAj27jGcXQrrGGXXcCKUHY4D2WwVF87BTnUSp0jt4VhrBQA/f0yRRmA5QcoOR2aYFWlHYDlEZJnT4QR9txyWIWZpcnLS4ySp2RQssdGIMqLN0VKa5MUJUrY4aQ4WIadwi3eklHH28nMNh85pCwdRPooTBU1+jtlNcqSUc45DR2iYVx7K6v46D7MxR1l47/Rzdi9eKnSoEaj3d1klXCNkwgRlbV7HVRuqe8tuGI1CcMVDI8raUrVPoRPIa/2YlMmM4rGNpCHQCCpi7HpttjrMYrMRZWkiyWKr2Q0jZuZ8OFdL/bEDOveOiZ82MdIkRzHeyqUDTmVm+yy5Z93t6oALHdPuS6lXT/ZRmAg75r4xu8EOyYOKzbaW3WAztmU3lj2bnAsCQWC7CIRgbxfPWaTG2THuPhdtziHUHAcySkniVDgC53w6z9kgy4htDdcisxyTcA9Dsxwjwoq4It1INkWIg+MkTSISY4mkU7M5ovqZcwqSyUP108YcoomNF110UZ8vx6sMlDCKNbKN/JrQSKlC5oVxUMUpZpR1ajzFSdpFvk2kok5RlnQIOHGKFhW/HCGnyTEi3vKQNwzqPFxqL1zr/xY331ftdZ/PbEFgCgjUO7vsnXSO8myVD6M82lcbQqWt+B/B1QFGov2vzSGyRWYpw2yDdojcaoc62xRoRFp7tcSn0A2dY51e4WFCz3TYtXc2BLGukS/hZsi2NK0eJEbbiJcVTRB8HXkrDFG62Ts7sk0tR/rVhR1jz4gA6qeMbGQt8clWIuxsIbzUl91gO3U6pKesZTcWtfM6Lg3fC/tln3VPfU7hnUkZgsCcEQjBnvPT3bBujHSpSmNJlIF2DUeEjFpzmpPhMJz36X9OjVOxtivyyXEgsNTqcpBUJ06RkyxSTn0W3sGZcYaIM2cnzpHj4ggRa6SbmiTshOPkLDlCy2dRo6hHJilxrK53jJNGtClf0nYPAu6YMnN+HLtrKd+IOCdbE5gMa1uayzJ+FepSjlJIiM6BMBJDvo7byxHCxlYY1vdljrHub9Oq6yu9seeUY0FgPxGo93PRO1nvPDKpEy00S6e6yKZ3Who62Trh1GftiU3QLpFubUvHlz2gBuuku981wr60fe3WKBb7gvCyC+wDm6Kjrk1Tm0189MkGEAHEehslcx3bgJizGzrLVHCqNzvA3hlBY5vYKASfbaOqI9tsiV05lEnZdRJcp0w6AupYeCk7lV56RtSk41xrMwrTwtBz9d11PssetJ+VRuXTnqv09vP9SF5B4KghEIJ91J74GvVliMtwj11eRh7BRjA5Q47BJKAy4u43zIvgGl51HSfDmXAgFCzDrSb+UIIpwxwl8srxcXbOC9dAzoWiWD+W4nS3u92tD/GgSIvNRnwNxyLKVCiOmWpEgeKExV+7x4RH6hKFCJn3SZmSj/yUCSnmLMVJcuImMCH2HKD6qhc1CmnnLHUwHLerG+WKk66lwlxf941hOXasHGbhLA241v/uKZzH7s+xIHAQCHhP7d7Tsa3ea+2kQiq0de233mdtxagWQqvTjoyzG3bhZkaZqMg6vWyCdsyeaK863yYqI9naH9Vb59vSnuKtdcqFjggbE/blXqRdx9svOeo06/zraCPZJjOzGWyO9s4GIMbKrnOArCPfSL60ikQj1/LSkW/nYFg9BDlH3B0v2wAPkzCVU1rSqXNwWbUV3oVh2QlpOFbnpTP8f1XaOR8EgsDmCIRgb47dbO9khMeMc1W4NeAcDqLLcQjf4CDdz0kIvUBwOTSklCNxHNlGnKlDhmkNjXJ4SDKyTaUyk5/SxPFwwpyVsJKHPexh/ZqznCInitQj58I3qFXSo1ghuvWTx5bn4iyRZeXhmBFzZedgOUROmTImv1pRQHomO1GpKNqllHHowkCcl4c6qTcnq/zKWVjAqrAs/PIZBOaIQL3n2v/Ypi04p63ofOuY6+AiznWvzq0YZKNaYpW1Odf7RJgpzpdddlk/QqWtshvaOuKt3T/gAQ/o51+89a1v7e2ScA9kWUfeEpw6y+wSeyRfBFwbf8hDHtKLARUaonMtHlromfX2CQVsBQHAvcg/W4Ow67SzA+LJKeWUa2IAZbzisdk+99XEyAoDUTfHjcrJs0a9Whs8hmWOBYEgMH0EQrCn/4z2vYRl3ItIDwtQxzkHZJOjq+HaIpvIK+fFwbVOBhk2RMqZUL05J06Ps0WiXU+Jch4pNllRGAgHitQKNxGb6ZhhWuRcfLeQDJOXTCSSnt210qNMKwuVirosPEV+0kP0Kd+Gf5WHKq0uFDTlsIwXwi8txJujp6pxqK5B/pECWCDVyuQ+9UQaCiuf2YLAnBEokrzoXXe8CLaOsban/Ws3CKg2ZAIkJVm71RF3XPtCyLUrbZECrJ1pp+yCaynK5lPoDIu7dt5xhFeYmrbqnONshWPmeEgPyadQ64gj6do6Qo3oCwNDspF0HXDX6qAjxAg0e8Nu+V52g60xesaWqAt1nc1gK4kRylKx5+rMPiL5ZUtauzHn9yV1CwJzRyAEe+5PeIP6lRNc5iid4wg4QMOaHBNFGcF2zIoh1BrE1dCqa5Fu13BWnCXFhyOiBFn9gyJMAXaPyT6GWRFtcYwUZ+oSMoxIU7M4RYTZ/bXCB5XJMT8UwaGaUEQV4uSoVBweRZ3jRMIp4spD8eLoOEmKFRIvX/c6Ln33qguHL2zFMWWlXHOgHK/yUrtdA8cWw/b7Bo8ltwSBSSOALBY5HCuo97867+KSdYx1lE0GLruhE4vgUogRUulRqRFZNsY97Ab7gUhbDcjomfM6zdqzNe/FUAsTQ8y1R23VNdo5uyS0Q+gYcozsEgmEiVG5tWFtXts3MoZ4y6/ir8VK+0EsJFvnQGebrWGvEGX3CgExCZI9Qfx1KNgE6bmf3fO/OiqXSZnsm/oO7cYYljkWBILA9BEIwZ7+M9r3EnKUHN4iQuh4OUvXcnjUGooUomk3DMvxUYkRa8ovR2TyEefHMSHmFQ7CUXKOnI8JR5Qm61xToDirStN5xFfcprWzOTbKNIdJdaIOGV6WD2dXM/Y5OITaNdJD0P0UuxVHxHQi7Qg7su1e6XK0nC8CrWPgfiqTIV0dCPWjnEmPMxZr7v9ylIVR4bXvDzIZBoF9RIDNWEWwq00gl9ox0qyNuhfZNNqElCLCjml7Jg5qlxRnbQsZZiN0mJFsYRo61UKzqMwUZ51dJJ7t0WaRdvbCyJIYa7ZFDLU2LeyErZCm0A42Rpw1m6P9sylIsJAS/1PGzfUQVmYEjY2qSdWEAefZROEkBAN5m9SpLsg3+0TlVj6dB7ZTh58NKVvRfu7jI0xWQSAIbBGBEOwtgjmXpD76UXGSV/6M77BeZfxLsaLqUoI4CQ6MozAUimxySMi1T47FMc6LI+XQKDdFsu9617v28dDILAJs2BUZ59g4SgTWtdRozot6XKsFcJjUJ0SbcsSRIcCcHTLPuSkjldzQM5Jcv5omHyrVve99737Ck/w5fY6P4y0FXX4IgZhPpBpBRwY4U5OjqHE6GYa5YRMlavjm5P85I/CRj1yhvi6qY5FrJNwoF5ug/VCltU/tXMgIwmtCIIKt7WmDwkKQbu2LHTGSpQNsLWvKMXKtXbIbJgsixAisdNgQ4V++G3liF+p+y3WaAO1/NgMJR6h1uJFftkNIGdWbXXNMWVyj7OaK+HVIdkh9kH/n2BnhZdR59bErmzKwIUJb2BAig/og/eobu7Ho7cnxIHD4EAjBPnzPbM9L/LGPCf8Q3jCeVRFsBJJD4HgMoSKYhmTt5dSQYY6Rw+GQhGcItRCCQXmiGFF9OCVOjqO0dJc0KUPuQ2Dthnnlw0lRm93HWVK7fbeygDTFSbpeuIgYbkQYoebInXcOQXcc6ebcKFkmQpl4iVhTzQwtU7xNguRUlV1e5SwRdHWSj3NiO92jMxByPf7u5Oh8EfjoR4WAGN0ar+PQbrANOtzatE6pSc46u8JDdNR1cinT2pU2Sp3WxrVH7d0ok+t10pFg4SXauU44u2HUCunWnnXonScCILTaNXsjDUo0O+QadkEHm4ptrghbgwxLw6iVMrpXmdkT9sJcEZOuHdchEP7BTpjsyE6pDxWbmq3ObKN6K4+OgGvZJEJEYTSOYI4GgSBwmBAIwT5MT2ufysrIU7AXkexyAj6pURyDUBDOTtwj5YYzNDTru+PUajGSnKOfMxYSQm2mMCPUlCEKEgWLA+J8TETiAKk8hnypRD45Kk6REzR0zKFSjqhTlHNkmQPjoDk3DpjTlA6lmgOkLHGaHLOOAfIubQRZGThHZeN0lZuKpk6+6wQogzQ5Tqqa4xyxWHFKFGyyBYGjhAByXXZjrN5lN3Q+2Q2kWsdVh5VSrK2xFWyGTivSiyizBzrk1Gpx0mwCRZnabDRK+AWSqh1SwbVFhBeZFYqhbWurOtPUbQRb+5avvJBmbVd+PtkwnXudfraCHULG2Q8daekh6s6zCQQEsdVsCVvjHPItRls+iLddZ1w52A4qtg462yPMhIJPrIjdGHtzciwIHE4EQrAP53Pb01LjhuUMx3hineMkOUuEklNCNqk+VBmOh3PjdMQnUpxMPLzd7W7Xx01SnjmlWimAcxGDyVkWaeWMEHIOzhAvNZpjNaxrOS7pcqZCTtyrHBQszhnp5tDcKy/knLPkRCnXnDlHjXBznpQnQ8rSoHz5H8FGrDlBzhmh5zA5UZ/SkQ+Hy2Ei8+6FiT1bEDhKCFxhF6y1PN65dL7ItU9t1sRB7UtnGOFtR5R0wLV/a1Hf4Q536OdoGP1CiincbIbdfAzp6MTr6Bt9oioLFUN2tU/t1HrW5lxox5RlBFwsuDaP7LtP55zNkp4OOFvEnrE97JkwNcuHshtIPXIuVls6yD3SrJMgD/aDHWQvpMv2SM8IG/vBLjmu7qVex24cpRaTus4dgRDsuT/hDeqHVC8b7i2CXc6Sk7OuK2fCkXFM4iMpPMiwnzo/++yz+8mInB1iTbHmmNyLqPsUlyk0hPqDsHJESDRHRnVCiE0uOu+883onx5lyjJyb+2vnuKnZ1ChOt4gyJ8k5ItTK6ccnOHGOVb4crTLYOTzDxYi2Msubo3S/yZgUeCqZ/6lqyqdzIG+42Asnn9mCwNwRuCK07IowkbG6Vnsou6Gd1QofRo20r2qrJiBq67e//e17YmxEyiRpHVjtnc2wS0O7ZU/MkdC2dfL9eJR7dKyFlYiTtht9qnWw3Vd2xyeiTo0u4otoux8Z1v7ZNSErVjxiV4SfuKfK4FMnHXHXgWf/dNCRbaFpVjsyKVMabIj/lcfETffCJ3Zj7M3JsSBwOBEIwT6cz23PS32Fij2eTTnKIsacE/WG+nTppZf2jgMBNXnojDPO6B0lR0KpcR3HViS0HErrLE2aNMmIYzJ5UWy0X2ijZF100UUfV444M3mXY5JGpcthIchUZQ4SEebcTIiiYpmcZLUBw7MmG7nevdKoXbo6AdJB5nUahKZYdcSP1tzmNrfpzjzzzH5ZMPUziYnzr3SUzV7lGkczR4PAPBAom7GoP9m202obQsGouMimjipirDPObhilEn+N9OpIVxutNu6z0mFTEFVtlN2gYGvv7IXJ09q6DjchQOe52mS11SqbPFyDrCPCQkqEplipSPmkwwYISTNaVrai0ql0hXwojyX6hLGxY9JhL4zi6TgoF0We/VGPtj5lN5QrWxAIAocTgRDsw/nc9rTU5SgXZdI6I44ACTWxkfrEOSKet7zlLfvvnJ2hWsTate6tnUMpB+LTeY6SAxSPjRhb0/YmN7lJd4Mb3KB3SGI2EV7XtA630lHm1ulRmCjmQlQQ/uOPP7478cQT+1+DlL6Z/0XU3dc6Nmk65lMdxYkaWqZGKdd1r3vd7prXvGZ3i1vcoicJYslNijLJUdnUxV5OVzptORfhm+NB4DAisI7d0Ba0DbvRHiEWwkAQanZD29SRphYj1kJByk5U+/F/bb5XW5MeRRyZRWJveMMb9rYDKRYqhsjWqJn7Kt1KS9t3TBldKyTEJMZzzjmnu9GNbtTbNB10yjjyXGm5vuyGtJTTMTv7w5YJbVOu008/vfv0T//03m4oo7CYiiWvOOwxu1FlzGcQCAKHB4EQ7MPzrCZTUg6EI+JUODXORjgHxQiBPe6443pCTHWm0FCEkNhyaGMks5wS4my2vmFeP4l84xvfuLvOda7Tk1nk3RCw2OwKDZFm7ZVulY+D46yQXkPQt771rbtP+7RP6x3cCSec0MeEG+qVXinr5WSlUXs5UI6caqXDoGxIP4J9/etf/+OKmzAU6VUnQP7KJ40q52QeZAoSBPYRgWqX2pFOqM6tyX+W19SW2A2k2IiVkSdtnD2oduhzuDmmzbIvOsAmJwotufa1r90de+yxfXrmfojzRr6132qTw/ZY/2ur8jW3g3246U1v2h1zzDF9emwIZV3YWoWaqM/QblSbd1x+7IvOuXA5BPta17pWT9rPPffcvr5C1qQnBAZxl2aVpz6Hdc//QSAITBuBEOxpP59Jlq4cJUdAgRKrKL6RsxCfKEzEryGKlba2tNARCjenUc5yWDHHOSJkHRm20gjliEMy3GtH2A2xyoMjNUGydWzSrPQ5JeeEm5joZIj3lFNO6ctjGFp6yqaMFC6TJZWxQjwqLZ/lQJ1zjaFmTvzUU0/tyQFCICRG+XQC1N01Ogrq1JZR+bIFgaOIgHcfeUWuzVcQc02tPv/88/uwq2rj2pBwCj8sU5MZq10PcXMcGbYqkLkSRqnOOuusj684om0i8GyTX24UGy3N6vBWepU+u6HNCvcyD6TC3MzXYNekR8U2giXMjBBg/kbZNulVWo7ZiRBvf/vb+wmO6krFZnvUV7jaBRdc0IeMECio5hWypoyVVpUzn0EgCBweBEKwD8+zmkxJGX3GH8E19CnOEek13MlxUqas2GHSI2JLQUKIqUyLHIbjFCsrc5jgxAHVslbSM4xqMiKFWPwzQm/Yl3PlFCtd35UNqaVWWa+Wg+UoOWDqsrQMP9dEJA4OYaYwDYekgd6mJ6aSgsXJUrekYfkuu++OcaLytByXYd84ysm8uinIASKgjSKv4q7FSmt3RoLYBhMYtXPt0+RAhJgd8P+y9qO968hSlNkFK4XooLNDQjOsbmQVEGFdOtN+/dE55VhkNxBcsd/S09H3XZiZ8pnYKD2Tr3UEdNaFhhEbygbVp3Ij2MpHqdcBR9TZRaNg7JDyUeulJy5bx0KdkfK23tLMFgSCwOFCIAT7cD2vfSttOYmxDJ1DYDkwMYom6yDaZvKXYkvtFRpC3eaIqEcczaJ0pceBcTTIKyfkxxc4Lo7G7rtjwkQM1VoBxIx958pZ+pQWx2aIV/nkLz7cGtXSqPOcmNVGEG9qubz9P3RslSZ13VJbd77znfuluFwrjVKqdCAoXzoG4rJNhqJ4y6/q7TNbEJgrAvWej9XPOW3Ej8aYKGyFoVYB1k4qNMMEQ/HYVufRSV2ULntj/Xpp6cybtCwcQ5vUjqUpDlp4CFuAxAoXIQ6UzZC279WOhWroROskm+zIrrFnZTekZ6lAq5OcdtppvY0T2lFlrE9psjcmd5sgaTTOSBk76HjlJz22zzyRm9/85n0HQx2GdmgM0xwLAkFgugiEYE/32Uy2ZBwI52AmPXXaUCcF1zFOxc45cH7WpKYOGwqmGjvn/uHGgVmpg6M09EoVQl4rvfqUpqXzkHoqtutaAlt5c2AUb2Rd+AYHVg7NNe7xKV/qFKVKaAdlybEqY+XrXk6a46UyuYfjd7wcr+/Kx0FT5yhmFCrHpVOOd1j3/B8EjgIC2oARIuFT2q4QEZ3WaovOsxvartGgk08+uVexhXktajvaoDXytTdL4kmv2q+0Kk2jWSZIW09bx1doW0tgXaccCL5RL51yky916KuNu77SZJuQeSFrJi/KVxq1+W5Hno1kIf9UdHbIvWUz2IuyG+pssqfOB5W/cFlU98orn0EgCEwTgRDsaT6XSZeKwecU/FIjomspq3e84x1XcQicC2fEUSC4FGLEuJzasIIcm/hDoSaW1BOzyFGWQ5OnNOUrL0PB4iCpYeWIpFn5Vnqu4ShNdCynVmnWtfKiMCHj1uDmAMup1SenTynjKF3rnlKhpFtp+6Ra6yhQtxBxxxbVe4hD/g8Cc0VAexMGZk6GsDIrhSDP1TaqjWsvOqZsBuKsvVc7HGKDOPvFRNcZLaM2sxHyqnt8Zw/8CAxVmj3S2ZePa2zVRrV9vxxphQ8jURUPXeelZVdmnXHhYGyR0bJKr81XfLYOBdsivK1+6VUZpeEe330aEWRP2RiCReVZZRzWPf8HgSAwbQRCsKf9fCZbOsZfrCAlCuGkzJRDKOfGgYhZpAwjuoZV69ywYqVaUYgpTK7lFOt6TsZ3pNs5DktcNdIuX+dql6/0kG8OS5wnB+i4vb2Oc6OyU6XFffspZPeWk1TOypeC7ToOVcwo9anSVIbakW/lE0da10kjjnL41PP/UULA+0/Brnkb1ocWRja0G/7XDmtSsg5r2x5bzCjEVirSzs1/cK12Wdf71EZNrPRT6tokxbkU7LIFPuXL5ogJpyT7kZkKQRvaDXbo5S9/ea9gs386Aa6pfJVRmvKldIu/9mM1QsiKULu+bIZPtky+Jl2zV66L3Wifdr4HgcOFQAj24XpekygtJ8LwcwImDXFuYhXFIZbD4OQsVWcFD7P6OaFljpIzQcYf8YhH9OoWFcn9jnNEPjk1x8RQWmdbTKWlucoJtZ+ut7KA8hkW5oQ5d+RZ2ZTTd4qSX25zzSMf+chemXbOpp426SoD51hrYJv45F4OWXrK5rv4SgrdrW51qz5vdZZela3S7BPOnyBwhBDw7msjlGQjVVbN0AlGQstuaEdIt3kW1r9HSpfFYFdH2uRBHXlhFq6XnjarbVKl2QJzLKzgQZluY7BdVzbN9cLOhLUJf0OilU8+bIpdemyfkBRhLH4avdLzOKuNa/Puo3RbLcSkTeEirnW8tRtCTEzuvNnNbtbHnVcMduzGEWogqersEAjBnt0j3fsKlTMy3ItAm/RH1aX8CAkRjmG4E6k1scdsfHGSyxwlR2I4lrpF/eUszbw3lCs9xJVyXasFUMSt6MFhK0+VqT45TcOz4i6VzxCyoWSOVlqUKcq19JyjhusktKuIQLIcnPScq3hKZUT0KdSItvR8N0wtP5OprIhiUteQYCtjtiBw1BDw3msL1F5qs3aikywsS0dZuxQaYk1o4SHmbZhH4R73jrUb7VL780uqOvJW9RBDLQ/hJ8i6uSJ+8EpctfhmSjFya5Nm28alJ8ykysCusQsmNCsfIkxdFz8u/pqdEgaGMLdllKYdIdfJNmmbEEGdZgvZR8eVT3mo+be97W37EBYdEHZNWapsY3U/au9P6hsEDhsCIdiH7YlNoLzllDgphJraZEIfIm2t2Ec/+tH9erGGYzlR68kioMscJUdCvaISI70IbA2XSk+ct4mI4prFb1oSkMpTjqycm//LMSkfB4YIK4d1qzk4aVHKqV6IsLhMKrZrOcRKo9KUnuPKz5kj/tStWpP7UY96VGdXPgqZuEwqto6BMlSa5STrcwKPMkUIAvuGgPdeW9LppBJr10ivtm6VIe1SiJj4Z21SB12MtfZYbXFYWOkho0a/hHQg5tq0kSujTQi88IyaPGiJvbYTXW1ROnZ5Ics64n7p1ciWMiLuyie8RNvXzrV34R+EBrZhzG44zq4JoRODzTawi9bTVv8q30knndSXUwee0MBuVJqL6j7EIv8HgSAwLQRCsKf1PCZXmkXG3XEOiTMy015IB6dBRUKCORFhIRRkqg8nuMxRtulRivzIBOeDtHO4doqWpflMruTUOCFlaMsoj3J0znFSlCyOVQgIoi0tDpeixMmZXOka6VUZ69MDkUY5O9cIU7F2rXs5zCqf9Dhh6QmXqfTKcUtLWbMFgbkj0LbJtq7albZkNItabaIjFVh7ZDe0T51Va9wLpag2tCg9x7UvYRvsEFIu9IQdQoJ1gk0apJhbLk+4R9vhrfZYdqTaeXX2jaixY+yZdi49hJ3iLPTDKFndI62yG747Ll172UnqdYWtld0wj0XnQHpwqfJVmaRV5WyxzPcgEASmjUAI9rSfz4GVrox66zDawpQD8ekak40MoxqORYANmxqmdZyjqb3SbdPyXRocSn0i5Ii2H4UQVylNIR1FhKVTDqjSqrTbz0qPA6Yoc7LSMvRsOT2KNEWt8na9vTZp+b9NkwN0j/RMfKzy+S49zlR9XWeTdpXVZ7YgMEcE2jbStpm2ro5XW9BGdJTrR6S0I+1d6ESFSCyzG/KTljQrXe1SuIkVf4SeiPFG5JH1IXFVrrbM7XfpyZv9QtyRX3bDxG4rfAgjKdGgLUPVVVrSqDR911mQHsFBWMirXvWq3nYoX803aevbpuv+bEEgCBwuBEKwD9fzmlxpWyfCOfjfJ2dWzqKuUfhyOGMVqXM+W+dS6VU6lU9dX8fH/ndOWnWP7xxdlc//7eZ611ZaPm3t/767ZtEuTbu05OP69lil2eab70HgqCDg/a82W+2z2kq1y2qv1VZ81vcWp0VpaW/Sskvb3rbrOiatStc99X9dX+3Yva3dcL6u9VnX17FK02e7S0eaPoe7421+7qv/K70+0/wJAkHgUCAQgn0oHlMKGQSCQBAIAkEgXe8GWwAAIABJREFUCASBIHBYEAjBPixPKuUMAkEgCASBIBAEgkAQOBQIhGAfiseUQgaBIBAEgkAQCAJBIAgcFgRCsA/Lk0o5g0AQCAJBIAgEgSAQBA4FAiHYh+IxpZA7ReA1r+m6F7/4it33bEEgCASBIQJlI3x+8IPDs/k/CASBILA5AiHYm2OXOyeMAFL9CZ9wxR6CPeEHlaIFgQNE4PLLr7QTIdgH+CCSdRCYIQIh2DN8qKlS14Vg5y0IAkFgFQIh2KsQyvkgEAQ2RSAEe1Pkct+kEQjBnvTjSeGCwCQQCMGexGNIIYLALBEIwZ7lY02lQrDzDgSBILAKgRDsVQjlfBAIApsiEIK9KXK5b9IIhGBP+vGkcEFgEgiEYE/iMaQQQWCWCIRgz/KxplIh2HkHgkAQWIVACPYqhHI+CASBTREIwd4Uudw3aQRCsCf9eFK4IDAJBEKwJ/EYUoggMEsEQrBn+VhTqRDsvANBIAisQiAEexVCOR8EgsCmCIRgb4pc7ps0AiHYk348KVwQmAQCIdiTeAwpRBCYJQIh2LN8rKlUCHbegSAQBFYhEIK9CqGcDwJBYFMEQrA3RS73TRqBEOxJP54ULghMAoEQ7Ek8hhQiCMwSgRDsWT7WVCoEO+9AEAgCqxAIwV6FUM4HgSCwKQIh2Jsil/smjUAI9qQfTwoXBCaBQAj2JB5DChEEZolACPYsH2sqFYKddyAIBIFVCIRgr0Io54NAENgUgRDsTZHLfZNGIAR70o8nhQsCk0AgBHsSjyGFCAKzRCAEe5aPNZUKwc47EASCwCoEQrBXIZTzQSAIbIpACPamyOW+SSMQgj3px5PCBYFJIBCCPYnHkEIEgVkiEII9y8eaSoVg5x0IAkFgFQIh2KsQyvkgEAQ2RSAEe1Pkct+kEQjBnvTjSeGCwCQQCMGexGNIIYLALBEIwZ7lY02lQrDzDgSBILAKgRDsVQjlfBAIApsiEIK9KXK5b9IIhGBP+vGkcEFgEgiEYE/iMaQQQWCWCIRgz/KxplIh2HkHgkAQWIVACPYqhHI+CASBTREIwd4Uudw3aQRCsCf9eFK4IDAJBEKwJ/EYUoggMEsEQrBn+VhTqRDsvANBIAisQiAEexVCOR8EgsCmCIRgb4pc7ps0AiHYk348KVwQmAQCIdiTeAwpRBCYJQIh2LN8rKlUCHbegSAQBFYhEIK9CqGcDwJBYFMEQrA3RS73TRqBEOxJP54ULghMAoEQ7Ek8hhQiCMwSgRDsWT7WVCoEO+9AEAgCqxAIwV6FUM4HgSCwKQIh2Jsil/smjUAI9qQfTwoXBCaBQAj2JB5DChEEZolACPYsH2sqFYKddyAIBIFVCIRgr0Io54NAENgUgRDsTZHLfZNB4L3v7bqnPOWq+0Mf2nWf8AlX7L4Pz7snWxAIAkcHgVe+8up24O53v9JOPOlJVz9/dNBJTYNAENg2AiHY20Y06R0IAve//5WOsoj1ok/XZgsCQeDoIXCjG61vJ5761KOHT2ocBILA9hAIwd4elknpABF44QvXd5yuzRYEgsDRQ+Bxj1vfTrzznUcPn9Q4CASB7SEQgr09LJPSASNw7Wuvdp6uyRYEgsDRROBNb1ptI4x8XXzx0cQntQ4CQWB7CIRgbw/LpHTACDz84audp2uyBYEgcHQROOOM1Xbiuc89uvik5kEgCGwHgRDs7eCYVCaAwOtet9pxuiZbEAgCRxeBpz99uZ34f/+v6z70oaOLT2oeBILAdhAIwd4OjkllIgjc8paLneetbjWRQqYYQSAIHBgC7373YhshPORBDzqwoiXjIBAEZoRACPaMHmaq0nVPfOJi5+lctiAQBILAPe+52E684hXBJwgEgSCwewRCsHePYVKYEAJve9tix+lctiAQBILA858/bieOPz7YBIEgEAS2g0AI9nZwTCoTQuDOd76683QsWxAIAkEAAh/+cNdd4xpXtxOPfWzwCQJBIAhsB4EQ7O3gmFQmhMCzn311x+lYtiAQBIJAIfDgB1/dTrzhDXU2n0EgCASB3SEQgr07/HL3BBF43/uu7jjf//4JFjRFCgJB4MAQeNWrrmonbne7AytKMg4CQWCGCIRgz/Chpkpd94AHXOk8fc8WBIJAEBgicJObXGknnva04dn8HwSCQBDYHIEQ7M2xy50TRuBFL7rScb74xRMuaIoWBILAgSHw+MdfaSfe9a4DK0YyDgJBYIYIhGDP8KGmSlcgcJ3rdJ09WxAIAkFgDIE3v/kKgn2Pe4ydzbEgEASCwOYIhGBvjl3unDgCj3hE19mzBYEgEAQWIXDmmV33vOctOpvjQSAIBIHNEAjB3gy3yd9lzefLLz/a+0Me0nUPfeg8MZj8C5gCBoEDRGAntu/ii7vuCU+Yp53YCQ65dufvwAG+4sn6ECAQgn0IHtImRbzrXbsu+zwx8HPOnGG2IBAEro7A6153RdjHuvbv3HPnaSfWrX+u2+z5s8PetWxBYBECIdiLkDnkx8toHvJqpPgjCIRgj4CSQ0Hg/0egCHYACQJ7iUAI9l6iO4+0Q7Dn8RyvVospEOz/+7//6/73f/+385ltHIGPfvSj3cc+9rHxkwuOhmAvACaHg0B3haqojRzUtkmbHpaV3Xzf+97X79Lb7+2//uu/un/6p3/q/v3f/32/sz6Q/NhgOO/EV4VgH8ijOlSZHqAZOlQ4HbrCHjTBZrD+/M//vHvDG97Q/cd//Mehw2+/CvyBD3yg+63f+q3ub//2b9c27iHY+/V0ks9hROAgFex//ud/7t70pjd1//Iv/7IxdEje3/zN33TPeMYzuu///u/v/uEf/mHjtDa5Uf6vf/3ru8c//vHdy172su4///M/N0nmUN3zb//2b92f/umf9nb4Ix/5yFplD8FeC6YjfVEI9kwf/6YE+3/+53+6v/qrv+pe/vKXdz/8wz/cPetZz+qe//zn907jwx/+8Npove1tb+u+7/u+r3vd617X7eS+tTOY2IWI8m//9m93P/7jP9699KUv7f71X/91rRJSil7ykpd03/md39m9+93vXuueEOy1YMpFRxSBnRJshJJa+9rXvrb72Z/92b4N//RP/3T3e7/3e512ve72nve8p3ve857XvfCFL1y7/Y+lTb3+lV/5le4Wt7hF96AHPah7+9vfPnbZnh0jiHzHd3xHd73rXa976lOf2n3wgx/cWl4U8V/+5V/uMWIvp0LeleuXfumXuuc+97ndX/7lX/Zq9qpKh2CvQijnQ7Bn+g7shGBzMAwd5eVpT3ta9+QnP7n7hV/4he73f//3uze+8Y3dz//8z3ePfOQju8c85jG9sV81ZIkoMtA/9VM/NfshRlgwyD/0Qz/UO9ff/d3f7fH7sR/7sQ55XmdDxjmyZz7zmd371/hN9xDsdVDNNUcVgXUINptHTPizP/uzvu2yVz/zMz/Tk+zf+I3f6DvJ3/7t39590zd9Uy8SrCKCSKjOtY7yP/7jP+4KemSPLTj++OO7pzzlKfs+Amjk8fM+7/O60047rRdaVtn7dSprRPNP/uRPum/+5m/u/cmv/uqv9nV88Ytf3D+HddLY62t0sp797Gd3P/IjP9I/Q+/Isi0Eexk6OQeBEOyZvgfrEmxGxLDmj/7oj3YPechDuuc85zk9YWTkKybtQx/6UPfWt761u//979/d4x736N7ylrcsRM21lOsnPelJ/XDbwgtncILTeMc73tF3Ji6//PKOal/q0/nnn9/juG41//7v/777si/7sr5j89///d9LbwvBXgpPTh5xBFYRbO1WfDPh4NGPfnQfikGtdqzIJEL9h3/4h90TnvCEnmwKlWDbxjYhBb/+67/ePexhD+vvWUXMxtJoj7EFn//5n9+xIUYA93NTdur5Kaec0tujdUfVlpUR3n/8x3/c1+l7v/d7e3WfjTNa8KVf+qU98V52/36dU3ejBV//9V/fveIVr1gpkIRg79eTObz5hGAf3me3tOTrEmzxfd/yLd/SXXDBBb2CQ4kZcxCM5K/92q91J554YveABzxgdOjUNeKJGU1hEv6f6waj9773vX0IzYMf/ODu1a9+9cdDYSjap59+eh9is279pUfx/6Iv+qKetI89g0orBLuQOLyfnq+h+EXt7fDW7OBLvoxgs0l/93d/1/3AD/xA94Vf+IW9GCDeuYh1W3oK9+/8zu/09u5zP/dz+/kkY9dJD1E3+rdu/G6bT/vde/FHf/RH3cknn9x99Vd/dSc2eD83HQtx38JThLsQDHa7IekPfehDO3ZS58HmObzmNa/p7n3ve/cdnWX2brf57+R+9TX6+KhHPaoXSJaVKwR7J8gezWtDsGf63Nch2CbicAw3v/nNux/8wR9c6Rw4D+T6Rje6Ua8+DKGrUAdpclpz3igwlB5DqdT6diKSCYtnnHFG9+Vf/uU7gsBIwud8zud0VJ5lji0Ee0ewTvJibQnBoKIehTkK+/kQFhFsZEkYgHklF198cScEBPlbJgToRH/bt31bd+aZZ3bf/d3ffbUQLs/RfBVEcdnI3rr1Z1d0tE899dQ+3WUEb900d3IdPIyk3e9+9+v+4i/+Yie3jl6LsH/P93xPbw8JNGXXYM5+UumNeO62YzKa+YYHjUqywzoYy9pmCPaGAB+h20KwZ/qwVxFsISDifq91rWt1X/u1X7vWZBPG3j3HHHNMr1K3ao5zYriFmVAAypDOEV51pVoZSrzb3e7WDye2DkIM421ve9veSe2k/hQzTlwojglTi7YQ7EXIHJ7jiJR4TyQvq+xs97ktIthGC4QlaLMVmtDasLFSeDYveMELeoL4JV/yJVcL+6IwP+IRj+i+5mu+ZiuxxEQKHXMd992sRDJWl1XH2DVzbnQ+vuu7vmtU1V+VRnteekJvpEe9ZjMdsyHYr3rVq/qOC58ypTagjN/6rd/ak+xl8fQh2O3TzvcxBEKwx1CZwbFlBJtTsXLFDW5wgz6U4Z3vfOdaNWZ4fuInfqL7lE/5lO7ud7/7VWaX6+mbec8xiBtcpgpVZtJDKhlXuzTWua/uX/UpfURG2pSUZWm7Vqdg2TWVHzJNfYGBuEshIe32m7/5m92tb33r7r73vW97eOV3zwV255xzTu98Ft0Qgr0Ime0c9w54Lz3neh+8H/73jradqU1z9F5S7qij2yIX9Q5LW/mr7MMyus4+trlH/YZpeDcds2sn7f2Fl3MtZmPpVxnhaHfPGMmt6+TV7lUn593Xnqt0xgi260zapkze4Q536EcO1pmE7BoK9VlnndVdeOGFvYhQZVA/E/eosD/5kz+5EO8hDi1ew+fEFp933nk9qR/et9v/23wLqzZNz8IKKDr4i9R4uEvH56pNh0bYjHAXE0DZ4Nrk/6IXvagfPTXBlOAzpQ35Z8NNeG2fd1vGEOwWjXwfQyAEewyVGRxbRrDf9a53dZdcckn3SZ/0Sf1M7nWry6gavvzkT/7k7k53utNVZssLbzBD/LLLLuuX+VtlgBlY6gDV24xyhNWa2VQOTme3mzSEaljPVfq11jRVSL6cSbuZ4PTmN7+5++u//uuV+UvDSisMsHjF1nFI09CiMBpDrTvdONi73OUuvYKyCMMQ7J2iuv71CKL3xhJidu8jkmVEwftpiTGdoHVWe1mWq/dvmwRbub3Xyoy4IIWW23S83bxTiI99SBz8L0RAWzGHAsmABZXWqIzj6i8uWeiENmzin3e2bWfSGOarDK6n0Iox1t6lL2zAxDKdjPZ9hznyCnMr88hT+5SvcrrexDnHqaSuY9fkMUawPS8rcphDIr5WGMA6m07AK1/5yu7ss8/uiTQMkHWb8mrr5557bvcHf/AHVyn/WNquhxcbo07skuflf++DeukE3Oc+97mKbR1LayfH5AsvIR/y8/5aPcU7AJeavGlJQqGCT3/6069mH6u+7KT1orWH4fszLJPnhayb3+P98Gxq83yF6lz/+tfvQ+KG9riuO6hP77BRSCNMi/xRCPZBPZ3Dk28I9uF5Vjsq6SKCzSha69MSUHYEYt3NvYYOr3GNa/TOhrGtjYprGPBxj3vcyqFNBp+Ds7Qd5cf6sxylmdtiUqW1ynhXvmOfjLf0OApreFOUTUKkzjDqHC2n1m4UfROZnvjEJ358Ik57vv2OEOig3P72t+9X/eCgaufIhNxc+9rX7lcXae9b5zsCYaKj9W8XOZ0Q7HWQ3Pk13jmx9N4VIzXUZYTD+/mLv/iLPdFCXnUirRG/m22bBFtaVvnxvnuH73rXu/ZhEEINkJyW2CCMSJx3eNjGXIesUhTvda979eTIMmrVAUYuf+7nfq4nqJajQ+CFFCDKVtFAyr/xG7+xs6IOQt7mq80jZbC1BChMkWtLoplkrf21a07rxFo2T1pGxaxe9NjHPrZfpQPB1ZmgjiKjJtAhQtKDxZBgqycc4HKrW92qtwlwWGfTroWV3OY2t+k7vohxEWzpmogoBILAsGpDaHUsrNgEK5iJw0fSKcaIHGIH721t9U7DUiy0fHWSPFcjjuaPwM2zYje9R56d5zXcYOueBz7wgT0pXqY6u5YYAzdCA0JPiIC7XcdNR4cQwUYP38Vh3vv9vw6iuHojHnAZ20Kwx1DJsRaBEOwWjRl9X0SwKUgcEhX6i7/4i6/iBFdVnxFGLhBs4Q+MqI0xtqSViTFIyTLD63qGVqxxLW3nfztlxbJYFvyvtFeVaXiek+K8kX1lsXQeg85hM+TCL5ST+lWb8ut0GAbmDJaFzMCAk7zxjW/cDzWbkKhjULsOAsUGRuqx0w3J0ElBcBbFYYdg7xTV9a73nlDakD2KpDWQOVmdLiTEBDnLtVG2vuqrvmq9RBdc5f3ehoLtfdQhRXh1yr7yK7+yL7e4YLHG/tdps3nPTT5GcBGeIYnyP6JoWFxa6vkN3/ANPSnW8VDmWnXIsD8iruMhLW2ebUHiqL3aWimj8tYuEUqEVPvR3pEY95oUDWfqapFXeamXe9Tlpje9ad+mXY+MyQ/B1tHVBnWoiQXwGBJsz1WH6brXvW53z3ves1ePFzyWqx3WHqV/wgkn9HkhoIWbOrElViNZtdqHMiPn7BsbAWd1RKjZQe+CNKStDtvYpOV5eSY6W567d8FzURbPWL0Q/CK47qn6DctAPNCJM3KHHLOpizYdIB0nBFq8uzal41C753HHO96xu93tbreRnVyU7zaPP/zhD+9DKNV7bAvBHkMlx1oEQrBbNGb0fRHBRhwoOZ/4iZ/Yq8eLjOkYFJyN1TFMcuR4614OgUqMFFK4W8c6lo6hSg6VCsjJ2HxSt/w8LyPMeW2ycYDItdVO1LV1VtQbs/P9aA4Fpd2oNhQX5HyRQXW9upmcBgOdDAocZ1E7p2KJq8/4jM+4ClGHlXQRnGXhBYgDNQ45QjDGthDsMVR2d8zzQRCpsd4/6iziJ17X80ZMXIOYUFKpgLvZvO+7JdjKo016rxEfZTcyhFTpJAptsJ5yxZEWyXX9sk6w95OyiXypq/RqQ4CFn3zqp35qr+61iq5rdCp1VNmH9j3Xbkx+pmhaa7/amPQouieddFI/ujQsFxIu/AMZRI7VEXbakdEFSqyRtCKIyjAk2J6dSYjarLa/7qgdfC0r516hDF/xFV9xlTYNe+Fcjg/LXXjVJ5Lvx2NqcmUdZ3e8Z0bWKNzb3BB2HR3qP5LdEmLhNEbKKPowXWfzrIT0eX7eqbLdY/cK7yHgFBl3D1tZu1G+61znOv0IBJs9xU3IozbQ4taWMwS7RSPfxxAIwR5DZQbHFhFsSqtf6DJRkRHcyYZEmxhJlaBC1cYJGupEsBlS6tSyjcMUXsHAu48TY6wZfQoipZBz2+nGoVDGOQ3kpZy4dKQnHEUMJkfXnnOe83CMI1yWN+WJk6ZgS4fKzIHXXmqXYdRW1YKR4XQz5g21t4SgrSciwtmK6zSsPbaFYI+hsrtjnjlH6t1EUjl9z1BHzTvp+dm82wjnomHjthRIFzKHDA53nSfKJQIrXGN43v8V/7zoXfHOImiG7Sm4ytS+u95lZNo7p/zamY4gktRe15bZdzjo5GkrlPGqe12HXBmh0X6HHVUd1Dvf+c69wtmGTSD33nujM4h/S87YJB13nes27KzygzmlnFptBM1ognAvdXP9sC5Dgl1zTo477rh+7sQ6z07e8NVJ15GmoGuXOmG1qbsJico9tCd1TX16F1xnBE2HgsigrbMbbKB3QH7b2ggL3mVlp7L73r5H3hsiB/K9Ez/gOepYtM9vWGbPg68g5FSnCFZUbbvnUatRIdotptJyjfaxyo8M8131v9GCnZB5YhE7v2hEMwR7FeI5H4I903dgEcFGMq17Lf4akV13YzQ5CCrQZ33WZ10lXpKx5QAZbKEWHPuyjaP/7M/+7O5617terxAaYrUskiFijqh1BMvSGZ7jDMXMGXYUbtKq15yZkJFb3vKW/VDppnkgPsqugzBUfuQhrEC94NCq8JwnpyHEgHMdkoKqC+dP6bPuLic1toVgj6Gyu2Oeh+elU+Q5InFia6mXHPOi57UoV9dTcy3lKI3hLsQEAdGRMtw+PO9/7Q35XETevFPIivCstjPXlglZFiZCHRV7TUFcpZQWwdYR9x4P2wqirINuCH1IgpBvq2oISUCUaoOHa7V9bQjhEyohpptarl0KBWlJeXuvMpmzYXK1jg+SKq1h2dwzJNjIpLCVm9zkJn0a6z5LbVH5qO5WDGJT2s6G9myEQ/mHOFTZ69O7VZ1voTdf8AVf0E8K93zZ4W2Sa3kiwX5Mx8iA96gNN1N/Iw/8gGc4JLhV5k0/YcQf6DQJuTPfpX1OymaU0UjfcPUVmFtxRPiRd3u3m/fJO2nuhLp+3dd93dpJGmFFsBetqBKCvTaUR/bCEOyZPvpVBJvhHVOLFsGBFDKYVCDGs3VSnAdVioLNKK1SiDgTTtoSd9Rmw83iI6ktFLDWGC8qz/C4e6ha6kVZ4/zaMiJJhiyFXiAam25CB8QOXnTRRVczvFQozh/BsFLCsB4cD0fcOulhOWCHSCDYMBrbQrDHUNnOMe8MsqqTg2APh9bXzUU64oV1wpCo4S4m1fvvnRTmMDzvfwTdHIJFaqE8nPPOtO96W0ZtU/iI0RBkUftadG3dVwRbJ3JIgFzjvbzmNa/Zx6EPiWERbEpzG1oiT51nI186HUip9iotK/H4aW54LOr0a0tGFpDwz/zMz+wnKi8itUOC7TkIW0HiKfjrbMpr9IHiTr3WOR+Sf7YAwRZXrVO2bJMeGyodnSp21ERoNtUIxCpRYlnaY+dgBU9k3rvc2mTvjHC4G97whv3PxA/t1Fh6OzkmL5Mq2TDYtOReOjpYRkeMSAwnm3tfjcZ4TxDx3W7svrR0jggv1Px1N6OxIdjropXrxhAIwR5DZQbHFhFsjpvRpeYMDd+ianOiYio5BGrbUAFzXtxqxfotcnxt+u5B8DkpBtCPOIh3owC3yld7z7LvHBxHLXyFUR92HgyLc2aUNcrXphs1jLOmlHMUtXFSnAq1C6EZOgekehkRqnTUw9Akx03lG9tCsMdQ2d4x74fVMHQYjTi05GQnuXgnjKKM7doIRVOYCEI/do1juyU/0kBkEctnPOMZK2OF1a8l2IjYsAybEGzvtXJQgqmIVEF2hB0QIkFhXkWwdTaEFFD+hVqYszEsm/IPCbYhfqNriDKyuc6G6OngnH766X3HX6cclu3mPREiIoZ60ShDe7372SXL3Inhh8PNbnazvmzsyjY3HXzvL8Ufvm2nXmy8Tg5bxR9se4OFH+cRKiTEyPtUGwyMPpijIuTG8x9usLev6ggO7xv7X2dCx0792VSrzqy7mURrpFfHaGyLgj2GSo61CIRgt2jM6Psigs1YIMKGeKkctSERSKgZ5RxoOQxGjjrNGHNsw5hL97tGfLF4O0N7dW+lXZ+cLPWbqtdew+ha1YPqJb55qGrU/cs+EVrEVscB0W5JkfKZmKWDwGgyupyj2MOdKkcws0oI5bEdWqWUcLQMuJjdchwIgCF8k5sMl1Kr6txYfZAOq1bAeplhv/zysbtzbBsIIDuerxEVz26MxO02H+/gbic5rlMGZdfmhKQIyVhn2zbB1v6M7hg9QnSR1RZTRFmnFcGmelOKXd9uxADkWGdcfajA1lgeix8eEmz1qdAthK/aH9Llfp0INq+EAeUVnmBiJRVWeAHCN9zYDu3Ur9cORYe6lm2joMO+tbfqr1xIts6C8LZtbmw5giuczzusHLWpG1tthIbAAQcjHC0Rrms3+YSL0RLPmgrchi+x+0ZG2NDhaIXnwm5vi1wPy+6d2QnB1smmYLeTdds0Q7BbNPJ9DIEQ7DFUZnBsEcHmPMQ7m8FtogmjxrFQVDh8zo8DM0yHtFoX11Ae5Yny4v6xzTnhEWZeL3I2hsXF3SEurbORJpWJQUOAW/WXY6D6IMRIyaLNOfGlHDW1riXO7qd8GVpGcJUPyedUynEi/wy+vFtnNMzPNToBwlDKIXFQCLx6UWfa+vtuOFzICtwf85jHLFXokXYxs9KivIxtUbDHUNnOMe+DMAr4G63ZRhzoWMn2k2Brd8KWTKhbZ/Nem+SICG1DwUYmhY4ce+yxfdupdqMs2r4wFKFiNbqEHBoNqvPagQmNSJt7tTftzD2UWCNerV0aEmztmX2zooVOPNvDPoizt8oGm+dTGAF7KA+2SNgKm9LakhY/6Vqlxdrjrc1qr2HX5CkkQmxxu7nfaBWCvq6o4P2UF7vSdlLadH0nWCCTYp29w4WP+nkWiKMOhPdQGYUprTNyiADDx2elOczbccsrijMX7lYEW3k9ayOVVPW636dOlfXGxUmzfxT4bW87JdjeRyMUfMPYFoI9hkqOtQiEYLdozOj7IoKtihyMWDRr2RqqZWCpvow2o0/BM5zLGFqCigMYqiBDqIRLIJ5iJIfKRF3L0VNUOEpKhrwYfA7UcCyVyeSbdqMMM9SI+XBSYXud74y2YdGayCVt+XCuhkrfYSqGAAAPd0lEQVRrzVUqPGfXhngg3tQqqzog84s2nREqP8dKYebwzEzn6JGS4YQe6pUwA/hxdlY5WeSw5UnB06GBYzmgYVlCsIeIbO9/76J3w3vkWQ1DjbaV034RbG0MWfVer7O5XvsVZmWSI9VYWb2LCJL3XTurSY7wco9z2ptzSIkRAO3LMecpz1YgMoqjfbnecR1KHXvt2w/KsE2IrtAF7URZKMjK35IuJA8RE/aBxHlOiLdyDgm2Y8ijzr/5EzrgFGNCAvKpHAij9it/cdJUZWEOyr9oUwfLcrIti5b+07GmzCsre+Eeu7Kyszr+bI//19mo/VRzq9uwNYtsBLsJM3gLrVEPu2cirlzog7wdY59gvswuKZsymjjJb2gbi4inaxF8E3Vd79nIx6gEXAk7bbnZVHZfmCEfQaih+Nc1Pj2jdfe6b4jnTgi2d95zZbMX4RKCPUQ4/w8RCMEeIjKT/5cRbFUU0sGQMSAMPOdCReCIEFkOwQ/SWIrOMCLjxugsMjZUFRPCrAhCGR4zcpwNZ0/dYPQ5CEYXAWawGVeOrt0M4XImFCBEf9mm/IaA1UWYhrQ5DishUKis/sFpUq6EvXDSNmU1lMnJG7psf4RmmJ9rqfWclLqoq/TV3X0cSbsh+LDRqdC5UNcxbKoc6ssRSHPRFoK9CJndH/dOeBcp2IjHovd9tzntF8FGisS66sCu2hA/BBO5YRusMsEOeGeRJGEa2o6OMDVaR1Cb1a6dY1OM0iDmwhOo34553xE7nXVtUAfGPXa2BtEVXoU4skU6sAiwUSFEX8fXpGJtuYhoTUAUEobQI+lG2zy/1772/zptpN3YL+1WSAZFGcmTD9LrHraIEq0clF2qtnK7T56wGW7Oe0fE9sJlrF0TLWBPnWWP4IDUsxvIpzXWF5HzYX7+h6m5JDorOjPKN7bpCOnUGDGTN6zZJ/ezW2yq1UXYYTjAZtWmLjof1G8hJssUbzZP54w9hiUhxzwe93v32821RkyVkThCULGiVOGJyCsnkWLVDmPp1b1tPjsh2PLTkWCHhza90gzBLiTyuQiBgRladFmOHzYEVhFs9eFMEWjqK0fGWXIYCConQ8U2vMdYcTCGbjmHMWfDCDH4jKPhxjGjJB2qjXwM+XI88kM+GeGh4VVG6oZrqFQ6A6s2yo1yU704aEoYB4ogcCwMpnw5tdYIKxciwsEyrsu2UlwQBb+OJg+jAGN1lg4VjqMTh+06pLuIQpuP+2Fx4YUXLiX5Idgtatv9jkR4N43o6Fi278g2c9ovgo2cGOrWbldt3j8KKaUX+UJGqZyIkTah82dSpmPOucZ8Ae3JKI5Oah13znWIrw0RRGJdg9waHWMnqJYVc/3kJz+5V4SRbtcK05BG5YPEVgccYXO9jq7zdnkhaWMEuy2D8BK/KMnmaW/Kj2SacEjdLmVWmZFI74E2P7Ypp1hjnbJF7Z/tUSfk1rtl19HXsVD3nbxjysIWGi1kd8bsSJXT6AKSjejqNLF/CKp3XBiUSa/KpGNSuNa9Y5/KyU4/5SlP6S699NKrrBIzdr2RQs9YHogzOz6GI5wdZ4PZX+9Q2Wd5GvHw3sh31Q4b6Yz5qHUJtjxrRNM7v+j5hGCPPfUcaxEIwW7RmNH3dQi26nIKnC8jKzbPJ+dneI9yRQlxDeWFOkXxWWRwEHZE0kTHdgLgEFbpIb0MpwkkixxTex9SyiGus0mPU5NHq/AgNY6NGXnpUj44ISR41SZdjso9y8oPK+TDBC+rRsDPUDfnN9ykxcEgDeXkh9f4PwR7DJXtHOOYkQ34t+/OdlK/MhXtyqiKTt2i9/HKqzf/5n2z4o32M4UNpt5zbV9bbNsOsmjEYJF9Wbf8wxCR4X3sAHsmLIGNQzYRR0t8Utxt3gOqvE46cryIgHp27KLRtWUx7uqkzSOOwsC8X7upJ+JKBV/1jqoHO6WT39bBcTaa/fV9J5t3lzCjc7Bq8zzh6P1bVl/PnkAj9I5w4f2od7ael86FDtSi3XkCyyLbuS7Bhhc7bF/mx0KwVz39nA/Bnuk7sC7BHlafoRPCYRIfJcvsekOzJupRtmvCyvA+/3M2ev7ihzmsZQZ17P5lxyxZh/jv1aasjDrle2yllE3z5bwMdxrGRqioZRx76+wqbcOkVkbg9Jc5vRDsQuzwfiJGOlrayTIVcrc11GaotUjRUdlWEewxHJBjKyXp3FLrKeRUZjavSPfYfZ6j9i1+XNveps0by88x74vfGyCM7Ed+w3IQUij9Okrb2nS2kHZhiXwOsq1zuM1N/LewpmUbPNlhIVJGc5a1zRDsZUjmHARCsGf6HmxKsClKfkHQEk5m3Yu1o76KH2b4WsVpCB3jZMiU0iy2cFsGmIpgiHHbBrctPwJCwUdul3Ui2nvW+Q4Tiou4VU6JWmbYeegYqTXViaG+L9tCsJehc3jOeeeoc8N3YZs1EEOtY7es3W4zvymktQnBRvCsmmIdfWFuCDObJ1RolR1jn4SICLVbpmJvAxvvionTOk6r7MQ28hum4X0V4scXbLPTxiYKP7Jyj9AZQg0iv9uNLYeXjqxVYajYOkzCSBaNIgqdESs+Zqfb8oRgt2jk+xgCIdhjqMzg2KYEuwih4TGTWfzst9nU4hZXORqw6fEjkdRv8ZW7nSRGyaWgM+pjqu+2HhXVWjy1STKrhl13mienVMObhmSH6ftfPKVYV8rZ8PwwvxDsISL5fwwB7cVkzUWTjsfu2e9jyKm2t9uQibbcmxBsZJHS7xdljznmmF7NFteNnK3qAGmvYnV1oo2ALQpRaMu46XcdAbYCYdytbd2kDMQCcetCMba5IbsmnuvQiBc3yXUb9l5ojBFZceDi1vk1YYB81LAz5B1wXGy/UMlVHYgQ7G2+AfNMKwR7ns+125Rgg0Ooh16+CSNWxxCDKI5uWdhCCyNjKXbRD79wPKsIY3vv8Ls8zX5fpSYM79vp/wwxhbzi/nZ6/6rrOWk4DJ21/2FNNWHc13EqIdir0M55COjMGRU5CKVznSeg4ymswtr35insxk60+W1CsN0vZMeqFyZXEhSonMtCBNo8kV1CAHImxGCvRgw8Uyt+INpDW9KWZ6++m5+i07Ftcs/OE3CEvYhT39a8BO+Y91+aym4XCuhYS6C9e3AVesPfKcsqfEOw9+otm0+6IdjzeZZXqcluCDbDwvggmyZ8MFKrjE2buWspU2b926Wxm01Z1iX3m+bDIdp3Us9N82rvY+gZdHHZOibr5B+C3SKY74sQQFJ2QhIXpbNXx5EeYRXibimWB02wkWnElbLJZu20PNqvMDMhDgSJvdjYqP2wh4vKLu91Ox2L0lh2nJ3fa1s/lj9/5dnpJK0rJoVgjyGZYy0CIdgtGjP6vhuCvQ0YEEUOnuKylwZ5G2U9yDR0Xjh1itA65FpZQ7AP8okdnry9TzsliftZO2EO4p2tOrTT5eqWlXNTBXtZmuucK5tnNGxbCuw6+eaa3SPA/hI7dJLWJfgh2LvHfe4phGDP9AkfNMEuWNcljXV9PlcjEIK9GqNcMW0EEBoT2awNb2Kxjua2toMi2FV+Ni92r9A4HJ/1zHby3EKwD8ezPchShmAfJPp7mPdUCPYeVvHIJh2CfWQf/aGquJErxNnwu9ACanop6sJD/GiI+GsxsTshNqtAOGiCvap8OT8PBEKw5/Ec97IWIdh7ie4Bph2CfYDg73HWIdh7DHCS3xUChtiFSfjFRitrCAGpiYPmGyDTflHQD7SY5LjOxN6dFCgEeydo5dpNEQjB3hS5o3NfCPZMn3UI9kwfbGKw5/tgZ1IzS1Jedtll/QomFGzq9XOf+9zuxBNP7H+2m7It/tq68Ov8hPtOYQnB3iliuX4TBEKwN0HtaN0Tgj3T5x2CPdMHG4I93wc7g5r5YQ8/0nGf+9ynX8FElRBqaxv7JT0rNVCwrRVdoSPbrnYI9rYRTXpjCIRgj6GSYy0CIdgtGjP6HoI9o4c5qEpCRAaA5N/JIPCmN72pu9e97tX/Kp/VcWzItF93vd/97rfn69nLLwR7Mq/DrAsSgj3rx7uVyoVgbwXG6SUSgj29Z7KtEoVgbwvJpLNtBF72spf1P0ft1/5qZRBE+5JLLul/KdH60vZ1l0LbpHwh2Juglnt2ikAI9k4RO3rXh2DP9Jk/8IFXrJfMCGSfHwaXXz7TFzfVOtQIvPSlL+0uuOCC/seT/CgKIv3617++O/XUU/ufwfYrgCY47uXa+EWwY/fmZ/em9ky9a9mCwCIEQrAXITOD4xp/9nliMIPXM1WYIQJ+8tza1iY1+hXJt7zlLd2zn/3s7qyzzuqe9axnda9+9at7wr2XCjZYY/eCwX68AzNswqnSFhEIwd4imEkqCASBIHCUEfALhpbie8ELXtC94hWv6F7ykpd0b3zjG7tnPvOZ3XOe85zuta99bb+E31HGKHUPAkHgaCAQgn00nnNqGQSCQBDYFwSQ7Pe85z39D8jUSiHvf//7Oz8u84EPfODjPzazL4VJJkEgCASBA0IgBPuAgE+2QSAIBIG5ImApvjYMxP+1z7XOqVcQCAJBoEUgBLtFI9+DQBAIAkEgCASBIBAEgsAuEQjB3iWAuT0IBIEgEASCQBAIAkEgCLQIhGC3aOR7EAgCQSAIBIEgEASCQBDYJQIh2LsEMLcHgSAQBIJAEAgCQSAIBIEWgRDsFo18DwJBIAgEgSAQBIJAEAgCu0QgBHuXAOb2IBAEgkAQCAJBIAgEgSDQIhCC3aKR70EgCASBIBAEgkAQCAJBYJcIhGDvEsDcHgSCQBAIAkEgCASBIBAEWgRCsFs08j0IBIEgEASCQBAIAkEgCOwSgRDsXQKY24NAEAgCQSAIBIEgEASCQItACHaLRr4HgSAQBIJAEAgCQSAIBIFdIhCCvUsAc3sQCAJBIAgEgSAQBIJAEGgRCMFu0cj3IBAEgkAQCAJBIAgEgSCwSwRCsHcJYG4PAkEgCASBIBAEgkAQCAItAiHYLRr5HgSCQBAIAkEgCASBIBAEdolACPYuAcztQSAIBIEgEASCQBAIAkGgRSAEu0Uj34NAEAgCQSAIBIEgEASCwC4RCMHeJYC5PQgEgSAQBIJAEAgCQSAItAiEYLdo5HsQCAJBIAgEgSAQBIJAENglAiHYuwQwtweBIBAEgkAQCAJBIAgEgRaBEOwWjXwPAkEgCASBIBAEgkAQCAK7RCAEe5cA5vYgEASCQBAIAkEgCASBINAiEILdopHvQSAIBIEgEASCQBAIAkFglwiEYO8SwNweBIJAEAgCQSAIBIEgEARaBP4/g39JjO+EGU0AAAAASUVORK5CYII=;" vertex="1" parent="1">
          <mxGeometry x="696" y="960" width="424.14" height="201" as="geometry" />
        </mxCell>
      </root>
    </mxGraphModel>
  </diagram>
</mxfile>
